Maname-Informal-Sin-Regular.ufo
<glyph name="plus" format="1">
  <advance width="618"/>
  <unicode hex="002B"/>
  <outline>
    <contour>
      <point x="558" y="343" type="line"/>
      <point x="560" y="377"/>
      <point x="566" y="405"/>
      <point x="568" y="432" type="curve"/>
      <point x="396" y="422"/>
      <point x="254" y="422"/>
      <point x="61" y="432" type="curve"/>
      <point x="47" y="343" type="line"/>
    </contour>
    <contour>
      <point x="344" y="303"/>
      <point x="344" y="425"/>
      <point x="354" y="618" type="curve"/>
      <point x="272" y="632" type="line"/>
      <point x="272" y="141" type="line"/>
      <point x="306" y="139"/>
      <point x="327" y="133"/>
      <point x="354" y="131" type="curve"/>
    </contour>
  </outline>
</glyph>
<glyph name="comma" format="1">
  <advance width="278"/>
  <unicode hex="002C"/>
  <outline>
    <contour>
      <point x="87" y="-155" type="line"/>
      <point x="147" y="-99"/>
      <point x="220" y="14"/>
      <point x="221" y="112" type="curve"/>
      <point x="188" y="121"/>
      <point x="153" y="118"/>
      <point x="114" y="113" type="curve"/>
      <point x="106" y="24"/>
      <point x="64" y="-51"/>
      <point x="28" y="-117" type="curve"/>
      <point x="62" y="-157" type="line"/>
    </contour>
  </outline>
</glyph>
<glyph name="period" format="1">
  <advance width="168"/>
  <unicode hex="002E"/>
  <outline>
    <contour>
      <point x="23" y="0" type="curve" smooth="yes"/>
      <point x="23" y="33"/>
      <point x="50" y="60"/>
      <point x="84" y="60" type="curve" smooth="yes"/>
      <point x="118" y="60"/>
      <point x="145" y="33"/>
      <point x="145" y="0" type="curve" smooth="yes"/>
      <point x="145" y="-33"/>
      <point x="118" y="-60"/>
      <point x="84" y="-60" type="curve" smooth="yes"/>
      <point x="50" y="-60"/>
      <point x="23" y="-33"/>
    </contour>
  </outline>
</glyph>
<glyph name="slash" format="1">
  <advance width="533"/>
  <unicode hex="002F"/>
  <outline>
    <contour>
      <point x="105" y="-80" type="line"/>
      <point x="393" y="560" type="line" smooth="yes"/>
      <point x="443" y="670"/>
      <point x="499" y="787"/>
      <point x="528" y="846" type="curve"/>
      <point x="426" y="842" type="line"/>
      <point x="4" y="-80" type="line"/>
    </contour>
  </outline>
</glyph>
<glyph name="backslash" format="1">
  <advance width="600"/>
  <unicode hex="005C"/>
  <outline>
    <contour>
      <point x="106" y="842" type="line"/>
      <point x="4" y="846" type="line"/>
      <point x="33" y="787"/>
      <point x="89" y="670"/>
      <point x="139" y="560" type="curve" smooth="yes"/>
      <point x="427" y="-80" type="line"/>
      <point x="528" y="-80" type="line"/>
    </contour>
  </outline>
</glyph>
<glyph name="underscore" format="1">
	<unicode hex="005F"/>
	<advance width="669"/>
	<outline>
		<contour>
			<point x="619" y="1" type="line"/>
			<point x="621" y="35"/>
			<point x="627" y="69"/>
			<point x="629" y="96" type="curve"/>
			<point x="457" y="86"/>
			<point x="246" y="86"/>
			<point x="53" y="96" type="curve"/>
			<point x="39" y="1" type="line"/>
		</contour>
	</outline>
</glyph>
<glyph name="sinAnusvara" format="1">
  <advance width="588"/>
  <unicode hex="0D82"/>
  <outline>
    <contour>
      <point x="136" y="225" type="curve" smooth="yes"/>
      <point x="130" y="135"/>
      <point x="170" y="68"/>
      <point x="288" y="67" type="curve" smooth="yes"/>
      <point x="388" y="66"/>
      <point x="459" y="154"/>
      <point x="465" y="234" type="curve" smooth="yes"/>
      <point x="473" y="334"/>
      <point x="408" y="393"/>
      <point x="301" y="387" type="curve" smooth="yes"/>
      <point x="231" y="383"/>
      <point x="143" y="318"/>
    </contour>
    <contour>
      <point x="69" y="194" type="curve" smooth="yes"/>
      <point x="80" y="345"/>
      <point x="204" y="443"/>
      <point x="325" y="443" type="curve" smooth="yes"/>
      <point x="476" y="443"/>
      <point x="546" y="335"/>
      <point x="538" y="214" type="curve" smooth="yes"/>
      <point x="530" y="93"/>
      <point x="434" y="-25"/>
      <point x="283" y="-25" type="curve" smooth="yes"/>
      <point x="132" y="-25"/>
      <point x="61" y="73"/>
    </contour>
  </outline>
</glyph>
<glyph name="sinVisarga" format="1">
	<unicode hex="0D83"/>
	<advance width="379"/>
	<outline>
		<contour>
			<point x="146" y="206"/>
			<point x="105" y="177"/>
			<point x="101" y="126" type="curve" smooth="yes"/>
			<point x="98" y="85"/>
			<point x="124" y="55"/>
			<point x="173" y="55" type="curve" smooth="yes"/>
			<point x="219" y="55"/>
			<point x="248" y="94"/>
			<point x="251" y="131" type="curve" smooth="yes"/>
			<point x="255" y="175"/>
			<point x="229" y="206"/>
			<point x="182" y="206" type="curve" smooth="yes"/>
		</contour>
		<contour>
			<point x="96" y="3"/>
			<point x="55" y="54"/>
			<point x="60" y="117" type="curve" smooth="yes"/>
			<point x="67" y="196"/>
			<point x="132" y="246"/>
			<point x="195" y="246" type="curve" smooth="yes"/>
			<point x="270" y="246"/>
			<point x="312" y="189"/>
			<point x="307" y="125" type="curve" smooth="yes"/>
			<point x="301" y="63"/>
			<point x="258" y="3"/>
			<point x="174" y="3" type="curve" smooth="yes"/>
		</contour>
		<contour>
			<point x="158" y="645"/>
			<point x="117" y="616"/>
			<point x="112" y="565" type="curve" smooth="yes"/>
			<point x="109" y="524"/>
			<point x="135" y="494"/>
			<point x="184" y="494" type="curve" smooth="yes"/>
			<point x="231" y="494"/>
			<point x="259" y="533"/>
			<point x="262" y="570" type="curve" smooth="yes"/>
			<point x="266" y="614"/>
			<point x="240" y="645"/>
			<point x="193" y="645" type="curve" smooth="yes"/>
		</contour>
		<contour>
			<point x="107" y="442"/>
			<point x="66" y="493"/>
			<point x="72" y="556" type="curve" smooth="yes"/>
			<point x="79" y="635"/>
			<point x="143" y="685"/>
			<point x="207" y="685" type="curve" smooth="yes"/>
			<point x="281" y="685"/>
			<point x="324" y="628"/>
			<point x="318" y="564" type="curve" smooth="yes"/>
			<point x="313" y="502"/>
			<point x="269" y="442"/>
			<point x="185" y="442" type="curve" smooth="yes"/>
		</contour>
	</outline>
</glyph>
<glyph name="sinA" format="1">
  <advance width="728"/>
  <unicode hex="0D86"/>
  <outline>
    <contour>
      <point x="440" y="335" type="line"/>
      <point x="408" y="348"/>
      <point x="345" y="366"/>
      <point x="292" y="366" type="curve" smooth="yes"/>
      <point x="202" y="366"/>
      <point x="137" y="308"/>
      <point x="137" y="218" type="curve" smooth="yes"/>
      <point x="137" y="122"/>
      <point x="226" y="45"/>
      <point x="390" y="45" type="curve" smooth="yes"/>
      <point x="477" y="45"/>
      <point x="570" y="57"/>
      <point x="651" y="122" type="curve"/>
      <point x="661" y="112"/>
      <point x="665" y="88"/>
      <point x="665" y="69" type="curve" smooth="yes"/>
      <point x="665" y="57"/>
      <point x="663" y="46"/>
      <point x="660" y="41" type="curve"/>
      <point x="593" y="7"/>
      <point x="482" y="-16"/>
      <point x="378" y="-16" type="curve" smooth="yes"/>
      <point x="196" y="-16"/>
      <point x="33" y="37"/>
      <point x="33" y="181" type="curve" smooth="yes"/>
      <point x="33" y="329"/>
      <point x="184" y="422"/>
      <point x="350" y="422" type="curve" smooth="yes"/>
      <point x="376" y="422"/>
      <point x="403" y="420"/>
      <point x="430" y="415" type="curve"/>
      <point x="393" y="376" type="line"/>
      <point x="396" y="380"/>
      <point x="407" y="397"/>
      <point x="407" y="427" type="curve" smooth="yes"/>
      <point x="407" y="437"/>
      <point x="406" y="449"/>
      <point x="402" y="463" type="curve" smooth="yes"/>
      <point x="392" y="501"/>
      <point x="363" y="538"/>
      <point x="313" y="538" type="curve" smooth="yes"/>
      <point x="251" y="538"/>
      <point x="201" y="481"/>
      <point x="188" y="435" type="curve"/>
      <point x="166" y="437"/>
      <point x="126" y="459"/>
      <point x="126" y="504" type="curve" smooth="yes"/>
      <point x="126" y="557"/>
      <point x="173" y="602"/>
      <point x="259" y="602" type="curve" smooth="yes"/>
      <point x="401" y="602"/>
      <point x="459" y="510"/>
      <point x="459" y="386" type="curve" smooth="yes"/>
      <point x="459" y="375"/>
      <point x="459" y="364"/>
      <point x="458" y="353" type="curve"/>
    </contour>
    <contour>
      <point x="479" y="-334" type="line"/>
      <point x="502" y="-162"/>
      <point x="499" y="132"/>
      <point x="503" y="391" type="curve"/>
      <point x="503" y="409"/>
      <point x="502" y="427"/>
      <point x="502" y="446" type="curve" smooth="yes"/>
      <point x="502" y="508"/>
      <point x="509" y="572"/>
      <point x="565" y="602" type="curve"/>
      <point x="632" y="546"/>
      <point x="703" y="509"/>
      <point x="703" y="416" type="curve" smooth="yes"/>
      <point x="703" y="340"/>
      <point x="637" y="276"/>
      <point x="533" y="268" type="curve"/>
      <point x="510" y="308" type="line"/>
      <point x="570" y="318"/>
      <point x="639" y="359"/>
      <point x="639" y="428" type="curve" smooth="yes"/>
      <point x="639" y="473"/>
      <point x="604" y="514"/>
      <point x="579" y="542" type="curve"/>
      <point x="565" y="528"/>
      <point x="558" y="474"/>
      <point x="559" y="425" type="curve" smooth="yes"/>
      <point x="569" y="-334" type="line"/>
    </contour>
  </outline>
</glyph>
<glyph name="sinIi" format="1">
  <advance width="695"/>
  <unicode hex="0D8A"/>
  <outline>
    <contour>
      <point x="602" y="651" type="curve" smooth="yes"/>
      <point x="606" y="682"/>
      <point x="634" y="707"/>
      <point x="665" y="707" type="curve" smooth="yes"/>
      <point x="696" y="707"/>
      <point x="718" y="682"/>
      <point x="714" y="651" type="curve" smooth="yes"/>
      <point x="710" y="620"/>
      <point x="682" y="595"/>
      <point x="651" y="595" type="curve" smooth="yes"/>
      <point x="620" y="595"/>
      <point x="598" y="620"/>
    </contour>
    <contour>
      <point x="242" y="761" type="curve" smooth="yes"/>
      <point x="246" y="793"/>
      <point x="275" y="819"/>
      <point x="307" y="819" type="curve" smooth="yes"/>
      <point x="339" y="819"/>
      <point x="362" y="793"/>
      <point x="358" y="761" type="curve" smooth="yes"/>
      <point x="354" y="729"/>
      <point x="325" y="703"/>
      <point x="293" y="703" type="curve" smooth="yes"/>
      <point x="261" y="703"/>
      <point x="238" y="729"/>
    </contour>
    <component base="sinRa" yxScale="0.052"/>
  </outline>
</glyph>
<glyph name="sinvocalicR" format="1">
	<unicode hex="0D8D"/>
	<advance width="1293"/>
	<outline>
		<contour>
			<point x="835" y="413"/>
			<point x="754" y="383"/>
			<point x="722" y="366" type="curve"/>
			<point x="728" y="374"/>
			<point x="753" y="418"/>
			<point x="757" y="452" type="curve" smooth="yes"/>
			<point x="763" y="507"/>
			<point x="714" y="541"/>
			<point x="662" y="541" type="curve" smooth="yes"/>
			<point x="613" y="541"/>
			<point x="565" y="496"/>
			<point x="565" y="450" type="curve" smooth="yes"/>
			<point x="565" y="405"/>
			<point x="569" y="392"/>
			<point x="581" y="376" type="curve"/>
			<point x="520" y="383" type="line"/>
			<point x="562" y="398"/>
			<point x="577" y="411"/>
			<point x="635" y="410" type="curve" smooth="yes"/>
			<point x="765" y="409"/>
			<point x="827" y="317"/>
			<point x="827" y="211" type="curve" smooth="yes"/>
			<point x="827" y="67"/>
			<point x="716" y="-28"/>
			<point x="603" y="-28" type="curve" smooth="yes"/>
			<point x="462" y="-28"/>
			<point x="399" y="61"/>
			<point x="425" y="142" type="curve"/>
			<point x="424" y="140"/>
			<point x="451" y="126"/>
			<point x="450" y="124" type="curve"/>
			<point x="430" y="74"/>
			<point x="370" y="-25"/>
			<point x="245" y="-26" type="curve" smooth="yes"/>
			<point x="106" y="-27"/>
			<point x="64" y="71"/>
			<point x="65" y="157" type="curve" smooth="yes"/>
			<point x="67" y="258"/>
			<point x="136" y="385"/>
			<point x="275" y="388" type="curve" smooth="yes"/>
			<point x="377" y="390" type="line"/>
			<point x="411" y="436"/>
			<point x="371" y="530"/>
			<point x="318" y="531" type="curve" smooth="yes"/>
			<point x="266" y="532"/>
			<point x="233" y="480"/>
			<point x="222" y="431" type="curve"/>
			<point x="189" y="433"/>
			<point x="146" y="457"/>
			<point x="152" y="505" type="curve" smooth="yes"/>
			<point x="158" y="556"/>
			<point x="209" y="601"/>
			<point x="288" y="601" type="curve" smooth="yes"/>
			<point x="428" y="601"/>
			<point x="465" y="433"/>
			<point x="433" y="330" type="curve"/>
			<point x="418" y="316" type="line"/>
			<point x="218" y="350"/>
			<point x="105" y="257"/>
			<point x="107" y="183" type="curve" smooth="yes"/>
			<point x="109" y="114"/>
			<point x="171" y="76"/>
			<point x="268" y="76" type="curve" smooth="yes"/>
			<point x="356" y="76"/>
			<point x="412" y="115"/>
			<point x="441" y="209" type="curve"/>
			<point x="448" y="211"/>
			<point x="456" y="214"/>
			<point x="464" y="215" type="curve"/>
			<point x="446" y="138"/>
			<point x="495" y="76"/>
			<point x="619" y="76" type="curve" smooth="yes"/>
			<point x="712" y="76"/>
			<point x="783" y="148"/>
			<point x="784" y="221" type="curve" smooth="yes"/>
			<point x="785" y="309"/>
			<point x="717" y="339"/>
			<point x="639" y="341" type="curve" smooth="yes"/>
			<point x="598" y="341"/>
			<point x="556" y="331"/>
			<point x="514" y="316" type="curve"/>
			<point x="500" y="327" type="line"/>
			<point x="501" y="486"/>
			<point x="569" y="600"/>
			<point x="700" y="600" type="curve" smooth="yes"/>
			<point x="800" y="600"/>
			<point x="835" y="546"/>
			<point x="835" y="485" type="curve" smooth="yes"/>
		</contour>
		<component base="sinMatraR" xOffset="839"/>
	</outline>
</glyph>
<glyph name="sinvocalicL" format="1">
  <advance width="1147"/>
  <unicode hex="0D8F"/>
  <outline>
    <contour>
      <point x="537" y="332" type="line"/>
      <point x="385" y="354"/>
      <point x="261" y="316"/>
      <point x="261" y="233" type="curve" smooth="yes"/>
      <point x="262" y="152"/>
      <point x="364" y="85"/>
      <point x="562" y="82" type="curve" smooth="yes"/>
      <point x="740" y="79"/>
      <point x="857" y="153"/>
      <point x="868" y="258" type="curve" smooth="yes"/>
      <point x="874" y="327"/>
      <point x="819" y="351"/>
      <point x="751" y="353" type="curve" smooth="yes"/>
      <point x="709" y="353"/>
      <point x="657" y="337"/>
      <point x="615" y="322" type="curve"/>
      <point x="602" y="333" type="line"/>
      <point x="594" y="472"/>
      <point x="666" y="588"/>
      <point x="797" y="588" type="curve" smooth="yes"/>
      <point x="887" y="588"/>
      <point x="923" y="536"/>
      <point x="920" y="503" type="curve" smooth="yes"/>
      <point x="915" y="448"/>
      <point x="868" y="443"/>
      <point x="841" y="444" type="curve"/>
      <point x="840" y="496"/>
      <point x="809" y="531"/>
      <point x="756" y="531" type="curve" smooth="yes"/>
      <point x="708" y="531"/>
      <point x="671" y="499"/>
      <point x="666" y="452" type="curve" smooth="yes"/>
      <point x="661" y="407"/>
      <point x="680" y="395"/>
      <point x="691" y="379" type="curve"/>
      <point x="622" y="395" type="line"/>
      <point x="665" y="410"/>
      <point x="689" y="417"/>
      <point x="747" y="416" type="curve" smooth="yes"/>
      <point x="847" y="415"/>
      <point x="914" y="354"/>
      <point x="914" y="251" type="curve" smooth="yes"/>
      <point x="914" y="91"/>
      <point x="762" y="-26"/>
      <point x="577" y="-26" type="curve" smooth="yes"/>
      <point x="312" y="-26"/>
      <point x="220" y="101"/>
      <point x="220" y="220" type="curve" smooth="yes"/>
      <point x="220" y="353"/>
      <point x="386" y="431"/>
      <point x="522" y="410" type="curve"/>
      <point x="474" y="372" type="line"/>
      <point x="487" y="383"/>
      <point x="509" y="406"/>
      <point x="508" y="451" type="curve" smooth="yes"/>
      <point x="508" y="490"/>
      <point x="493" y="523"/>
      <point x="451" y="524" type="curve" smooth="yes"/>
      <point x="396" y="525"/>
      <point x="356" y="469"/>
      <point x="346" y="429" type="curve"/>
      <point x="313" y="431"/>
      <point x="271" y="450"/>
      <point x="277" y="498" type="curve" smooth="yes"/>
      <point x="283" y="544"/>
      <point x="328" y="589"/>
      <point x="407" y="589" type="curve" smooth="yes"/>
      <point x="567" y="589"/>
      <point x="571" y="437"/>
      <point x="551" y="347" type="curve"/>
    </contour>
    <contour>
      <point x="66" y="242" type="curve" smooth="yes"/>
      <point x="84" y="459"/>
      <point x="233" y="589"/>
      <point x="407" y="589" type="curve" smooth="yes"/>
      <point x="437" y="589"/>
      <point x="486" y="566"/>
      <point x="503" y="556" type="curve"/>
      <point x="507" y="549" type="line"/>
      <point x="393" y="534" type="line"/>
      <point x="389" y="529" type="line"/>
      <point x="267" y="518"/>
      <point x="161" y="409"/>
      <point x="140" y="244" type="curve" smooth="yes"/>
      <point x="129" y="156"/>
      <point x="141" y="47"/>
      <point x="178" y="5" type="curve"/>
      <point x="172" y="1"/>
      <point x="158" y="-4"/>
      <point x="134" y="-4" type="curve"/>
      <point x="91" y="42"/>
      <point x="58" y="144"/>
    </contour>
    <contour>
      <point x="1024" y="46"/>
      <point x="981" y="0" type="curve"/>
      <point x="957" y="0"/>
      <point x="943" y="5"/>
      <point x="937" y="9" type="curve"/>
      <point x="974" y="51"/>
      <point x="1025" y="192"/>
      <point x="1013" y="290" type="curve" smooth="yes"/>
      <point x="988" y="491"/>
      <point x="878" y="522"/>
      <point x="756" y="533" type="curve"/>
      <point x="752" y="538" type="line"/>
      <point x="720" y="559" type="line"/>
      <point x="724" y="566" type="line"/>
      <point x="741" y="576"/>
      <point x="767" y="588"/>
      <point x="797" y="588" type="curve" smooth="yes"/>
      <point x="971" y="588"/>
      <point x="1082" y="469"/>
      <point x="1082" y="265" type="curve" smooth="yes"/>
      <point x="1082" y="157"/>
    </contour>
  </outline>
</glyph>
<glyph name="sinE" format="1">
	<unicode hex="0D91"/>
	<advance width="883"/>
	<outline>
		<contour>
			<point x="133" y="148" type="curve" smooth="yes"/>
			<point x="133" y="299"/>
			<point x="309" y="357"/>
			<point x="418" y="357" type="curve" smooth="yes"/>
			<point x="427" y="357"/>
			<point x="440" y="357"/>
			<point x="448" y="356" type="curve"/>
			<point x="447" y="422"/>
			<point x="401" y="463"/>
			<point x="352" y="463" type="curve" smooth="yes"/>
			<point x="290" y="463"/>
			<point x="268" y="406"/>
			<point x="268" y="395" type="curve"/>
			<point x="217" y="389"/>
			<point x="189" y="414"/>
			<point x="189" y="449" type="curve" smooth="yes"/>
			<point x="189" y="505"/>
			<point x="243" y="538"/>
			<point x="301" y="538" type="curve" smooth="yes"/>
			<point x="437" y="538"/>
			<point x="499" y="425"/>
			<point x="499" y="333" type="curve" smooth="yes"/>
			<point x="499" y="320"/>
			<point x="498" y="308"/>
			<point x="496" y="296" type="curve"/>
			<point x="476" y="280" type="line"/>
			<point x="451" y="284"/>
			<point x="424" y="286"/>
			<point x="398" y="286" type="curve" smooth="yes"/>
			<point x="290" y="286"/>
			<point x="181" y="242"/>
			<point x="181" y="168" type="curve" smooth="yes"/>
			<point x="181" y="106"/>
			<point x="279" y="59"/>
			<point x="441" y="59" type="curve" smooth="yes"/>
			<point x="648" y="59"/>
			<point x="753" y="227"/>
			<point x="753" y="438" type="curve" smooth="yes"/>
			<point x="753" y="622"/>
			<point x="566" y="735"/>
			<point x="379" y="735" type="curve" smooth="yes"/>
			<point x="413" y="818" type="line" smooth="yes"/>
			<point x="622" y="818"/>
			<point x="822" y="639"/>
			<point x="822" y="380" type="curve" smooth="yes"/>
			<point x="822" y="146"/>
			<point x="678" y="-41"/>
			<point x="443" y="-41" type="curve" smooth="yes"/>
			<point x="250" y="-41"/>
			<point x="133" y="34"/>
		</contour>
		<contour>
			<point x="373" y="797" type="curve"/>
			<point x="413" y="818" type="line"/>
			<point x="418" y="783"/>
			<point x="413" y="711"/>
			<point x="447" y="666" type="curve" smooth="yes"/>
			<point x="513" y="581"/>
			<point x="676" y="591"/>
			<point x="741" y="618" type="curve"/>
			<point x="752" y="591" type="line"/>
			<point x="688" y="536"/>
			<point x="452" y="503"/>
			<point x="391" y="626" type="curve" smooth="yes"/>
			<point x="364" y="681"/>
			<point x="371" y="766"/>
		</contour>
		<contour>
			<point x="43" y="247" type="line"/>
			<point x="59" y="332" type="line"/>
			<point x="141" y="348"/>
			<point x="341" y="359"/>
			<point x="456" y="358" type="curve"/>
			<point x="399" y="343" type="line"/>
			<point x="239" y="334"/>
			<point x="104" y="271"/>
			<point x="56" y="237" type="curve"/>
		</contour>
	</outline>
</glyph>
<glyph name="sinOo" format="1">
	<unicode hex="0D95"/>
	<advance width="818"/>
	<outline>
		<contour>
			<point x="225" y="781"/>
			<point x="212" y="775"/>
			<point x="183" y="756" type="curve"/>
			<point x="185" y="769"/>
			<point x="189" y="802"/>
			<point x="206" y="834" type="curve" smooth="yes"/>
			<point x="206" y="834"/>
			<point x="276" y="883"/>
			<point x="398" y="882" type="curve" smooth="yes"/>
			<point x="707" y="879"/>
			<point x="777" y="587"/>
			<point x="777" y="403" type="curve"/>
			<point x="728" y="483" type="line"/>
			<point x="730" y="545"/>
			<point x="705" y="802"/>
			<point x="365" y="806" type="curve" smooth="yes"/>
			<point x="284" y="807"/>
			<point x="266" y="793"/>
			<point x="266" y="793" type="curve"/>
			<point x="300" y="820"/>
			<point x="329" y="818"/>
			<point x="358" y="817" type="curve"/>
			<point x="314" y="810"/>
			<point x="259" y="741"/>
			<point x="235" y="678" type="curve"/>
			<point x="183" y="684" type="line"/>
			<point x="224" y="774"/>
			<point x="270" y="819"/>
			<point x="288" y="832" type="curve"/>
			<point x="260" y="793" type="line"/>
		</contour>
		<contour>
			<point x="739" y="614"/>
			<point x="554" y="666"/>
			<point x="393" y="666" type="curve" smooth="yes"/>
			<point x="238" y="666"/>
			<point x="157" y="596"/>
			<point x="155" y="596" type="curve"/>
			<point x="153" y="599"/>
			<point x="156" y="606"/>
			<point x="156" y="616" type="curve" smooth="yes"/>
			<point x="156" y="637"/>
			<point x="180" y="675"/>
			<point x="191" y="698" type="curve"/>
			<point x="236" y="729"/>
			<point x="300" y="750"/>
			<point x="393" y="750" type="curve" smooth="yes"/>
			<point x="624" y="750"/>
			<point x="800" y="608"/>
			<point x="800" y="353" type="curve" smooth="yes"/>
			<point x="794" y="164"/>
			<point x="710" y="-20"/>
			<point x="560" y="-20" type="curve" smooth="yes"/>
			<point x="454" y="-20"/>
			<point x="403" y="45"/>
			<point x="404" y="99" type="curve"/>
			<point x="403" y="97"/>
			<point x="416" y="103"/>
			<point x="415" y="101" type="curve"/>
			<point x="391" y="51"/>
			<point x="361" y="-18"/>
			<point x="236" y="-18" type="curve" smooth="yes"/>
			<point x="78" y="-18"/>
			<point x="23" y="136"/>
			<point x="31" y="266" type="curve" smooth="yes"/>
			<point x="40" y="405"/>
			<point x="135" y="508"/>
			<point x="213" y="520" type="curve"/>
			<point x="227" y="500" type="line"/>
			<point x="218" y="375"/>
			<point x="265" y="307"/>
			<point x="369" y="308" type="curve" smooth="yes"/>
			<point x="481" y="309"/>
			<point x="520" y="397"/>
			<point x="521" y="443" type="curve" smooth="yes"/>
			<point x="522" y="486"/>
			<point x="480" y="528"/>
			<point x="413" y="527" type="curve" smooth="yes"/>
			<point x="360" y="526"/>
			<point x="328" y="503"/>
			<point x="327" y="475" type="curve" smooth="yes"/>
			<point x="326" y="454"/>
			<point x="340" y="441"/>
			<point x="367" y="432" type="curve" smooth="yes"/>
			<point x="402" y="420"/>
			<point x="471" y="433"/>
			<point x="517" y="495" type="curve"/>
			<point x="535" y="491" type="line"/>
			<point x="512" y="395"/>
			<point x="436" y="369"/>
			<point x="398" y="369" type="curve" smooth="yes"/>
			<point x="321" y="369"/>
			<point x="291" y="420"/>
			<point x="294" y="476" type="curve" smooth="yes"/>
			<point x="297" y="529"/>
			<point x="346" y="593"/>
			<point x="422" y="593" type="curve" smooth="yes"/>
			<point x="490" y="593"/>
			<point x="565" y="539"/>
			<point x="571" y="446" type="curve" smooth="yes"/>
			<point x="579" y="342"/>
			<point x="515" y="236"/>
			<point x="374" y="237" type="curve" smooth="yes"/>
			<point x="244" y="238"/>
			<point x="186" y="363"/>
			<point x="192" y="442" type="curve"/>
			<point x="158" y="438"/>
			<point x="88" y="393"/>
			<point x="82" y="280" type="curve" smooth="yes"/>
			<point x="76" y="170"/>
			<point x="138" y="89"/>
			<point x="244" y="88" type="curve" smooth="yes"/>
			<point x="339" y="87"/>
			<point x="385" y="134"/>
			<point x="403" y="207" type="curve"/>
			<point x="428" y="213" type="line"/>
			<point x="416" y="142"/>
			<point x="473" y="94"/>
			<point x="556" y="94" type="curve" smooth="yes"/>
			<point x="668" y="94"/>
			<point x="737" y="239"/>
			<point x="739" y="373" type="curve" smooth="yes"/>
		</contour>
	</outline>
</glyph>
<glyph name="sinGha" format="1">
  <advance width="905"/>
  <unicode hex="0D9D"/>
  <outline>
    <contour>
      <point x="21" y="294" type="line"/>
      <point x="41" y="379" type="line"/>
      <point x="120" y="393"/>
      <point x="312" y="397"/>
      <point x="422" y="396" type="curve"/>
      <point x="404" y="377" type="line"/>
      <point x="229" y="388"/>
      <point x="87" y="317"/>
      <point x="33" y="284" type="curve"/>
    </contour>
    <contour>
      <point x="735" y="366" type="curve"/>
      <point x="740" y="374"/>
      <point x="766" y="418"/>
      <point x="770" y="452" type="curve" smooth="yes"/>
      <point x="776" y="507"/>
      <point x="726" y="541"/>
      <point x="674" y="541" type="curve" smooth="yes"/>
      <point x="625" y="541"/>
      <point x="577" y="505"/>
      <point x="577" y="440" type="curve" smooth="yes"/>
      <point x="577" y="405"/>
      <point x="582" y="392"/>
      <point x="593" y="376" type="curve"/>
      <point x="532" y="383" type="line"/>
      <point x="574" y="398"/>
      <point x="589" y="411"/>
      <point x="647" y="410" type="curve" smooth="yes"/>
      <point x="777" y="408"/>
      <point x="839" y="317"/>
      <point x="839" y="211" type="curve" smooth="yes"/>
      <point x="839" y="67"/>
      <point x="728" y="-28"/>
      <point x="615" y="-28" type="curve" smooth="yes"/>
      <point x="474" y="-28"/>
      <point x="477" y="55"/>
      <point x="486" y="104" type="curve" smooth="yes"/>
      <point x="492" y="136"/>
      <point x="477" y="147"/>
      <point x="457" y="146" type="curve" smooth="yes"/>
      <point x="440" y="145"/>
      <point x="422" y="147"/>
      <point x="422" y="104" type="curve" smooth="yes"/>
      <point x="422" y="56"/>
      <point x="382" y="-25"/>
      <point x="257" y="-26" type="curve" smooth="yes"/>
      <point x="118" y="-27"/>
      <point x="86" y="71"/>
      <point x="88" y="157" type="curve" smooth="yes"/>
      <point x="91" y="274"/>
      <point x="193" y="356"/>
      <point x="284" y="391" type="curve"/>
      <point x="287" y="392"/>
      <point x="284" y="387"/>
      <point x="287" y="388" type="curve"/>
      <point x="390" y="390" type="line"/>
      <point x="424" y="436"/>
      <point x="383" y="530"/>
      <point x="330" y="531" type="curve" smooth="yes"/>
      <point x="278" y="532"/>
      <point x="246" y="480"/>
      <point x="234" y="431" type="curve"/>
      <point x="202" y="433"/>
      <point x="158" y="457"/>
      <point x="164" y="505" type="curve" smooth="yes"/>
      <point x="170" y="556"/>
      <point x="221" y="601"/>
      <point x="300" y="601" type="curve" smooth="yes"/>
      <point x="440" y="601"/>
      <point x="477" y="433"/>
      <point x="445" y="330" type="curve"/>
      <point x="430" y="316" type="line"/>
      <point x="230" y="350"/>
      <point x="127" y="257"/>
      <point x="129" y="183" type="curve" smooth="yes"/>
      <point x="131" y="114"/>
      <point x="183" y="76"/>
      <point x="280" y="76" type="curve" smooth="yes"/>
      <point x="368" y="76"/>
      <point x="390" y="152"/>
      <point x="382" y="195" type="curve"/>
      <point x="420" y="219"/>
      <point x="519" y="233"/>
      <point x="542" y="201" type="curve"/>
      <point x="535" y="151"/>
      <point x="507" y="76"/>
      <point x="631" y="76" type="curve" smooth="yes"/>
      <point x="724" y="76"/>
      <point x="795" y="148"/>
      <point x="796" y="221" type="curve" smooth="yes"/>
      <point x="797" y="309"/>
      <point x="730" y="339"/>
      <point x="652" y="341" type="curve" smooth="yes"/>
      <point x="610" y="342"/>
      <point x="568" y="331"/>
      <point x="526" y="316" type="curve"/>
      <point x="512" y="327" type="line"/>
      <point x="513" y="486"/>
      <point x="581" y="600"/>
      <point x="712" y="600" type="curve" smooth="yes"/>
      <point x="812" y="600"/>
      <point x="847" y="546"/>
      <point x="847" y="485" type="curve" smooth="yes"/>
      <point x="847" y="413"/>
      <point x="775" y="350"/>
    </contour>
  </outline>
</glyph>
<glyph name="sinNga" format="1">
  <advance width="902"/>
  <unicode hex="0D9E"/>
  <outline>
    <contour>
      <point x="851" y="160"/>
      <point x="771" y="-25"/>
      <point x="599" y="-25" type="curve" smooth="yes"/>
      <point x="474" y="-25"/>
      <point x="439" y="56"/>
      <point x="450" y="119" type="curve"/>
      <point x="448" y="117"/>
      <point x="473" y="123"/>
      <point x="471" y="121" type="curve"/>
      <point x="466" y="63"/>
      <point x="400" y="-20"/>
      <point x="285" y="-20" type="curve" smooth="yes"/>
      <point x="163" y="-20"/>
      <point x="113" y="56"/>
      <point x="118" y="149" type="curve" smooth="yes"/>
      <point x="126" y="300"/>
      <point x="287" y="370"/>
      <point x="383" y="379" type="curve" smooth="yes"/>
      <point x="392" y="380"/>
      <point x="406" y="389"/>
      <point x="413" y="388" type="curve"/>
      <point x="416" y="474"/>
      <point x="338" y="514"/>
      <point x="289" y="512" type="curve" smooth="yes"/>
      <point x="259" y="511"/>
      <point x="213" y="501"/>
      <point x="203" y="470" type="curve" smooth="yes"/>
      <point x="198" y="454"/>
      <point x="207" y="439"/>
      <point x="228" y="435" type="curve" smooth="yes"/>
      <point x="265" y="428"/>
      <point x="307" y="438"/>
      <point x="353" y="500" type="curve"/>
      <point x="371" y="496" type="line"/>
      <point x="348" y="400"/>
      <point x="278" y="385"/>
      <point x="240" y="385" type="curve" smooth="yes"/>
      <point x="213" y="385"/>
      <point x="163" y="407"/>
      <point x="166" y="463" type="curve" smooth="yes"/>
      <point x="169" y="516"/>
      <point x="222" y="568"/>
      <point x="298" y="568" type="curve" smooth="yes"/>
      <point x="434" y="568"/>
      <point x="481" y="453"/>
      <point x="476" y="361" type="curve" smooth="yes"/>
      <point x="475" y="348"/>
      <point x="474" y="336"/>
      <point x="471" y="324" type="curve"/>
      <point x="450" y="308" type="line"/>
      <point x="417" y="323"/>
      <point x="380" y="328"/>
      <point x="340" y="324" type="curve" smooth="yes"/>
      <point x="269" y="317"/>
      <point x="184" y="261"/>
      <point x="179" y="176" type="curve" smooth="yes"/>
      <point x="175" y="119"/>
      <point x="220" y="84"/>
      <point x="303" y="83" type="curve" smooth="yes"/>
      <point x="394" y="82"/>
      <point x="438" y="133"/>
      <point x="461" y="211" type="curve"/>
      <point x="487" y="217" type="line"/>
      <point x="476" y="135"/>
      <point x="516" y="81"/>
      <point x="592" y="82" type="curve" smooth="yes"/>
      <point x="727" y="84"/>
      <point x="788" y="252"/>
      <point x="788" y="373" type="curve" smooth="yes"/>
      <point x="787" y="588"/>
      <point x="636" y="696"/>
      <point x="475" y="696" type="curve" smooth="yes"/>
      <point x="320" y="696"/>
      <point x="229" y="626"/>
      <point x="227" y="626" type="curve"/>
      <point x="225" y="629"/>
      <point x="224" y="636"/>
      <point x="224" y="646" type="curve" smooth="yes"/>
      <point x="226" y="667"/>
      <point x="242" y="705"/>
      <point x="263" y="728" type="curve"/>
      <point x="308" y="759"/>
      <point x="392" y="780"/>
      <point x="485" y="780" type="curve" smooth="yes"/>
      <point x="716" y="780"/>
      <point x="848" y="586"/>
      <point x="850" y="358" type="curve" smooth="yes"/>
    </contour>
  </outline>
</glyph>
<glyph name="sinCa" format="1">
	<unicode hex="0DA0"/>
	<advance width="877"/>
	<outline>
		<contour>
			<point x="123" y="178" type="curve" smooth="yes"/>
			<point x="131" y="327"/>
			<point x="300" y="351"/>
			<point x="409" y="381" type="curve" smooth="yes"/>
			<point x="417" y="381"/>
			<point x="431" y="381"/>
			<point x="439" y="383" type="curve"/>
			<point x="441" y="449"/>
			<point x="397" y="483"/>
			<point x="348" y="483" type="curve" smooth="yes"/>
			<point x="286" y="483"/>
			<point x="261" y="426"/>
			<point x="260" y="415" type="curve"/>
			<point x="209" y="409"/>
			<point x="182" y="434"/>
			<point x="184" y="469" type="curve" smooth="yes"/>
			<point x="187" y="525"/>
			<point x="243" y="558"/>
			<point x="301" y="558" type="curve" smooth="yes"/>
			<point x="437" y="558"/>
			<point x="493" y="445"/>
			<point x="488" y="353" type="curve" smooth="yes"/>
			<point x="487" y="340"/>
			<point x="486" y="328"/>
			<point x="483" y="316" type="curve"/>
			<point x="462" y="300" type="line"/>
			<point x="437" y="304"/>
			<point x="410" y="306"/>
			<point x="384" y="306" type="curve" smooth="yes"/>
			<point x="276" y="306"/>
			<point x="176" y="275"/>
			<point x="172" y="201" type="curve" smooth="yes"/>
			<point x="169" y="139"/>
			<point x="256" y="96"/>
			<point x="393" y="96" type="curve" smooth="yes"/>
			<point x="626" y="96"/>
			<point x="759" y="206"/>
			<point x="771" y="423" type="curve" smooth="yes"/>
			<point x="780" y="605"/>
			<point x="647" y="715"/>
			<point x="465" y="715" type="curve" smooth="yes"/>
			<point x="328" y="715"/>
			<point x="234" y="655"/>
			<point x="232" y="655" type="curve"/>
			<point x="225" y="673"/>
			<point x="241" y="734"/>
			<point x="252" y="756" type="curve"/>
			<point x="298" y="778"/>
			<point x="371" y="798"/>
			<point x="467" y="798" type="curve" smooth="yes"/>
			<point x="695" y="798"/>
			<point x="839" y="638"/>
			<point x="826" y="394" type="curve" smooth="yes"/>
			<point x="813" y="154"/>
			<point x="650" y="-17"/>
			<point x="408" y="-17" type="curve" smooth="yes"/>
			<point x="232" y="-17"/>
			<point x="116" y="54"/>
		</contour>
		<contour>
			<point x="34" y="275" type="line"/>
			<point x="50" y="360" type="line"/>
			<point x="130" y="375"/>
			<point x="327" y="385"/>
			<point x="440" y="384" type="curve"/>
			<point x="433" y="369" type="line"/>
			<point x="253" y="360"/>
			<point x="101" y="298"/>
			<point x="47" y="265" type="curve"/>
		</contour>
		<contour>
			<point name="rakaransaya" x="827" y="393" type="move"/>
		</contour>
	</outline>
</glyph>
<glyph name="sinCha" format="1">
	<unicode hex="0DA1"/>
	<advance width="785"/>
	<outline>
		<contour>
			<point x="547" y="393" type="line"/>
			<point x="547" y="393"/>
			<point x="546" y="530"/>
			<point x="595" y="631" type="curve" smooth="yes"/>
			<point x="675" y="794"/>
			<point x="871" y="859"/>
			<point x="871" y="859" type="curve"/>
			<point x="883" y="844"/>
			<point x="867" y="783"/>
			<point x="854" y="761" type="curve"/>
			<point x="854" y="761"/>
			<point x="711" y="723"/>
			<point x="641" y="602" type="curve" smooth="yes"/>
			<point x="584" y="505"/>
			<point x="593" y="390"/>
			<point x="593" y="390" type="curve"/>
		</contour>
		<component base="sinPa" yxScale="0.052" xOffset="-10"/>
	</outline>
</glyph>
<glyph name="sinJa" format="1">
	<unicode hex="0DA2"/>
	<advance width="787"/>
	<outline>
		<contour>
			<point x="581" y="393" type="line"/>
			<point x="581" y="393"/>
			<point x="591" y="511"/>
			<point x="636" y="614" type="curve" smooth="yes"/>
			<point x="717" y="797"/>
			<point x="818" y="917"/>
			<point x="818" y="917" type="curve"/>
			<point x="837" y="912"/>
			<point x="887" y="878"/>
			<point x="873" y="851" type="curve"/>
			<point x="873" y="851"/>
			<point x="746" y="729"/>
			<point x="668" y="568" type="curve" smooth="yes"/>
			<point x="617" y="468"/>
			<point x="613" y="369"/>
			<point x="613" y="369" type="curve"/>
		</contour>
		<contour>
			<point x="389" y="332" type="line"/>
			<point x="238" y="354"/>
			<point x="111" y="316"/>
			<point x="107" y="233" type="curve" smooth="yes"/>
			<point x="104" y="152"/>
			<point x="202" y="85"/>
			<point x="400" y="82" type="curve" smooth="yes"/>
			<point x="578" y="79"/>
			<point x="699" y="153"/>
			<point x="715" y="258" type="curve" smooth="yes"/>
			<point x="725" y="327"/>
			<point x="671" y="351"/>
			<point x="603" y="353" type="curve" smooth="yes"/>
			<point x="562" y="353"/>
			<point x="509" y="337"/>
			<point x="466" y="322" type="curve"/>
			<point x="453" y="333" type="line"/>
			<point x="453" y="472"/>
			<point x="531" y="588"/>
			<point x="662" y="588" type="curve" smooth="yes"/>
			<point x="752" y="588"/>
			<point x="782" y="530"/>
			<point x="774" y="477" type="curve" smooth="yes"/>
			<point x="764" y="404"/>
			<point x="699" y="385"/>
			<point x="667" y="368" type="curve"/>
			<point x="673" y="376"/>
			<point x="693" y="410"/>
			<point x="698" y="444" type="curve" smooth="yes"/>
			<point x="707" y="499"/>
			<point x="671" y="531"/>
			<point x="618" y="531" type="curve" smooth="yes"/>
			<point x="569" y="531"/>
			<point x="531" y="499"/>
			<point x="523" y="452" type="curve" smooth="yes"/>
			<point x="516" y="407"/>
			<point x="534" y="395"/>
			<point x="545" y="379" type="curve"/>
			<point x="477" y="395" type="line"/>
			<point x="520" y="410"/>
			<point x="545" y="417"/>
			<point x="603" y="416" type="curve" smooth="yes"/>
			<point x="703" y="415"/>
			<point x="766" y="354"/>
			<point x="761" y="251" type="curve" smooth="yes"/>
			<point x="753" y="91"/>
			<point x="595" y="-26"/>
			<point x="410" y="-26" type="curve" smooth="yes"/>
			<point x="145" y="-26"/>
			<point x="59" y="101"/>
			<point x="65" y="220" type="curve" smooth="yes"/>
			<point x="72" y="353"/>
			<point x="242" y="431"/>
			<point x="377" y="410" type="curve"/>
			<point x="327" y="372" type="line"/>
			<point x="341" y="383"/>
			<point x="364" y="406"/>
			<point x="366" y="451" type="curve" smooth="yes"/>
			<point x="367" y="490"/>
			<point x="354" y="523"/>
			<point x="312" y="524" type="curve" smooth="yes"/>
			<point x="258" y="525"/>
			<point x="214" y="469"/>
			<point x="202" y="429" type="curve"/>
			<point x="169" y="431"/>
			<point x="128" y="450"/>
			<point x="137" y="498" type="curve" smooth="yes"/>
			<point x="145" y="544"/>
			<point x="193" y="589"/>
			<point x="272" y="589" type="curve" smooth="yes"/>
			<point x="432" y="589"/>
			<point x="428" y="437"/>
			<point x="403" y="347" type="curve"/>
		</contour>
		<contour>
			<point name="rakaransaya" x="761" y="249" type="move"/>
		</contour>
		<contour>
			<point name="Virama" x="548" y="502" type="move"/>
		</contour>
	</outline>
</glyph>
<glyph name="sinNya" format="1">
  <advance width="1073"/>
  <unicode hex="0DA4"/>
  <outline>
    <contour>
      <point x="816" y="524"/>
      <point x="792" y="501" type="curve"/>
      <point x="709" y="588"/>
      <point x="429" y="441"/>
      <point x="354" y="380" type="curve" smooth="yes"/>
      <point x="337" y="366"/>
      <point x="276" y="322"/>
      <point x="273" y="310" type="curve"/>
      <point x="232" y="279" type="line"/>
      <point x="278" y="329"/>
      <point x="407" y="414"/>
      <point x="519" y="414" type="curve" smooth="yes"/>
      <point x="623" y="414"/>
      <point x="683" y="325"/>
      <point x="678" y="204" type="curve" smooth="yes"/>
      <point x="674" y="110"/>
      <point x="621" y="-8"/>
      <point x="509" y="-8" type="curve" smooth="yes"/>
      <point x="451" y="-8"/>
      <point x="405" y="23"/>
      <point x="389" y="80" type="curve"/>
      <point x="369" y="26"/>
      <point x="322" y="-10"/>
      <point x="262" y="-8" type="curve" smooth="yes"/>
      <point x="192" y="-6"/>
      <point x="158" y="49"/>
      <point x="123" y="102" type="curve" smooth="yes"/>
      <point x="110" y="122"/>
      <point x="77" y="134"/>
      <point x="59" y="115" type="curve"/>
      <point x="84" y="152" type="line"/>
      <point x="166" y="176"/>
      <point x="174" y="100"/>
      <point x="252" y="100" type="curve" smooth="yes"/>
      <point x="315" y="100"/>
      <point x="375" y="150"/>
      <point x="393" y="232" type="curve"/>
      <point x="418" y="238" type="line"/>
      <point x="410" y="162"/>
      <point x="447" y="103"/>
      <point x="509" y="103" type="curve" smooth="yes"/>
      <point x="572" y="103"/>
      <point x="635" y="137"/>
      <point x="636" y="205" type="curve" smooth="yes"/>
      <point x="637" y="288"/>
      <point x="563" y="327"/>
      <point x="469" y="327" type="curve" smooth="yes"/>
      <point x="389" y="327"/>
      <point x="296" y="299"/>
      <point x="228" y="256" type="curve" smooth="yes"/>
      <point x="178" y="225"/>
      <point x="52" y="125"/>
      <point x="44" y="79" type="curve"/>
      <point x="38" y="81"/>
      <point x="11" y="98"/>
      <point x="15" y="125" type="curve"/>
      <point x="39" y="149"/>
      <point x="135" y="250"/>
      <point x="322" y="408" type="curve" smooth="yes"/>
      <point x="455" y="521"/>
      <point x="669" y="674"/>
      <point x="966" y="623" type="curve"/>
      <point x="931" y="595"/>
    </contour>
    <contour>
      <point x="80" y="428" type="curve" smooth="yes"/>
      <point x="84" y="517"/>
      <point x="178" y="584"/>
      <point x="280" y="584" type="curve" smooth="yes"/>
      <point x="325" y="584"/>
      <point x="384" y="564"/>
      <point x="382" y="511" type="curve" smooth="yes"/>
      <point x="380" y="460"/>
      <point x="335" y="408"/>
      <point x="314" y="387" type="curve"/>
      <point x="285" y="376" type="line"/>
      <point x="304" y="397"/>
      <point x="319" y="427"/>
      <point x="320" y="467" type="curve" smooth="yes"/>
      <point x="322" y="511"/>
      <point x="302" y="548"/>
      <point x="256" y="548" type="curve" smooth="yes"/>
      <point x="212" y="548"/>
      <point x="174" y="505"/>
      <point x="171" y="442" type="curve" smooth="yes"/>
      <point x="169" y="407"/>
      <point x="181" y="389"/>
      <point x="195" y="372" type="curve"/>
      <point x="179" y="364"/>
      <point x="158" y="361"/>
      <point x="142" y="361" type="curve" smooth="yes"/>
      <point x="98" y="361"/>
      <point x="78" y="385"/>
    </contour>
    <contour>
      <point x="814" y="-158" type="curve" smooth="yes"/>
      <point x="822" y="-48"/>
      <point x="949" y="10"/>
      <point x="1016" y="39" type="curve"/>
      <point x="1026" y="38"/>
      <point x="1035" y="47"/>
      <point x="1045" y="45" type="curve"/>
      <point x="1050" y="43"/>
      <point x="1054" y="28"/>
      <point x="1059" y="26" type="curve"/>
      <point x="1013" y="9"/>
      <point x="899" y="-37"/>
      <point x="894" y="-121" type="curve" smooth="yes"/>
      <point x="891" y="-170"/>
      <point x="932" y="-229"/>
      <point x="1103" y="-179" type="curve"/>
      <point x="1100" y="-233"/>
      <point x="1055" y="-284"/>
      <point x="1025" y="-300" type="curve"/>
      <point x="850" y="-318"/>
      <point x="809" y="-230"/>
    </contour>
    <contour>
      <point x="669" y="196" type="curve" smooth="yes"/>
      <point x="673" y="334"/>
      <point x="791" y="440"/>
      <point x="973" y="444" type="curve" smooth="yes"/>
      <point x="1016" y="445"/>
      <point x="1034" y="442"/>
      <point x="1052" y="439" type="curve"/>
      <point x="1047" y="504"/>
      <point x="1022" y="564"/>
      <point x="957" y="564" type="curve" smooth="yes"/>
      <point x="905" y="564"/>
      <point x="853" y="528"/>
      <point x="869" y="457" type="curve"/>
      <point x="805" y="443"/>
      <point x="759" y="460"/>
      <point x="757" y="507" type="curve" smooth="yes"/>
      <point x="754" y="573"/>
      <point x="815" y="620"/>
      <point x="902" y="627" type="curve" smooth="yes"/>
      <point x="1061" y="640"/>
      <point x="1135" y="491"/>
      <point x="1129" y="376" type="curve"/>
      <point x="1110" y="358" type="line"/>
      <point x="1110" y="358" type="line" smooth="yes"/>
      <point x="1110" y="358" type="line"/>
      <point x="1077" y="363"/>
      <point x="1013" y="367"/>
      <point x="985" y="367" type="curve" smooth="yes"/>
      <point x="807" y="367"/>
      <point x="718" y="280"/>
      <point x="719" y="196" type="curve" smooth="yes"/>
      <point x="720" y="132"/>
      <point x="781" y="90"/>
      <point x="904" y="88" type="curve" smooth="yes"/>
      <point x="986" y="87"/>
      <point x="1059" y="114"/>
      <point x="1120" y="159" type="curve"/>
      <point x="1130" y="146" type="line"/>
      <point x="1130" y="108"/>
      <point x="1123" y="71"/>
      <point x="1113" y="49" type="curve"/>
      <point x="1071" y="30"/>
      <point x="1007" y="-6"/>
      <point x="912" y="-6" type="curve" smooth="yes"/>
      <point x="761" y="-6"/>
      <point x="666" y="81"/>
    </contour>
    <contour>
      <point x="-114" y="242" type="curve" smooth="yes"/>
      <point x="-96" y="459"/>
      <point x="87" y="594"/>
      <point x="261" y="594" type="curve" smooth="yes"/>
      <point x="291" y="594"/>
      <point x="315" y="592"/>
      <point x="332" y="588" type="curve"/>
      <point x="336" y="581" type="line"/>
      <point x="213" y="534" type="line"/>
      <point x="209" y="529" type="line"/>
      <point x="87" y="518"/>
      <point x="-19" y="409"/>
      <point x="-40" y="244" type="curve" smooth="yes"/>
      <point x="-51" y="156"/>
      <point x="-39" y="47"/>
      <point x="-2" y="5" type="curve"/>
      <point x="-8" y="1"/>
      <point x="-22" y="-4"/>
      <point x="-46" y="-4" type="curve"/>
      <point x="-89" y="42"/>
      <point x="-122" y="144"/>
    </contour>
  </outline>
</glyph>
<glyph name="sinTta" format="1">
	<unicode hex="0DA7"/>
	<advance width="760"/>
	<outline>
		<contour>
			<point x="51" y="181" type="curve" smooth="yes"/>
			<point x="56" y="358"/>
			<point x="236" y="437"/>
			<point x="340" y="437" type="curve" smooth="yes"/>
			<point x="349" y="437"/>
			<point x="359" y="437"/>
			<point x="367" y="436" type="curve"/>
			<point x="400" y="353" type="line"/>
			<point x="388" y="335" type="line"/>
			<point x="267" y="356"/>
			<point x="112" y="332"/>
			<point x="109" y="204" type="curve" smooth="yes"/>
			<point x="107" y="127"/>
			<point x="212" y="68"/>
			<point x="343" y="71" type="curve" smooth="yes"/>
			<point x="536" y="75"/>
			<point x="635" y="190"/>
			<point x="651" y="358" type="curve" smooth="yes"/>
			<point x="671" y="566"/>
			<point x="547" y="659"/>
			<point x="359" y="659" type="curve" smooth="yes"/>
			<point x="234" y="659"/>
			<point x="151" y="600"/>
			<point x="149" y="600" type="curve" smooth="yes"/>
			<point x="138" y="608"/>
			<point x="159" y="667"/>
			<point x="174" y="696" type="curve"/>
			<point x="217" y="724"/>
			<point x="276" y="746"/>
			<point x="368" y="746" type="curve" smooth="yes"/>
			<point x="570" y="746"/>
			<point x="725" y="599"/>
			<point x="716" y="344" type="curve" smooth="yes"/>
			<point x="708" y="116"/>
			<point x="570" y="-48"/>
			<point x="337" y="-49" type="curve" smooth="yes"/>
			<point x="156" y="-50"/>
			<point x="47" y="54"/>
		</contour>
		<contour>
			<point name="rakaransaya" x="719" y="343" type="move"/>
		</contour>
	</outline>
</glyph>
<glyph name="sinDda" format="1">
	<unicode hex="0DA9"/>
	<advance width="904"/>
	<outline>
		<contour>
			<point x="52" y="277" type="line"/>
			<point x="68" y="362" type="line"/>
			<point x="150" y="378"/>
			<point x="350" y="389"/>
			<point x="465" y="388" type="curve"/>
			<point x="408" y="373" type="line"/>
			<point x="248" y="364"/>
			<point x="113" y="301"/>
			<point x="65" y="267" type="curve"/>
		</contour>
		<contour>
			<point x="118" y="149" type="curve" smooth="yes"/>
			<point x="126" y="300"/>
			<point x="287" y="370"/>
			<point x="383" y="379" type="curve" smooth="yes"/>
			<point x="392" y="380"/>
			<point x="406" y="389"/>
			<point x="413" y="388" type="curve"/>
			<point x="416" y="474"/>
			<point x="359" y="498"/>
			<point x="310" y="498" type="curve" smooth="yes"/>
			<point x="254" y="498"/>
			<point x="225" y="431"/>
			<point x="225" y="420" type="curve"/>
			<point x="183" y="424"/>
			<point x="165" y="445"/>
			<point x="168" y="480" type="curve" smooth="yes"/>
			<point x="170" y="526"/>
			<point x="226" y="563"/>
			<point x="284" y="563" type="curve" smooth="yes"/>
			<point x="420" y="563"/>
			<point x="481" y="453"/>
			<point x="476" y="361" type="curve" smooth="yes"/>
			<point x="475" y="348"/>
			<point x="474" y="336"/>
			<point x="471" y="324" type="curve"/>
			<point x="450" y="308" type="line"/>
			<point x="417" y="323"/>
			<point x="380" y="328"/>
			<point x="340" y="324" type="curve" smooth="yes"/>
			<point x="269" y="317"/>
			<point x="184" y="261"/>
			<point x="179" y="176" type="curve" smooth="yes"/>
			<point x="175" y="119"/>
			<point x="220" y="84"/>
			<point x="303" y="83" type="curve" smooth="yes"/>
			<point x="394" y="82"/>
			<point x="438" y="133"/>
			<point x="461" y="211" type="curve"/>
			<point x="487" y="217" type="line"/>
			<point x="476" y="135"/>
			<point x="516" y="81"/>
			<point x="592" y="82" type="curve" smooth="yes"/>
			<point x="727" y="84"/>
			<point x="788" y="252"/>
			<point x="788" y="373" type="curve" smooth="yes"/>
			<point x="787" y="588"/>
			<point x="636" y="696"/>
			<point x="475" y="696" type="curve" smooth="yes"/>
			<point x="320" y="696"/>
			<point x="229" y="626"/>
			<point x="227" y="626" type="curve"/>
			<point x="225" y="629"/>
			<point x="224" y="636"/>
			<point x="224" y="646" type="curve" smooth="yes"/>
			<point x="226" y="667"/>
			<point x="242" y="705"/>
			<point x="263" y="728" type="curve"/>
			<point x="308" y="759"/>
			<point x="392" y="780"/>
			<point x="485" y="780" type="curve" smooth="yes"/>
			<point x="716" y="780"/>
			<point x="848" y="586"/>
			<point x="850" y="358" type="curve" smooth="yes"/>
			<point x="851" y="160"/>
			<point x="771" y="-25"/>
			<point x="599" y="-25" type="curve" smooth="yes"/>
			<point x="474" y="-25"/>
			<point x="439" y="56"/>
			<point x="450" y="119" type="curve"/>
			<point x="448" y="117"/>
			<point x="473" y="123"/>
			<point x="471" y="121" type="curve"/>
			<point x="466" y="63"/>
			<point x="400" y="-20"/>
			<point x="285" y="-20" type="curve" smooth="yes"/>
			<point x="163" y="-20"/>
			<point x="113" y="56"/>
		</contour>
	</outline>
</glyph>
<glyph name="sinTha" format="1">
  <advance width="791"/>
  <unicode hex="0DAE"/>
  <outline>
    <contour>
      <point x="293" y="837" type="curve"/>
      <point x="333" y="858" type="line"/>
      <point x="340" y="817"/>
      <point x="338" y="738"/>
      <point x="387" y="682" type="curve" smooth="yes"/>
      <point x="448" y="604"/>
      <point x="600" y="613"/>
      <point x="661" y="638" type="curve"/>
      <point x="672" y="611" type="line"/>
      <point x="640" y="584"/>
      <point x="565" y="562"/>
      <point x="491" y="562" type="curve" smooth="yes"/>
      <point x="313" y="562"/>
      <point x="269" y="683"/>
    </contour>
    <contour>
      <point x="56" y="233" type="curve" smooth="yes"/>
      <point x="64" y="392"/>
      <point x="238" y="509"/>
      <point x="377" y="506" type="curve"/>
      <point x="402" y="428" type="line"/>
      <point x="394" y="408" type="line"/>
      <point x="268" y="424"/>
      <point x="122" y="359"/>
      <point x="114" y="236" type="curve" smooth="yes"/>
      <point x="107" y="134"/>
      <point x="212" y="79"/>
      <point x="342" y="80" type="curve" smooth="yes"/>
      <point x="521" y="82"/>
      <point x="688" y="208"/>
      <point x="687" y="395" type="curve" smooth="yes"/>
      <point x="686" y="587"/>
      <point x="523" y="764"/>
      <point x="318" y="764" type="curve" smooth="yes"/>
      <point x="333" y="857" type="line" smooth="yes"/>
      <point x="537" y="857"/>
      <point x="752" y="666"/>
      <point x="748" y="403" type="curve" smooth="yes"/>
      <point x="745" y="171"/>
      <point x="609" y="-11"/>
      <point x="372" y="-22" type="curve" smooth="yes"/>
      <point x="173" y="-31"/>
      <point x="47" y="59"/>
    </contour>
  </outline>
</glyph>
<glyph name="sinDa" format="1">
  <advance width="568"/>
  <unicode hex="0DAF"/>
  <outline>
    <contour>
      <point x="184" y="-158" type="curve" smooth="yes"/>
      <point x="191" y="-48"/>
      <point x="319" y="10"/>
      <point x="386" y="39" type="curve"/>
      <point x="396" y="38"/>
      <point x="405" y="47"/>
      <point x="415" y="45" type="curve"/>
      <point x="420" y="43"/>
      <point x="424" y="28"/>
      <point x="429" y="26" type="curve"/>
      <point x="383" y="9"/>
      <point x="269" y="-37"/>
      <point x="264" y="-121" type="curve" smooth="yes"/>
      <point x="261" y="-170"/>
      <point x="302" y="-229"/>
      <point x="473" y="-179" type="curve"/>
      <point x="470" y="-233"/>
      <point x="425" y="-284"/>
      <point x="395" y="-300" type="curve"/>
      <point x="220" y="-318"/>
      <point x="179" y="-230"/>
    </contour>
    <contour>
      <point x="39" y="196" type="curve" smooth="yes"/>
      <point x="42" y="334"/>
      <point x="161" y="440"/>
      <point x="343" y="444" type="curve" smooth="yes"/>
      <point x="386" y="445"/>
      <point x="404" y="442"/>
      <point x="422" y="439" type="curve"/>
      <point x="417" y="504"/>
      <point x="392" y="564"/>
      <point x="327" y="564" type="curve" smooth="yes"/>
      <point x="275" y="564"/>
      <point x="223" y="528"/>
      <point x="239" y="457" type="curve"/>
      <point x="175" y="443"/>
      <point x="129" y="460"/>
      <point x="127" y="507" type="curve" smooth="yes"/>
      <point x="125" y="573"/>
      <point x="185" y="620"/>
      <point x="272" y="627" type="curve" smooth="yes"/>
      <point x="431" y="639"/>
      <point x="505" y="491"/>
      <point x="499" y="376" type="curve"/>
      <point x="480" y="358" type="line"/>
      <point x="480" y="358" type="line" smooth="yes"/>
      <point x="480" y="358" type="line"/>
      <point x="447" y="363"/>
      <point x="383" y="367"/>
      <point x="355" y="367" type="curve" smooth="yes"/>
      <point x="177" y="367"/>
      <point x="88" y="280"/>
      <point x="89" y="196" type="curve" smooth="yes"/>
      <point x="89" y="132"/>
      <point x="151" y="90"/>
      <point x="274" y="88" type="curve" smooth="yes"/>
      <point x="356" y="87"/>
      <point x="429" y="114"/>
      <point x="490" y="159" type="curve"/>
      <point x="500" y="146" type="line"/>
      <point x="500" y="108"/>
      <point x="493" y="71"/>
      <point x="483" y="49" type="curve"/>
      <point x="441" y="30"/>
      <point x="377" y="-6"/>
      <point x="282" y="-6" type="curve" smooth="yes"/>
      <point x="131" y="-6"/>
      <point x="36" y="81"/>
    </contour>
    <contour>
      <point x="434" y="528" type="move" name="Virama"/>
    </contour>
  </outline>
</glyph>
<glyph name="sinDha" format="1">
  <advance width="894"/>
  <unicode hex="0DB0"/>
  <outline>
    <contour>
      <point x="285" y="75" type="curve" smooth="yes"/>
      <point x="375" y="73"/>
      <point x="420" y="114"/>
      <point x="443" y="192" type="curve"/>
      <point x="469" y="198" type="line"/>
      <point x="457" y="116"/>
      <point x="520" y="72"/>
      <point x="591" y="73" type="curve" smooth="yes"/>
      <point x="718" y="74"/>
      <point x="768" y="245"/>
      <point x="769" y="363" type="curve" smooth="yes"/>
      <point x="770" y="601"/>
      <point x="626" y="692"/>
      <point x="399" y="692" type="curve" smooth="yes"/>
      <point x="287" y="692"/>
      <point x="202" y="643"/>
      <point x="200" y="643" type="curve"/>
      <point x="198" y="646"/>
      <point x="197" y="653"/>
      <point x="197" y="663" type="curve" smooth="yes"/>
      <point x="199" y="684"/>
      <point x="215" y="718"/>
      <point x="236" y="741" type="curve"/>
      <point x="273" y="758"/>
      <point x="339" y="775"/>
      <point x="415" y="775" type="curve" smooth="yes"/>
      <point x="683" y="775"/>
      <point x="830" y="589"/>
      <point x="831" y="343" type="curve" smooth="yes"/>
      <point x="832" y="154"/>
      <point x="761" y="-24"/>
      <point x="592" y="-24" type="curve" smooth="yes"/>
      <point x="460" y="-24"/>
      <point x="419" y="47"/>
      <point x="432" y="110" type="curve"/>
      <point x="430" y="108"/>
      <point x="455" y="103"/>
      <point x="453" y="102" type="curve"/>
      <point x="448" y="55"/>
      <point x="402" y="-19"/>
      <point x="286" y="-19" type="curve" smooth="yes"/>
      <point x="146" y="-19"/>
      <point x="97" y="98"/>
      <point x="99" y="207" type="curve" smooth="yes"/>
      <point x="102" y="407"/>
      <point x="313" y="502"/>
      <point x="440" y="496" type="curve"/>
      <point x="456" y="465"/>
      <point x="457" y="439"/>
      <point x="459" y="403" type="curve"/>
      <point x="384" y="416"/>
      <point x="156" y="380"/>
      <point x="154" y="239" type="curve" smooth="yes"/>
      <point x="153" y="152"/>
      <point x="195" y="79"/>
    </contour>
    <contour>
      <point x="803" y="295" type="move" name="_si_MaU"/>
    </contour>
  </outline>
</glyph>
<glyph name="sinNda" format="1">
	<unicode hex="0DB3"/>
	<advance width="702"/>
	<outline>
		<contour>
			<point x="60" y="259" type="curve" smooth="yes"/>
			<point x="72" y="479"/>
			<point x="261" y="628"/>
			<point x="453" y="628" type="curve" smooth="yes"/>
			<point x="495" y="628"/>
			<point x="528" y="615"/>
			<point x="558" y="602" type="curve"/>
			<point x="560" y="598" type="line"/>
			<point x="526" y="587"/>
			<point x="496" y="591"/>
			<point x="465" y="590" type="curve" smooth="yes"/>
			<point x="318" y="583"/>
			<point x="135" y="463"/>
			<point x="121" y="278" type="curve" smooth="yes"/>
			<point x="108" y="91"/>
			<point x="201" y="22"/>
			<point x="201" y="22" type="curve"/>
			<point x="146" y="-21" type="line"/>
			<point x="98" y="29"/>
			<point x="52" y="124"/>
		</contour>
		<component base="sinDa" yxScale="0.052" xOffset="137"/>
	</outline>
</glyph>
<glyph name="sinPa" format="1">
	<unicode hex="0DB4"/>
	<advance width="816"/>
	<outline>
		<contour>
			<point x="377" y="332" type="line"/>
			<point x="225" y="354"/>
			<point x="101" y="316"/>
			<point x="101" y="233" type="curve" smooth="yes"/>
			<point x="102" y="152"/>
			<point x="204" y="85"/>
			<point x="402" y="82" type="curve" smooth="yes"/>
			<point x="580" y="79"/>
			<point x="697" y="153"/>
			<point x="708" y="258" type="curve" smooth="yes"/>
			<point x="714" y="327"/>
			<point x="659" y="351"/>
			<point x="591" y="353" type="curve" smooth="yes"/>
			<point x="549" y="353"/>
			<point x="497" y="337"/>
			<point x="455" y="322" type="curve"/>
			<point x="442" y="333" type="line"/>
			<point x="434" y="472"/>
			<point x="506" y="588"/>
			<point x="637" y="588" type="curve" smooth="yes"/>
			<point x="727" y="588"/>
			<point x="761" y="530"/>
			<point x="756" y="477" type="curve" smooth="yes"/>
			<point x="749" y="404"/>
			<point x="685" y="385"/>
			<point x="654" y="368" type="curve"/>
			<point x="659" y="376"/>
			<point x="677" y="410"/>
			<point x="681" y="444" type="curve" smooth="yes"/>
			<point x="687" y="499"/>
			<point x="649" y="531"/>
			<point x="596" y="531" type="curve" smooth="yes"/>
			<point x="548" y="531"/>
			<point x="511" y="499"/>
			<point x="506" y="452" type="curve" smooth="yes"/>
			<point x="501" y="407"/>
			<point x="520" y="395"/>
			<point x="531" y="379" type="curve"/>
			<point x="462" y="395" type="line"/>
			<point x="505" y="410"/>
			<point x="529" y="417"/>
			<point x="587" y="416" type="curve" smooth="yes"/>
			<point x="687" y="415"/>
			<point x="754" y="354"/>
			<point x="754" y="251" type="curve" smooth="yes"/>
			<point x="754" y="91"/>
			<point x="602" y="-26"/>
			<point x="417" y="-26" type="curve" smooth="yes"/>
			<point x="152" y="-26"/>
			<point x="60" y="101"/>
			<point x="60" y="220" type="curve" smooth="yes"/>
			<point x="60" y="353"/>
			<point x="226" y="431"/>
			<point x="362" y="410" type="curve"/>
			<point x="314" y="372" type="line"/>
			<point x="327" y="383"/>
			<point x="349" y="406"/>
			<point x="348" y="451" type="curve" smooth="yes"/>
			<point x="348" y="490"/>
			<point x="333" y="523"/>
			<point x="291" y="524" type="curve" smooth="yes"/>
			<point x="236" y="525"/>
			<point x="196" y="469"/>
			<point x="186" y="429" type="curve"/>
			<point x="153" y="431"/>
			<point x="111" y="450"/>
			<point x="117" y="498" type="curve" smooth="yes"/>
			<point x="123" y="544"/>
			<point x="168" y="589"/>
			<point x="247" y="589" type="curve" smooth="yes"/>
			<point x="407" y="589"/>
			<point x="411" y="437"/>
			<point x="391" y="347" type="curve"/>
		</contour>
		<contour>
			<point name="Virama" x="713" y="527" type="move"/>
		</contour>
	</outline>
</glyph>
<glyph name="sinPha" format="1">
	<unicode hex="0DB5"/>
	<advance width="811"/>
	<outline>
		<contour>
			<point x="91" y="203" type="curve" smooth="yes"/>
			<point x="99" y="354"/>
			<point x="256" y="403"/>
			<point x="361" y="403" type="curve" smooth="yes"/>
			<point x="370" y="403"/>
			<point x="383" y="403"/>
			<point x="390" y="402" type="curve"/>
			<point x="393" y="468"/>
			<point x="349" y="502"/>
			<point x="300" y="502" type="curve" smooth="yes"/>
			<point x="238" y="502"/>
			<point x="213" y="445"/>
			<point x="212" y="434" type="curve"/>
			<point x="161" y="428"/>
			<point x="134" y="453"/>
			<point x="136" y="488" type="curve" smooth="yes"/>
			<point x="139" y="544"/>
			<point x="195" y="577"/>
			<point x="253" y="577" type="curve" smooth="yes"/>
			<point x="389" y="577"/>
			<point x="445" y="464"/>
			<point x="440" y="372" type="curve" smooth="yes"/>
			<point x="439" y="359"/>
			<point x="438" y="347"/>
			<point x="435" y="335" type="curve"/>
			<point x="414" y="319" type="line"/>
			<point x="389" y="323"/>
			<point x="362" y="325"/>
			<point x="336" y="325" type="curve" smooth="yes"/>
			<point x="233" y="325"/>
			<point x="144" y="300"/>
			<point x="140" y="226" type="curve" smooth="yes"/>
			<point x="136" y="144"/>
			<point x="232" y="87"/>
			<point x="382" y="87" type="curve" smooth="yes"/>
			<point x="621" y="87"/>
			<point x="726" y="238"/>
			<point x="736" y="425" type="curve" smooth="yes"/>
			<point x="745" y="597"/>
			<point x="601" y="734"/>
			<point x="407" y="734" type="curve" smooth="yes"/>
			<point x="412" y="807" type="line" smooth="yes"/>
			<point x="616" y="807"/>
			<point x="801" y="656"/>
			<point x="787" y="393" type="curve" smooth="yes"/>
			<point x="774" y="153"/>
			<point x="628" y="-18"/>
			<point x="391" y="-18" type="curve" smooth="yes"/>
			<point x="192" y="-18"/>
			<point x="85" y="79"/>
		</contour>
		<contour>
			<point x="371" y="767" type="curve"/>
			<point x="412" y="808" type="line"/>
			<point x="446" y="773"/>
			<point x="422" y="718"/>
			<point x="445" y="666" type="curve" smooth="yes"/>
			<point x="484" y="581"/>
			<point x="588" y="541"/>
			<point x="719" y="608" type="curve"/>
			<point x="751" y="581" type="line"/>
			<point x="690" y="526"/>
			<point x="465" y="473"/>
			<point x="409" y="596" type="curve" smooth="yes"/>
			<point x="381" y="651"/>
			<point x="397" y="706"/>
		</contour>
		<contour>
			<point name="Virama" x="779" y="502" type="move"/>
		</contour>
	</outline>
</glyph>
<glyph name="sinBa" format="1">
	<unicode hex="0DB6"/>
	<advance width="848"/>
	<outline>
		<contour>
			<point x="55" y="200" type="curve" smooth="yes"/>
			<point x="67" y="378"/>
			<point x="185" y="500"/>
			<point x="334" y="502" type="curve" smooth="yes"/>
			<point x="472" y="504"/>
			<point x="543" y="411"/>
			<point x="535" y="311" type="curve"/>
			<point x="490" y="308"/>
			<point x="434" y="270"/>
			<point x="425" y="192" type="curve" smooth="yes"/>
			<point x="419" y="140"/>
			<point x="453" y="103"/>
			<point x="535" y="104" type="curve" smooth="yes"/>
			<point x="671" y="105"/>
			<point x="734" y="256"/>
			<point x="737" y="372" type="curve" smooth="yes"/>
			<point x="743" y="577"/>
			<point x="615" y="688"/>
			<point x="399" y="688" type="curve" smooth="yes"/>
			<point x="273" y="688"/>
			<point x="185" y="626"/>
			<point x="184" y="627" type="curve" smooth="yes"/>
			<point x="172" y="635"/>
			<point x="185" y="696"/>
			<point x="204" y="726" type="curve"/>
			<point x="248" y="754"/>
			<point x="319" y="778"/>
			<point x="411" y="778" type="curve" smooth="yes"/>
			<point x="624" y="778"/>
			<point x="809" y="625"/>
			<point x="798" y="355" type="curve" smooth="yes"/>
			<point x="789" y="149"/>
			<point x="700" y="-10"/>
			<point x="540" y="-12" type="curve" smooth="yes"/>
			<point x="402" y="-14"/>
			<point x="363" y="83"/>
			<point x="368" y="157" type="curve" smooth="yes"/>
			<point x="376" y="267"/>
			<point x="440" y="322"/>
			<point x="498" y="335" type="curve"/>
			<point x="486" y="363"/>
			<point x="398" y="406"/>
			<point x="314" y="407" type="curve" smooth="yes"/>
			<point x="206" y="408"/>
			<point x="96" y="332"/>
			<point x="93" y="205" type="curve" smooth="yes"/>
			<point x="91" y="113"/>
			<point x="161" y="64"/>
			<point x="195" y="57" type="curve"/>
			<point x="169" y="52" type="line"/>
			<point x="136" y="118"/>
			<point x="170" y="207"/>
			<point x="256" y="207" type="curve" smooth="yes"/>
			<point x="306" y="207"/>
			<point x="345" y="161"/>
			<point x="340" y="105" type="curve" smooth="yes"/>
			<point x="334" y="35"/>
			<point x="291" y="-18"/>
			<point x="233" y="-18" type="curve" smooth="yes"/>
			<point x="97" y="-18"/>
			<point x="48" y="90"/>
		</contour>
		<contour>
			<point x="196" y="109" type="curve" smooth="yes"/>
			<point x="193" y="82"/>
			<point x="204" y="58"/>
			<point x="239" y="59" type="curve" smooth="yes"/>
			<point x="269" y="60"/>
			<point x="286" y="92"/>
			<point x="288" y="119" type="curve" smooth="yes"/>
			<point x="291" y="152"/>
			<point x="270" y="164"/>
			<point x="246" y="164" type="curve" smooth="yes"/>
			<point x="220" y="164"/>
			<point x="198" y="140"/>
		</contour>
		<contour>
			<point name="rakaransaya" x="799" y="363" type="move"/>
		</contour>
	</outline>
</glyph>
<glyph name="sinBha" format="1">
  <advance width="993"/>
  <unicode hex="0DB7"/>
  <outline>
    <contour>
      <point x="399" y="335" type="line"/>
      <point x="289" y="365"/>
      <point x="146" y="339"/>
      <point x="139" y="223" type="curve" smooth="yes"/>
      <point x="133" y="131"/>
      <point x="216" y="95"/>
      <point x="318" y="89" type="curve" smooth="yes"/>
      <point x="504" y="78"/>
      <point x="566" y="168"/>
      <point x="567" y="240" type="curve" smooth="yes"/>
      <point x="567" y="310"/>
      <point x="507" y="328"/>
      <point x="481" y="329" type="curve"/>
      <point x="517" y="367" type="line"/>
      <point x="564" y="368"/>
      <point x="626" y="316"/>
      <point x="619" y="216" type="curve" smooth="yes"/>
      <point x="611" y="105"/>
      <point x="523" y="-10"/>
      <point x="334" y="-10" type="curve" smooth="yes"/>
      <point x="195" y="-10"/>
      <point x="87" y="84"/>
      <point x="94" y="208" type="curve" smooth="yes"/>
      <point x="101" y="348"/>
      <point x="213" y="409"/>
      <point x="350" y="408" type="curve"/>
      <point x="358" y="423"/>
      <point x="369" y="459"/>
      <point x="361" y="489" type="curve" smooth="yes"/>
      <point x="352" y="523"/>
      <point x="309" y="533"/>
      <point x="279" y="528" type="curve" smooth="yes"/>
      <point x="222" y="518"/>
      <point x="202" y="455"/>
      <point x="191" y="419" type="curve"/>
      <point x="148" y="421"/>
      <point x="110" y="444"/>
      <point x="114" y="492" type="curve" smooth="yes"/>
      <point x="117" y="543"/>
      <point x="176" y="592"/>
      <point x="265" y="592" type="curve" smooth="yes"/>
      <point x="413" y="592"/>
      <point x="437" y="446"/>
      <point x="411" y="349" type="curve"/>
    </contour>
    <contour>
      <point x="437" y="226" type="curve"/>
      <point x="460" y="419"/>
      <point x="565" y="582"/>
      <point x="735" y="583" type="curve" smooth="yes"/>
      <point x="921" y="584"/>
      <point x="986" y="435"/>
      <point x="978" y="302" type="curve" smooth="yes"/>
      <point x="967" y="121"/>
      <point x="861" y="-19"/>
      <point x="686" y="-18" type="curve"/>
      <point x="658" y="1"/>
      <point x="632" y="52"/>
      <point x="631" y="82" type="curve"/>
      <point x="645" y="92" type="line"/>
      <point x="666" y="83"/>
      <point x="687" y="79"/>
      <point x="717" y="79" type="curve" smooth="yes"/>
      <point x="845" y="79"/>
      <point x="918" y="171"/>
      <point x="926" y="268" type="curve" smooth="yes"/>
      <point x="936" y="380"/>
      <point x="854" y="473"/>
      <point x="703" y="473" type="curve" smooth="yes"/>
      <point x="611" y="473"/>
      <point x="553" y="423"/>
      <point x="516" y="350" type="curve" smooth="yes"/>
      <point x="494" y="311"/>
      <point x="489" y="265"/>
      <point x="488" y="216" type="curve"/>
      <point x="473" y="214"/>
      <point x="450" y="218"/>
    </contour>
    <contour>
      <point x="16" y="286" type="line"/>
      <point x="16" y="314"/>
      <point x="10" y="340"/>
      <point x="32" y="381" type="curve"/>
      <point x="111" y="395"/>
      <point x="238" y="407"/>
      <point x="348" y="406" type="curve"/>
      <point x="307" y="398" type="line"/>
      <point x="150" y="389"/>
      <point x="82" y="319"/>
      <point x="29" y="286" type="curve"/>
    </contour>
    <contour>
      <point x="947" y="300" type="move" name="rakaransa"/>
    </contour>
  </outline>
</glyph>
<glyph name="sinRa" format="1">
	<unicode hex="0DBB"/>
	<advance width="695"/>
	<outline>
		<contour>
			<point x="52" y="232" type="curve" smooth="yes"/>
			<point x="53" y="488"/>
			<point x="326" y="650"/>
			<point x="486" y="878" type="curve"/>
			<point x="510" y="882"/>
			<point x="545" y="828"/>
			<point x="531" y="786" type="curve"/>
			<point x="456" y="700"/>
			<point x="262" y="549"/>
			<point x="193" y="460" type="curve"/>
			<point x="187" y="453"/>
			<point x="189" y="438"/>
			<point x="183" y="431" type="curve" smooth="yes"/>
			<point x="142" y="377"/>
			<point x="108" y="330"/>
			<point x="102" y="255" type="curve" smooth="yes"/>
			<point x="94" y="149"/>
			<point x="141" y="66"/>
			<point x="290" y="60" type="curve" smooth="yes"/>
			<point x="491" y="51"/>
			<point x="596" y="193"/>
			<point x="590" y="326" type="curve" smooth="yes"/>
			<point x="583" y="448"/>
			<point x="433" y="473"/>
			<point x="369" y="466" type="curve" smooth="yes"/>
			<point x="280" y="456"/>
			<point x="177" y="420"/>
			<point x="110" y="312" type="curve"/>
			<point x="108" y="345"/>
			<point x="136" y="361"/>
			<point x="147" y="393" type="curve"/>
			<point x="166" y="411"/>
			<point x="152" y="418"/>
			<point x="183" y="440" type="curve"/>
			<point x="213" y="470"/>
			<point x="321" y="549"/>
			<point x="413" y="549" type="curve" smooth="yes"/>
			<point x="560" y="549"/>
			<point x="655" y="449"/>
			<point x="649" y="290" type="curve" smooth="yes"/>
			<point x="643" y="90"/>
			<point x="509" y="-33"/>
			<point x="333" y="-38" type="curve" smooth="yes"/>
			<point x="133" y="-44"/>
			<point x="51" y="85"/>
		</contour>
	</outline>
</glyph>
<glyph name="sinVa" format="1">
	<unicode hex="0DC0"/>
	<advance width="790"/>
	<outline>
		<contour>
			<point x="63" y="163" type="curve" smooth="yes"/>
			<point x="63" y="314"/>
			<point x="222" y="389"/>
			<point x="331" y="389" type="curve" smooth="yes"/>
			<point x="340" y="389"/>
			<point x="343" y="389"/>
			<point x="351" y="388" type="curve"/>
			<point x="350" y="454"/>
			<point x="317" y="487"/>
			<point x="268" y="487" type="curve" smooth="yes"/>
			<point x="206" y="487"/>
			<point x="188" y="421"/>
			<point x="188" y="410" type="curve"/>
			<point x="137" y="404"/>
			<point x="109" y="430"/>
			<point x="109" y="465" type="curve" smooth="yes"/>
			<point x="109" y="525"/>
			<point x="176" y="553"/>
			<point x="234" y="553" type="curve" smooth="yes"/>
			<point x="362" y="553"/>
			<point x="416" y="454"/>
			<point x="416" y="362" type="curve" smooth="yes"/>
			<point x="416" y="349"/>
			<point x="415" y="337"/>
			<point x="413" y="325" type="curve"/>
			<point x="393" y="309" type="line"/>
			<point x="368" y="313"/>
			<point x="341" y="315"/>
			<point x="315" y="315" type="curve" smooth="yes"/>
			<point x="207" y="315"/>
			<point x="120" y="257"/>
			<point x="120" y="183" type="curve" smooth="yes"/>
			<point x="120" y="111"/>
			<point x="214" y="79"/>
			<point x="341" y="80" type="curve" smooth="yes"/>
			<point x="544" y="82"/>
			<point x="679" y="221"/>
			<point x="679" y="448" type="curve" smooth="yes"/>
			<point x="679" y="610"/>
			<point x="554" y="695"/>
			<point x="392" y="695" type="curve" smooth="yes"/>
			<point x="266" y="695"/>
			<point x="181" y="625"/>
			<point x="178" y="625" type="curve"/>
			<point x="171" y="643"/>
			<point x="183" y="692"/>
			<point x="198" y="714" type="curve"/>
			<point x="243" y="743"/>
			<point x="319" y="781"/>
			<point x="415" y="781" type="curve" smooth="yes"/>
			<point x="593" y="781"/>
			<point x="742" y="662"/>
			<point x="742" y="418" type="curve" smooth="yes"/>
			<point x="742" y="178"/>
			<point x="608" y="-27"/>
			<point x="355" y="-27" type="curve" smooth="yes"/>
			<point x="180" y="-27"/>
			<point x="63" y="39"/>
		</contour>
	</outline>
</glyph>
<glyph name="sinSsa" format="1">
	<unicode hex="0DC2"/>
	<advance width="800"/>
	<outline>
		<contour>
			<point x="219" y="210" type="curve" smooth="yes"/>
			<point x="219" y="276"/>
			<point x="342" y="285"/>
			<point x="406" y="289" type="curve" smooth="yes"/>
			<point x="585" y="300"/>
			<point x="614" y="361"/>
			<point x="669" y="386" type="curve"/>
			<point x="696" y="373" type="line"/>
			<point x="619" y="314"/>
			<point x="546" y="251"/>
			<point x="414" y="246" type="curve" smooth="yes"/>
			<point x="369" y="244"/>
			<point x="258" y="246"/>
			<point x="258" y="216" type="curve" smooth="yes"/>
			<point x="258" y="195"/>
			<point x="316" y="190"/>
			<point x="371" y="190" type="curve" smooth="yes"/>
			<point x="463" y="190"/>
			<point x="517" y="204"/>
			<point x="522" y="232" type="curve" smooth="yes"/>
			<point x="526" y="253"/>
			<point x="501" y="273"/>
			<point x="463" y="270" type="curve"/>
			<point x="488" y="280" type="line"/>
			<point x="502" y="279"/>
			<point x="566" y="281"/>
			<point x="563" y="225" type="curve" smooth="yes"/>
			<point x="560" y="175"/>
			<point x="509" y="135"/>
			<point x="406" y="132" type="curve" smooth="yes"/>
			<point x="327" y="129"/>
			<point x="219" y="149"/>
		</contour>
		<contour>
			<point x="376" y="332" type="line"/>
			<point x="225" y="354"/>
			<point x="98" y="316"/>
			<point x="94" y="233" type="curve" smooth="yes"/>
			<point x="91" y="152"/>
			<point x="189" y="85"/>
			<point x="387" y="82" type="curve" smooth="yes"/>
			<point x="565" y="79"/>
			<point x="686" y="153"/>
			<point x="702" y="258" type="curve" smooth="yes"/>
			<point x="712" y="327"/>
			<point x="658" y="351"/>
			<point x="590" y="353" type="curve" smooth="yes"/>
			<point x="549" y="353"/>
			<point x="496" y="337"/>
			<point x="453" y="322" type="curve"/>
			<point x="440" y="333" type="line"/>
			<point x="440" y="472"/>
			<point x="518" y="588"/>
			<point x="649" y="588" type="curve" smooth="yes"/>
			<point x="739" y="588"/>
			<point x="769" y="530"/>
			<point x="761" y="477" type="curve" smooth="yes"/>
			<point x="751" y="404"/>
			<point x="686" y="385"/>
			<point x="654" y="368" type="curve"/>
			<point x="660" y="376"/>
			<point x="680" y="410"/>
			<point x="685" y="444" type="curve" smooth="yes"/>
			<point x="694" y="499"/>
			<point x="658" y="531"/>
			<point x="605" y="531" type="curve" smooth="yes"/>
			<point x="556" y="531"/>
			<point x="518" y="499"/>
			<point x="510" y="452" type="curve" smooth="yes"/>
			<point x="503" y="407"/>
			<point x="521" y="395"/>
			<point x="532" y="379" type="curve"/>
			<point x="464" y="395" type="line"/>
			<point x="507" y="410"/>
			<point x="532" y="417"/>
			<point x="590" y="416" type="curve" smooth="yes"/>
			<point x="690" y="415"/>
			<point x="753" y="354"/>
			<point x="748" y="251" type="curve" smooth="yes"/>
			<point x="740" y="91"/>
			<point x="582" y="-26"/>
			<point x="397" y="-26" type="curve" smooth="yes"/>
			<point x="132" y="-26"/>
			<point x="46" y="101"/>
			<point x="52" y="220" type="curve" smooth="yes"/>
			<point x="59" y="353"/>
			<point x="229" y="431"/>
			<point x="364" y="410" type="curve"/>
			<point x="314" y="372" type="line"/>
			<point x="328" y="383"/>
			<point x="351" y="406"/>
			<point x="353" y="451" type="curve" smooth="yes"/>
			<point x="354" y="490"/>
			<point x="341" y="523"/>
			<point x="299" y="524" type="curve" smooth="yes"/>
			<point x="245" y="525"/>
			<point x="201" y="469"/>
			<point x="189" y="429" type="curve"/>
			<point x="156" y="431"/>
			<point x="115" y="450"/>
			<point x="124" y="498" type="curve" smooth="yes"/>
			<point x="132" y="544"/>
			<point x="180" y="589"/>
			<point x="259" y="589" type="curve" smooth="yes"/>
			<point x="419" y="589"/>
			<point x="415" y="437"/>
			<point x="390" y="347" type="curve"/>
		</contour>
		<contour>
			<point name="rakaransaya" x="749" y="249" type="move"/>
		</contour>
		<contour>
			<point name="Virama" x="699" y="532" type="move"/>
		</contour>
	</outline>
</glyph>
<glyph name="sinSa" format="1">
	<unicode hex="0DC3"/>
	<advance width="905"/>
	<outline>
		<contour>
			<point x="39" y="294" type="line"/>
			<point x="59" y="379" type="line"/>
			<point x="139" y="393"/>
			<point x="331" y="397"/>
			<point x="441" y="396" type="curve"/>
			<point x="423" y="377" type="line"/>
			<point x="248" y="388"/>
			<point x="106" y="317"/>
			<point x="51" y="284" type="curve"/>
		</contour>
		<contour>
			<point x="753" y="366" type="curve"/>
			<point x="759" y="374"/>
			<point x="784" y="418"/>
			<point x="788" y="452" type="curve" smooth="yes"/>
			<point x="794" y="507"/>
			<point x="745" y="541"/>
			<point x="693" y="541" type="curve" smooth="yes"/>
			<point x="644" y="541"/>
			<point x="596" y="496"/>
			<point x="596" y="450" type="curve" smooth="yes"/>
			<point x="596" y="405"/>
			<point x="600" y="392"/>
			<point x="612" y="376" type="curve"/>
			<point x="551" y="383" type="line"/>
			<point x="593" y="398"/>
			<point x="608" y="411"/>
			<point x="666" y="410" type="curve" smooth="yes"/>
			<point x="796" y="409"/>
			<point x="858" y="317"/>
			<point x="858" y="211" type="curve" smooth="yes"/>
			<point x="858" y="67"/>
			<point x="747" y="-28"/>
			<point x="634" y="-28" type="curve" smooth="yes"/>
			<point x="493" y="-28"/>
			<point x="430" y="61"/>
			<point x="456" y="142" type="curve"/>
			<point x="455" y="140"/>
			<point x="482" y="126"/>
			<point x="481" y="124" type="curve"/>
			<point x="461" y="74"/>
			<point x="401" y="-25"/>
			<point x="276" y="-26" type="curve" smooth="yes"/>
			<point x="137" y="-27"/>
			<point x="95" y="71"/>
			<point x="96" y="157" type="curve" smooth="yes"/>
			<point x="98" y="274"/>
			<point x="211" y="356"/>
			<point x="303" y="391" type="curve"/>
			<point x="305" y="392"/>
			<point x="303" y="387"/>
			<point x="306" y="388" type="curve"/>
			<point x="408" y="390" type="line"/>
			<point x="442" y="436"/>
			<point x="402" y="530"/>
			<point x="349" y="531" type="curve" smooth="yes"/>
			<point x="297" y="532"/>
			<point x="264" y="480"/>
			<point x="253" y="431" type="curve"/>
			<point x="220" y="433"/>
			<point x="177" y="457"/>
			<point x="183" y="505" type="curve" smooth="yes"/>
			<point x="189" y="556"/>
			<point x="240" y="601"/>
			<point x="319" y="601" type="curve" smooth="yes"/>
			<point x="459" y="601"/>
			<point x="496" y="433"/>
			<point x="464" y="330" type="curve"/>
			<point x="449" y="316" type="line"/>
			<point x="249" y="350"/>
			<point x="136" y="257"/>
			<point x="138" y="183" type="curve" smooth="yes"/>
			<point x="140" y="114"/>
			<point x="202" y="76"/>
			<point x="299" y="76" type="curve" smooth="yes"/>
			<point x="387" y="76"/>
			<point x="443" y="115"/>
			<point x="472" y="209" type="curve"/>
			<point x="479" y="211"/>
			<point x="487" y="214"/>
			<point x="495" y="215" type="curve"/>
			<point x="477" y="138"/>
			<point x="526" y="76"/>
			<point x="650" y="76" type="curve" smooth="yes"/>
			<point x="743" y="76"/>
			<point x="814" y="148"/>
			<point x="815" y="221" type="curve" smooth="yes"/>
			<point x="816" y="309"/>
			<point x="748" y="339"/>
			<point x="670" y="341" type="curve" smooth="yes"/>
			<point x="629" y="341"/>
			<point x="587" y="331"/>
			<point x="545" y="316" type="curve"/>
			<point x="531" y="327" type="line"/>
			<point x="532" y="486"/>
			<point x="600" y="600"/>
			<point x="731" y="600" type="curve" smooth="yes"/>
			<point x="831" y="600"/>
			<point x="866" y="546"/>
			<point x="866" y="485" type="curve" smooth="yes"/>
			<point x="866" y="413"/>
			<point x="785" y="383"/>
		</contour>
		<contour>
			<point name="rakaransaya" x="856" y="210" type="move"/>
		</contour>
	</outline>
</glyph>
<glyph name="sinLla" format="1">
	<unicode hex="0DC5"/>
	<advance width="875"/>
	<outline>
		<contour>
			<point x="114" y="110" type="curve" smooth="yes"/>
			<point x="115" y="-8"/>
			<point x="214" y="-130"/>
			<point x="427" y="-134" type="curve" smooth="yes"/>
			<point x="565" y="-137"/>
			<point x="713" y="-81"/>
			<point x="762" y="-43" type="curve"/>
			<point x="770" y="-57"/>
			<point x="768" y="-93"/>
			<point x="758" y="-114" type="curve"/>
			<point x="713" y="-156"/>
			<point x="600" y="-234"/>
			<point x="429" y="-234" type="curve" smooth="yes"/>
			<point x="184" y="-234"/>
			<point x="48" y="-97"/>
			<point x="52" y="99" type="curve" smooth="yes"/>
			<point x="56" y="271"/>
			<point x="157" y="361"/>
			<point x="260" y="393" type="curve"/>
			<point x="385" y="439"/>
			<point x="580" y="435"/>
			<point x="738" y="406" type="curve"/>
			<point x="718" y="398" type="line"/>
			<point x="705" y="488"/>
			<point x="654" y="533"/>
			<point x="596" y="535" type="curve" smooth="yes"/>
			<point x="554" y="537"/>
			<point x="512" y="511"/>
			<point x="508" y="472" type="curve"/>
			<point x="493" y="469"/>
			<point x="458" y="460"/>
			<point x="443" y="469" type="curve"/>
			<point x="437" y="516"/>
			<point x="409" y="539"/>
			<point x="369" y="539" type="curve" smooth="yes"/>
			<point x="310" y="539"/>
			<point x="262" y="501"/>
			<point x="259" y="417" type="curve" smooth="yes"/>
			<point x="252" y="238"/>
			<point x="418" y="202"/>
			<point x="514" y="200" type="curve" smooth="yes"/>
			<point x="609" y="199"/>
			<point x="685" y="228"/>
			<point x="738" y="261" type="curve"/>
			<point x="746" y="251"/>
			<point x="750" y="234"/>
			<point x="746" y="220" type="curve"/>
			<point x="705" y="173"/>
			<point x="616" y="100"/>
			<point x="481" y="102" type="curve" smooth="yes"/>
			<point x="334" y="104"/>
			<point x="202" y="217"/>
			<point x="207" y="379" type="curve" smooth="yes"/>
			<point x="212" y="514"/>
			<point x="276" y="604"/>
			<point x="380" y="604" type="curve" smooth="yes"/>
			<point x="447" y="604"/>
			<point x="490" y="560"/>
			<point x="487" y="519" type="curve" smooth="yes"/>
			<point x="487" y="522"/>
			<point x="485" y="524"/>
			<point x="479" y="526" type="curve"/>
			<point x="473" y="519" type="line"/>
			<point x="475" y="552"/>
			<point x="515" y="602"/>
			<point x="600" y="601" type="curve" smooth="yes"/>
			<point x="728" y="600"/>
			<point x="791" y="443"/>
			<point x="760" y="325" type="curve"/>
			<point x="682" y="350"/>
			<point x="403" y="371"/>
			<point x="285" y="337" type="curve" smooth="yes"/>
			<point x="140" y="296"/>
			<point x="113" y="199"/>
		</contour>
		<contour>
			<point name="Virama" x="709" y="512" type="move"/>
		</contour>
	</outline>
</glyph>
<glyph name="sinVirama" format="1">
  <advance width="1"/>
  <unicode hex="0DCA"/>
  <outline>
    <contour>
      <point x="15" y="751" type="line" smooth="yes"/>
      <point x="15" y="714"/>
      <point x="47" y="687"/>
      <point x="88" y="680" type="curve" smooth="yes"/>
      <point x="115" y="674"/>
      <point x="141" y="685"/>
      <point x="140" y="719" type="curve" smooth="yes"/>
      <point x="138" y="771"/>
      <point x="60" y="788"/>
      <point x="15" y="794" type="curve"/>
    </contour>
    <contour>
      <point x="-28" y="478" type="line"/>
      <point x="-19" y="865" type="line"/>
      <point x="-5" y="878" type="line"/>
      <point x="26" y="872"/>
      <point x="160" y="836"/>
      <point x="180" y="727" type="curve" smooth="yes"/>
      <point x="190" y="663"/>
      <point x="170" y="593"/>
      <point x="96" y="591" type="curve" smooth="yes"/>
      <point x="55" y="590"/>
      <point x="26" y="616"/>
      <point x="15" y="640" type="curve"/>
      <point x="15" y="478" type="line"/>
    </contour>
    <contour>
      <point x="14" y="476" type="move" name="_Virama"/>
    </contour>
  </outline>
</glyph>
<glyph name="sinMatraAa" format="1">
  <advance width="398"/>
  <unicode hex="0DCF"/>
  <outline>
    <contour>
      <point x="1" y="43" type="curve"/>
      <point x="1" y="67"/>
      <point x="5" y="86"/>
      <point x="16" y="103" type="curve"/>
      <point x="39" y="96"/>
      <point x="86" y="83"/>
      <point x="124" y="83" type="curve" smooth="yes"/>
      <point x="232" y="83"/>
      <point x="306" y="170"/>
      <point x="296" y="313" type="curve" smooth="yes"/>
      <point x="290" y="397"/>
      <point x="232" y="448"/>
      <point x="130" y="448" type="curve" smooth="yes"/>
      <point x="96" y="448"/>
      <point x="59" y="435"/>
      <point x="33" y="420" type="curve"/>
      <point x="30" y="437"/>
      <point x="30" y="459"/>
      <point x="36" y="480" type="curve"/>
      <point x="64" y="507"/>
      <point x="99" y="542"/>
      <point x="166" y="542" type="curve" smooth="yes"/>
      <point x="249" y="542"/>
      <point x="344" y="459"/>
      <point x="340" y="271" type="curve" smooth="yes"/>
      <point x="337" y="148"/>
      <point x="289" y="-13"/>
      <point x="134" y="-13" type="curve" smooth="yes"/>
      <point x="67" y="-13"/>
      <point x="5" y="24"/>
    </contour>
  </outline>
</glyph>
<glyph name="sinMatraI" format="1">
  <advance width="0"/>
  <unicode hex="0DD2"/>
  <outline>
    <contour>
      <point x="-240" y="655" type="curve" smooth="yes"/>
      <point x="-224" y="758"/>
      <point x="-83" y="802"/>
      <point x="58" y="800" type="curve" smooth="yes"/>
      <point x="162" y="799"/>
      <point x="303" y="765"/>
      <point x="312" y="659" type="curve" smooth="yes"/>
      <point x="317" y="594"/>
      <point x="269" y="543"/>
      <point x="233" y="529" type="curve"/>
      <point x="216" y="554" type="line"/>
      <point x="240" y="574"/>
      <point x="256" y="595"/>
      <point x="249" y="635" type="curve" smooth="yes"/>
      <point x="239" y="693"/>
      <point x="117" y="702"/>
      <point x="49" y="703" type="curve" smooth="yes"/>
      <point x="-46" y="704"/>
      <point x="-164" y="706"/>
      <point x="-178" y="641" type="curve" smooth="yes"/>
      <point x="-189" y="588"/>
      <point x="-150" y="576"/>
      <point x="-128" y="566" type="curve"/>
      <point x="-148" y="531" type="line"/>
      <point x="-210" y="551"/>
      <point x="-251" y="588"/>
    </contour>
    <contour>
      <point x="39" y="559" type="move" name="_si_MaI"/>
    </contour>
  </outline>
</glyph>
<glyph name="sinMatraLs" format="1">
	<unicode hex="0DDF"/>
	<advance width="605"/>
	<outline>
		<contour>
			<point x="59" y="344" type="curve" smooth="yes"/>
			<point x="56" y="242"/>
			<point x="102" y="166"/>
			<point x="205" y="155" type="curve" smooth="yes"/>
			<point x="291" y="145"/>
			<point x="380" y="186"/>
			<point x="387" y="289" type="curve" smooth="yes"/>
			<point x="390" y="339"/>
			<point x="354" y="390"/>
			<point x="288" y="390" type="curve" smooth="yes"/>
			<point x="271" y="390"/>
			<point x="252" y="386"/>
			<point x="252" y="386" type="curve"/>
			<point x="249" y="340" type="line"/>
			<point x="297" y="340"/>
			<point x="316" y="311"/>
			<point x="316" y="278" type="curve" smooth="yes"/>
			<point x="316" y="243"/>
			<point x="276" y="203"/>
			<point x="215" y="212" type="curve" smooth="yes"/>
			<point x="164" y="220"/>
			<point x="119" y="257"/>
			<point x="119" y="354" type="curve" smooth="yes"/>
			<point x="119" y="409"/>
			<point x="143" y="474"/>
			<point x="179" y="530" type="curve"/>
			<point x="122" y="539" type="line"/>
			<point x="91" y="495"/>
			<point x="61" y="412"/>
		</contour>
		<contour>
			<point x="140" y="37" type="line"/>
			<point x="153" y="-34"/>
			<point x="234" y="-62"/>
			<point x="301" y="-63" type="curve" smooth="yes"/>
			<point x="501" y="-67"/>
			<point x="570" y="78"/>
			<point x="583" y="253" type="curve" smooth="yes"/>
			<point x="602" y="502"/>
			<point x="477" y="540"/>
			<point x="410" y="543" type="curve" smooth="yes"/>
			<point x="288" y="548"/>
			<point x="222" y="440"/>
			<point x="225" y="339" type="curve"/>
			<point x="277" y="340" type="line"/>
			<point x="270" y="397"/>
			<point x="305" y="480"/>
			<point x="377" y="476" type="curve" smooth="yes"/>
			<point x="476" y="471"/>
			<point x="491" y="353"/>
			<point x="481" y="251" type="curve" smooth="yes"/>
			<point x="471" y="153"/>
			<point x="443" y="-7"/>
			<point x="321" y="-7" type="curve" smooth="yes"/>
			<point x="237" y="-7"/>
			<point x="209" y="20"/>
			<point x="183" y="63" type="curve"/>
		</contour>
	</outline>
</glyph>
<glyph name="endash" format="1">
  <advance width="500"/>
  <unicode hex="2013"/>
  <outline>
    <contour>
      <point x="460" y="328" type="line"/>
      <point x="460" y="433" type="line"/>
      <point x="39" y="433" type="line"/>
      <point x="39" y="328" type="line"/>
    </contour>
  </outline>
</glyph>
<glyph name="emdash" format="1">
  <advance width="1000"/>
  <unicode hex="2014"/>
  <outline>
    <contour>
      <point x="960" y="328" type="line"/>
      <point x="960" y="433" type="line"/>
      <point x="39" y="433" type="line"/>
      <point x="39" y="328" type="line"/>
    </contour>
  </outline>
</glyph>
<glyph name="quoteleft" format="1">
  <advance width="210"/>
  <unicode hex="2018"/>
  <outline>
    <contour>
      <point x="142" y="647"/>
      <point x="155" y="713"/>
      <point x="175" y="778" type="curve"/>
      <point x="134" y="806" type="line"/>
      <point x="73" y="757"/>
      <point x="29" y="658"/>
      <point x="33" y="573" type="curve"/>
      <point x="65" y="535"/>
      <point x="133" y="542"/>
      <point x="153" y="553" type="curve"/>
    </contour>
  </outline>
</glyph>
<glyph name="bullet" format="1">
	<unicode hex="2022"/>
	<advance width="304"/>
	<outline>
		<contour>
			<point x="190" y="246"/>
			<point x="234" y="289"/>
			<point x="234" y="342" type="curve" smooth="yes"/>
			<point x="234" y="395"/>
			<point x="190" y="438"/>
			<point x="138" y="438" type="curve" smooth="yes"/>
			<point x="85" y="438"/>
			<point x="42" y="395"/>
			<point x="42" y="342" type="curve" smooth="yes"/>
			<point x="42" y="289"/>
			<point x="85" y="246"/>
			<point x="138" y="246" type="curve" smooth="yes"/>
		</contour>
	</outline>
</glyph>
<glyph name="dottedCircle" format="1">
	<unicode hex="25CC"/>
	<advance width="743"/>
	<outline>
		<contour>
			<point x="383" y="489" type="curve" smooth="yes"/>
			<point x="384" y="498"/>
			<point x="387" y="505"/>
			<point x="393" y="512" type="curve" smooth="yes"/>
			<point x="399" y="518"/>
			<point x="407" y="521"/>
			<point x="417" y="521" type="curve" smooth="yes"/>
			<point x="426" y="521"/>
			<point x="433" y="518"/>
			<point x="438" y="512" type="curve" smooth="yes"/>
			<point x="443" y="505"/>
			<point x="446" y="498"/>
			<point x="445" y="489" type="curve" smooth="yes"/>
			<point x="444" y="480"/>
			<point x="440" y="472"/>
			<point x="434" y="467" type="curve" smooth="yes"/>
			<point x="428" y="462"/>
			<point x="420" y="459"/>
			<point x="411" y="459" type="curve" smooth="yes"/>
			<point x="402" y="459"/>
			<point x="395" y="462"/>
			<point x="389" y="468" type="curve" smooth="yes"/>
			<point x="384" y="473"/>
			<point x="382" y="480"/>
		</contour>
		<contour>
			<point x="286" y="473" type="curve" smooth="yes"/>
			<point x="287" y="482"/>
			<point x="291" y="490"/>
			<point x="298" y="496" type="curve" smooth="yes"/>
			<point x="306" y="501"/>
			<point x="313" y="504"/>
			<point x="321" y="504" type="curve" smooth="yes"/>
			<point x="330" y="504"/>
			<point x="338" y="501"/>
			<point x="343" y="495" type="curve" smooth="yes"/>
			<point x="348" y="489"/>
			<point x="350" y="482"/>
			<point x="349" y="473" type="curve" smooth="yes"/>
			<point x="349" y="464"/>
			<point x="345" y="456"/>
			<point x="339" y="450" type="curve" smooth="yes"/>
			<point x="333" y="444"/>
			<point x="325" y="441"/>
			<point x="316" y="441" type="curve" smooth="yes"/>
			<point x="307" y="441"/>
			<point x="300" y="444"/>
			<point x="294" y="450" type="curve" smooth="yes"/>
			<point x="288" y="456"/>
			<point x="286" y="464"/>
		</contour>
		<contour>
			<point x="478" y="473" type="curve" smooth="yes"/>
			<point x="479" y="482"/>
			<point x="483" y="490"/>
			<point x="488" y="496" type="curve" smooth="yes"/>
			<point x="494" y="501"/>
			<point x="502" y="504"/>
			<point x="511" y="504" type="curve" smooth="yes"/>
			<point x="521" y="504"/>
			<point x="529" y="501"/>
			<point x="534" y="496" type="curve" smooth="yes"/>
			<point x="539" y="490"/>
			<point x="541" y="482"/>
			<point x="540" y="473" type="curve" smooth="yes"/>
			<point x="540" y="464"/>
			<point x="536" y="456"/>
			<point x="529" y="450" type="curve" smooth="yes"/>
			<point x="523" y="444"/>
			<point x="515" y="441"/>
			<point x="506" y="441" type="curve" smooth="yes"/>
			<point x="496" y="441"/>
			<point x="489" y="444"/>
			<point x="484" y="450" type="curve" smooth="yes"/>
			<point x="480" y="456"/>
			<point x="478" y="464"/>
		</contour>
		<contour>
			<point x="200" y="419" type="curve" smooth="yes"/>
			<point x="200" y="428"/>
			<point x="204" y="436"/>
			<point x="211" y="442" type="curve" smooth="yes"/>
			<point x="218" y="448"/>
			<point x="226" y="451"/>
			<point x="234" y="451" type="curve" smooth="yes"/>
			<point x="244" y="451"/>
			<point x="251" y="448"/>
			<point x="256" y="443" type="curve" smooth="yes"/>
			<point x="261" y="437"/>
			<point x="264" y="429"/>
			<point x="263" y="419" type="curve" smooth="yes"/>
			<point x="262" y="409"/>
			<point x="258" y="401"/>
			<point x="252" y="396" type="curve" smooth="yes"/>
			<point x="246" y="391"/>
			<point x="238" y="388"/>
			<point x="229" y="388" type="curve" smooth="yes"/>
			<point x="220" y="388"/>
			<point x="212" y="391"/>
			<point x="207" y="397" type="curve" smooth="yes"/>
			<point x="201" y="402"/>
			<point x="199" y="410"/>
		</contour>
		<contour>
			<point x="555" y="419" type="curve" smooth="yes"/>
			<point x="556" y="429"/>
			<point x="559" y="437"/>
			<point x="565" y="443" type="curve" smooth="yes"/>
			<point x="571" y="448"/>
			<point x="579" y="451"/>
			<point x="587" y="451" type="curve" smooth="yes"/>
			<point x="597" y="451"/>
			<point x="605" y="448"/>
			<point x="611" y="442" type="curve" smooth="yes"/>
			<point x="616" y="436"/>
			<point x="618" y="428"/>
			<point x="618" y="419" type="curve" smooth="yes"/>
			<point x="617" y="410"/>
			<point x="613" y="402"/>
			<point x="606" y="397" type="curve" smooth="yes"/>
			<point x="599" y="391"/>
			<point x="591" y="388"/>
			<point x="582" y="388" type="curve" smooth="yes"/>
			<point x="573" y="388"/>
			<point x="566" y="391"/>
			<point x="561" y="396" type="curve" smooth="yes"/>
			<point x="556" y="401"/>
			<point x="554" y="409"/>
		</contour>
		<contour>
			<point x="142" y="335" type="curve" smooth="yes"/>
			<point x="143" y="344"/>
			<point x="147" y="352"/>
			<point x="153" y="358" type="curve" smooth="yes"/>
			<point x="160" y="363"/>
			<point x="168" y="366"/>
			<point x="177" y="366" type="curve" smooth="yes"/>
			<point x="187" y="366"/>
			<point x="194" y="363"/>
			<point x="199" y="358" type="curve" smooth="yes"/>
			<point x="203" y="352"/>
			<point x="205" y="344"/>
			<point x="204" y="335" type="curve" smooth="yes"/>
			<point x="203" y="326"/>
			<point x="200" y="318"/>
			<point x="194" y="313" type="curve" smooth="yes"/>
			<point x="189" y="307"/>
			<point x="181" y="304"/>
			<point x="172" y="304" type="curve" smooth="yes"/>
			<point x="162" y="304"/>
			<point x="155" y="307"/>
			<point x="149" y="313" type="curve" smooth="yes"/>
			<point x="144" y="318"/>
			<point x="141" y="326"/>
		</contour>
		<contour>
			<point x="598" y="335" type="curve" smooth="yes"/>
			<point x="599" y="344"/>
			<point x="603" y="352"/>
			<point x="609" y="358" type="curve" smooth="yes"/>
			<point x="615" y="363"/>
			<point x="623" y="366"/>
			<point x="632" y="366" type="curve" smooth="yes"/>
			<point x="641" y="366"/>
			<point x="649" y="363"/>
			<point x="654" y="358" type="curve" smooth="yes"/>
			<point x="659" y="352"/>
			<point x="661" y="344"/>
			<point x="660" y="335" type="curve" smooth="yes"/>
			<point x="659" y="326"/>
			<point x="656" y="318"/>
			<point x="649" y="313" type="curve" smooth="yes"/>
			<point x="643" y="307"/>
			<point x="635" y="304"/>
			<point x="627" y="304" type="curve" smooth="yes"/>
			<point x="617" y="304"/>
			<point x="610" y="307"/>
			<point x="605" y="313" type="curve" smooth="yes"/>
			<point x="600" y="318"/>
			<point x="597" y="326"/>
		</contour>
		<contour>
			<point x="119" y="243" type="curve" smooth="yes"/>
			<point x="120" y="252"/>
			<point x="124" y="260"/>
			<point x="130" y="266" type="curve" smooth="yes"/>
			<point x="137" y="272"/>
			<point x="144" y="275"/>
			<point x="153" y="275" type="curve" smooth="yes"/>
			<point x="162" y="275"/>
			<point x="170" y="272"/>
			<point x="175" y="266" type="curve" smooth="yes"/>
			<point x="180" y="260"/>
			<point x="182" y="252"/>
			<point x="181" y="243" type="curve" smooth="yes"/>
			<point x="180" y="234"/>
			<point x="177" y="226"/>
			<point x="171" y="221" type="curve" smooth="yes"/>
			<point x="165" y="216"/>
			<point x="157" y="213"/>
			<point x="148" y="213" type="curve" smooth="yes"/>
			<point x="139" y="213"/>
			<point x="132" y="216"/>
			<point x="126" y="221" type="curve" smooth="yes"/>
			<point x="121" y="226"/>
			<point x="118" y="234"/>
		</contour>
		<contour>
			<point x="605" y="243" type="curve" smooth="yes"/>
			<point x="606" y="252"/>
			<point x="610" y="260"/>
			<point x="616" y="266" type="curve" smooth="yes"/>
			<point x="622" y="272"/>
			<point x="629" y="275"/>
			<point x="638" y="275" type="curve" smooth="yes"/>
			<point x="648" y="275"/>
			<point x="656" y="272"/>
			<point x="661" y="266" type="curve" smooth="yes"/>
			<point x="666" y="260"/>
			<point x="668" y="252"/>
			<point x="667" y="243" type="curve" smooth="yes"/>
			<point x="666" y="234"/>
			<point x="663" y="226"/>
			<point x="657" y="221" type="curve" smooth="yes"/>
			<point x="651" y="216"/>
			<point x="643" y="213"/>
			<point x="633" y="213" type="curve" smooth="yes"/>
			<point x="623" y="213"/>
			<point x="616" y="216"/>
			<point x="611" y="221" type="curve" smooth="yes"/>
			<point x="606" y="226"/>
			<point x="604" y="234"/>
		</contour>
		<contour>
			<point x="126" y="153" type="curve" smooth="yes"/>
			<point x="127" y="162"/>
			<point x="131" y="170"/>
			<point x="137" y="177" type="curve" smooth="yes"/>
			<point x="144" y="183"/>
			<point x="152" y="186"/>
			<point x="161" y="186" type="curve" smooth="yes"/>
			<point x="171" y="186"/>
			<point x="178" y="183"/>
			<point x="183" y="177" type="curve" smooth="yes"/>
			<point x="187" y="170"/>
			<point x="189" y="162"/>
			<point x="188" y="153" type="curve" smooth="yes"/>
			<point x="188" y="144"/>
			<point x="184" y="137"/>
			<point x="179" y="132" type="curve" smooth="yes"/>
			<point x="173" y="126"/>
			<point x="165" y="123"/>
			<point x="156" y="123" type="curve" smooth="yes"/>
			<point x="146" y="123"/>
			<point x="139" y="126"/>
			<point x="134" y="132" type="curve" smooth="yes"/>
			<point x="128" y="137"/>
			<point x="126" y="144"/>
		</contour>
		<contour>
			<point x="582" y="153" type="curve" smooth="yes"/>
			<point x="583" y="162"/>
			<point x="587" y="170"/>
			<point x="593" y="177" type="curve" smooth="yes"/>
			<point x="599" y="183"/>
			<point x="607" y="186"/>
			<point x="616" y="186" type="curve" smooth="yes"/>
			<point x="626" y="186"/>
			<point x="633" y="183"/>
			<point x="638" y="177" type="curve" smooth="yes"/>
			<point x="643" y="170"/>
			<point x="645" y="162"/>
			<point x="644" y="153" type="curve" smooth="yes"/>
			<point x="644" y="144"/>
			<point x="640" y="137"/>
			<point x="634" y="132" type="curve" smooth="yes"/>
			<point x="627" y="126"/>
			<point x="619" y="123"/>
			<point x="611" y="123" type="curve" smooth="yes"/>
			<point x="601" y="123"/>
			<point x="594" y="126"/>
			<point x="589" y="132" type="curve" smooth="yes"/>
			<point x="584" y="138"/>
			<point x="582" y="145"/>
		</contour>
		<contour>
			<point x="169" y="68" type="curve" smooth="yes"/>
			<point x="170" y="77"/>
			<point x="173" y="85"/>
			<point x="180" y="92" type="curve" smooth="yes"/>
			<point x="187" y="98"/>
			<point x="194" y="101"/>
			<point x="203" y="101" type="curve" smooth="yes"/>
			<point x="212" y="101"/>
			<point x="219" y="98"/>
			<point x="225" y="92" type="curve" smooth="yes"/>
			<point x="230" y="85"/>
			<point x="232" y="77"/>
			<point x="231" y="68" type="curve" smooth="yes"/>
			<point x="230" y="59"/>
			<point x="227" y="51"/>
			<point x="220" y="46" type="curve" smooth="yes"/>
			<point x="214" y="40"/>
			<point x="207" y="37"/>
			<point x="197" y="37" type="curve" smooth="yes"/>
			<point x="188" y="37"/>
			<point x="181" y="40"/>
			<point x="175" y="46" type="curve" smooth="yes"/>
			<point x="170" y="51"/>
			<point x="168" y="59"/>
		</contour>
		<contour>
			<point x="526" y="68" type="curve" smooth="yes"/>
			<point x="527" y="77"/>
			<point x="530" y="85"/>
			<point x="536" y="92" type="curve" smooth="yes"/>
			<point x="542" y="98"/>
			<point x="550" y="101"/>
			<point x="559" y="101" type="curve" smooth="yes"/>
			<point x="568" y="101"/>
			<point x="575" y="98"/>
			<point x="581" y="92" type="curve" smooth="yes"/>
			<point x="586" y="85"/>
			<point x="588" y="77"/>
			<point x="587" y="68" type="curve" smooth="yes"/>
			<point x="586" y="59"/>
			<point x="582" y="51"/>
			<point x="576" y="46" type="curve" smooth="yes"/>
			<point x="569" y="40"/>
			<point x="562" y="37"/>
			<point x="553" y="37" type="curve" smooth="yes"/>
			<point x="544" y="37"/>
			<point x="537" y="40"/>
			<point x="532" y="46" type="curve" smooth="yes"/>
			<point x="527" y="52"/>
			<point x="525" y="59"/>
		</contour>
		<contour>
			<point x="246" y="16" type="curve" smooth="yes"/>
			<point x="247" y="26"/>
			<point x="251" y="34"/>
			<point x="258" y="40" type="curve" smooth="yes"/>
			<point x="266" y="45"/>
			<point x="273" y="48"/>
			<point x="281" y="48" type="curve" smooth="yes"/>
			<point x="291" y="48"/>
			<point x="298" y="45"/>
			<point x="303" y="39" type="curve" smooth="yes"/>
			<point x="308" y="33"/>
			<point x="310" y="25"/>
			<point x="309" y="16" type="curve" smooth="yes"/>
			<point x="309" y="7"/>
			<point x="305" y="0"/>
			<point x="299" y="-6" type="curve" smooth="yes"/>
			<point x="293" y="-12"/>
			<point x="285" y="-15"/>
			<point x="276" y="-15" type="curve" smooth="yes"/>
			<point x="267" y="-15"/>
			<point x="260" y="-12"/>
			<point x="254" y="-6" type="curve" smooth="yes"/>
			<point x="248" y="0"/>
			<point x="246" y="7"/>
		</contour>
		<contour>
			<point x="438" y="16" type="curve" smooth="yes"/>
			<point x="439" y="26"/>
			<point x="443" y="34"/>
			<point x="448" y="40" type="curve" smooth="yes"/>
			<point x="454" y="45"/>
			<point x="462" y="48"/>
			<point x="471" y="48" type="curve" smooth="yes"/>
			<point x="481" y="48"/>
			<point x="489" y="45"/>
			<point x="494" y="40" type="curve" smooth="yes"/>
			<point x="499" y="34"/>
			<point x="501" y="26"/>
			<point x="500" y="16" type="curve" smooth="yes"/>
			<point x="500" y="7"/>
			<point x="496" y="0"/>
			<point x="489" y="-6" type="curve" smooth="yes"/>
			<point x="483" y="-12"/>
			<point x="475" y="-15"/>
			<point x="466" y="-15" type="curve" smooth="yes"/>
			<point x="456" y="-15"/>
			<point x="449" y="-12"/>
			<point x="444" y="-6" type="curve" smooth="yes"/>
			<point x="440" y="0"/>
			<point x="438" y="7"/>
		</contour>
		<contour>
			<point x="340" y="-1" type="curve" smooth="yes"/>
			<point x="341" y="9"/>
			<point x="344" y="17"/>
			<point x="350" y="23" type="curve" smooth="yes"/>
			<point x="357" y="28"/>
			<point x="364" y="31"/>
			<point x="374" y="31" type="curve" smooth="yes"/>
			<point x="383" y="31"/>
			<point x="390" y="28"/>
			<point x="395" y="23" type="curve" smooth="yes"/>
			<point x="401" y="17"/>
			<point x="403" y="9"/>
			<point x="402" y="-1" type="curve" smooth="yes"/>
			<point x="401" y="-10"/>
			<point x="398" y="-18"/>
			<point x="391" y="-23" type="curve" smooth="yes"/>
			<point x="385" y="-28"/>
			<point x="378" y="-31"/>
			<point x="368" y="-31" type="curve" smooth="yes"/>
			<point x="359" y="-31"/>
			<point x="352" y="-28"/>
			<point x="346" y="-23" type="curve" smooth="yes"/>
			<point x="341" y="-18"/>
			<point x="339" y="-10"/>
		</contour>
	</outline>
</glyph>
<glyph name="zerowidthjoiner" format="1">
  <advance width="0"/>
  <unicode hex="FEFF"/>
  <outline>
    <contour>
      <point x="-20" y="10" type="line"/>
      <point x="60" y="928" type="line"/>
      <point x="102" y="928" type="line"/>
      <point x="22" y="10" type="line"/>
    </contour>
  </outline>
</glyph>
<glyph name="sinC.virama" format="1">
  <advance width="877"/>
  <outline>
    <contour>
      <point x="232" y="874" type="curve" smooth="yes"/>
      <point x="232" y="874"/>
      <point x="308" y="933"/>
      <point x="441" y="932" type="curve" smooth="yes"/>
      <point x="811" y="928"/>
      <point x="837" y="551"/>
      <point x="837" y="403" type="curve"/>
      <point x="822" y="413" type="line"/>
      <point x="822" y="413"/>
      <point x="812" y="836"/>
      <point x="438" y="855" type="curve" smooth="yes"/>
      <point x="400" y="857"/>
      <point x="379" y="855"/>
      <point x="379" y="862" type="curve"/>
      <point x="391" y="894" type="line"/>
      <point x="379" y="808"/>
      <point x="366" y="744"/>
      <point x="272" y="689" type="curve"/>
      <point x="263" y="695" type="line"/>
      <point x="341" y="786"/>
      <point x="342" y="867"/>
      <point x="348" y="900" type="curve"/>
      <point x="360" y="850" type="line"/>
      <point x="303" y="838"/>
      <point x="283" y="830"/>
      <point x="236" y="813" type="curve"/>
      <point x="228" y="821"/>
      <point x="226" y="843"/>
    </contour>
    <contour>
      <point x="133" y="178" type="curve" smooth="yes"/>
      <point x="141" y="327"/>
      <point x="306" y="381"/>
      <point x="419" y="381" type="curve" smooth="yes"/>
      <point x="427" y="381"/>
      <point x="441" y="381"/>
      <point x="449" y="383" type="curve"/>
      <point x="451" y="449"/>
      <point x="407" y="483"/>
      <point x="358" y="483" type="curve" smooth="yes"/>
      <point x="296" y="483"/>
      <point x="271" y="426"/>
      <point x="270" y="415" type="curve"/>
      <point x="219" y="409"/>
      <point x="192" y="434"/>
      <point x="194" y="469" type="curve" smooth="yes"/>
      <point x="197" y="525"/>
      <point x="253" y="558"/>
      <point x="311" y="558" type="curve" smooth="yes"/>
      <point x="447" y="558"/>
      <point x="503" y="445"/>
      <point x="498" y="353" type="curve" smooth="yes"/>
      <point x="497" y="340"/>
      <point x="496" y="328"/>
      <point x="493" y="316" type="curve"/>
      <point x="472" y="300" type="line"/>
      <point x="447" y="304"/>
      <point x="420" y="306"/>
      <point x="394" y="306" type="curve" smooth="yes"/>
      <point x="286" y="306"/>
      <point x="186" y="275"/>
      <point x="182" y="201" type="curve" smooth="yes"/>
      <point x="179" y="139"/>
      <point x="266" y="96"/>
      <point x="403" y="96" type="curve" smooth="yes"/>
      <point x="636" y="96"/>
      <point x="768" y="206"/>
      <point x="781" y="423" type="curve" smooth="yes"/>
      <point x="790" y="593"/>
      <point x="657" y="695"/>
      <point x="475" y="695" type="curve" smooth="yes"/>
      <point x="338" y="695"/>
      <point x="244" y="635"/>
      <point x="242" y="635" type="curve"/>
      <point x="232" y="647"/>
      <point x="255" y="689"/>
      <point x="272" y="704" type="curve"/>
      <point x="318" y="737"/>
      <point x="391" y="768"/>
      <point x="487" y="768" type="curve" smooth="yes"/>
      <point x="709" y="768"/>
      <point x="848" y="620"/>
      <point x="836" y="394" type="curve" smooth="yes"/>
      <point x="823" y="154"/>
      <point x="660" y="-17"/>
      <point x="418" y="-17" type="curve" smooth="yes"/>
      <point x="242" y="-17"/>
      <point x="126" y="54"/>
    </contour>
    <contour>
      <point x="44" y="265" type="line"/>
      <point x="60" y="350" type="line"/>
      <point x="140" y="371"/>
      <point x="337" y="385"/>
      <point x="450" y="384" type="curve"/>
      <point x="383" y="369" type="line"/>
      <point x="231" y="359"/>
      <point x="102" y="292"/>
      <point x="57" y="255" type="curve"/>
    </contour>
  </outline>
</glyph>
<glyph name="sinCU" format="1">
  <advance width="831"/>
  <outline>
    <component base="sinMatraU.alt" xOffset="97" yOffset="13"/>
    <component base="sinCa"/>
    <contour>
      <point x="22" y="169" type="move" name="_si_MaU"/>
    </contour>
  </outline>
</glyph>
<glyph name="sinChI" format="1">
	<advance width="785"/>
	<outline>
		<contour>
			<point x="372" y="654" type="curve" smooth="yes"/>
			<point x="372" y="798"/>
			<point x="487" y="875"/>
			<point x="596" y="875" type="curve" smooth="yes"/>
			<point x="727" y="875"/>
			<point x="764" y="802"/>
			<point x="770" y="790" type="curve" smooth="yes"/>
			<point x="778" y="774"/>
			<point x="785" y="749"/>
			<point x="785" y="741" type="curve"/>
			<point x="732" y="719" type="line"/>
			<point x="731" y="730"/>
			<point x="724" y="740"/>
			<point x="709" y="751" type="curve" smooth="yes"/>
			<point x="686" y="768"/>
			<point x="652" y="786"/>
			<point x="580" y="784" type="curve" smooth="yes"/>
			<point x="498" y="782"/>
			<point x="423" y="738"/>
			<point x="423" y="647" type="curve" smooth="yes"/>
			<point x="423" y="573"/>
			<point x="506" y="550"/>
			<point x="543" y="550" type="curve" smooth="yes"/>
			<point x="573" y="550"/>
			<point x="563" y="552"/>
			<point x="571" y="553" type="curve"/>
			<point x="561" y="523" type="line"/>
			<point x="544" y="512"/>
			<point x="531" y="507"/>
			<point x="515" y="507" type="curve" smooth="yes"/>
			<point x="437" y="507"/>
			<point x="372" y="562"/>
		</contour>
		<component base="sinCha"/>
	</outline>
</glyph>
<glyph name="sinChIi" format="1">
	<advance width="937"/>
	<outline>
		<contour>
			<point x="458" y="492"/>
			<point x="338" y="583"/>
			<point x="339" y="686" type="curve" smooth="yes"/>
			<point x="340" y="789"/>
			<point x="414" y="902"/>
			<point x="571" y="902" type="curve" smooth="yes"/>
			<point x="672" y="902"/>
			<point x="711" y="845"/>
			<point x="725" y="808" type="curve" smooth="yes"/>
			<point x="750" y="742"/>
			<point x="709" y="661"/>
			<point x="601" y="656" type="curve" smooth="yes"/>
			<point x="541" y="653"/>
			<point x="495" y="687"/>
			<point x="503" y="744" type="curve" smooth="yes"/>
			<point x="512" y="808"/>
			<point x="586" y="829"/>
			<point x="628" y="826" type="curve" smooth="yes"/>
			<point x="658" y="824"/>
			<point x="671" y="815"/>
			<point x="687" y="810" type="curve"/>
			<point x="677" y="797" type="line"/>
			<point x="677" y="797"/>
			<point x="566" y="810"/>
			<point x="563" y="739" type="curve" smooth="yes"/>
			<point x="562" y="711"/>
			<point x="586" y="698"/>
			<point x="607" y="698" type="curve" smooth="yes"/>
			<point x="648" y="698"/>
			<point x="677" y="731"/>
			<point x="675" y="760" type="curve" smooth="yes"/>
			<point x="671" y="812"/>
			<point x="591" y="822"/>
			<point x="537" y="819" type="curve" smooth="yes"/>
			<point x="478" y="816"/>
			<point x="410" y="766"/>
			<point x="410" y="673" type="curve" smooth="yes"/>
			<point x="410" y="579"/>
			<point x="508" y="553"/>
			<point x="570" y="553" type="curve"/>
			<point x="563" y="524" type="line"/>
		</contour>
		<component base="sinCha"/>
	</outline>
</glyph>
<glyph name="sinDDhUu" format="1">
  <advance width="894"/>
  <outline>
    <contour>
      <point x="-6" y="52"/>
      <point x="-51" y="134"/>
      <point x="-43" y="232" type="curve" smooth="yes"/>
      <point x="-25" y="449"/>
      <point x="157" y="525"/>
      <point x="385" y="502" type="curve" smooth="yes"/>
      <point x="415" y="499"/>
      <point x="423" y="498"/>
      <point x="440" y="495" type="curve"/>
      <point x="443" y="483" type="line"/>
      <point x="310" y="436" type="line"/>
      <point x="332" y="449" type="line"/>
      <point x="173" y="480"/>
      <point x="52" y="399"/>
      <point x="31" y="234" type="curve" smooth="yes"/>
      <point x="20" y="146"/>
      <point x="44" y="57"/>
      <point x="81" y="15" type="curve"/>
      <point x="75" y="11"/>
      <point x="61" y="6"/>
      <point x="37" y="6" type="curve"/>
    </contour>
    <component base="sinDha"/>
    <component base="sinMatraUu.alt" xOffset="773"/>
  </outline>
</glyph>
<glyph name="sinDV.virama" format="1">
  <advance width="980"/>
  <outline>
    <contour>
      <point x="66" y="182" type="curve" smooth="yes"/>
      <point x="84" y="399"/>
      <point x="233" y="529"/>
      <point x="407" y="529" type="curve" smooth="yes"/>
      <point x="437" y="529"/>
      <point x="486" y="506"/>
      <point x="503" y="496" type="curve"/>
      <point x="507" y="489" type="line"/>
      <point x="393" y="474" type="line"/>
      <point x="389" y="469" type="line"/>
      <point x="267" y="458"/>
      <point x="161" y="349"/>
      <point x="140" y="184" type="curve" smooth="yes"/>
      <point x="129" y="96"/>
      <point x="141" y="-3"/>
      <point x="178" y="-45" type="curve"/>
      <point x="172" y="-49"/>
      <point x="158" y="-54"/>
      <point x="134" y="-54" type="curve"/>
      <point x="91" y="-8"/>
      <point x="58" y="84"/>
    </contour>
    <component base="sinV.virama" xOffset="200"/>
  </outline>
</glyph>
<glyph name="sinDVa" format="1">
  <advance width="960"/>
  <outline>
    <contour>
      <point x="66" y="205" type="curve" smooth="yes"/>
      <point x="84" y="422"/>
      <point x="233" y="552"/>
      <point x="407" y="552" type="curve" smooth="yes"/>
      <point x="437" y="552"/>
      <point x="486" y="529"/>
      <point x="503" y="519" type="curve"/>
      <point x="507" y="512" type="line"/>
      <point x="393" y="497" type="line"/>
      <point x="389" y="492" type="line"/>
      <point x="267" y="481"/>
      <point x="161" y="372"/>
      <point x="140" y="207" type="curve" smooth="yes"/>
      <point x="129" y="119"/>
      <point x="141" y="20"/>
      <point x="178" y="-22" type="curve"/>
      <point x="172" y="-26"/>
      <point x="158" y="-31"/>
      <point x="134" y="-31" type="curve"/>
      <point x="91" y="15"/>
      <point x="58" y="107"/>
    </contour>
    <component base="sinVa" xOffset="170"/>
  </outline>
</glyph>
<glyph name="sinDdU" format="1">
  <advance width="877"/>
  <outline>
    <contour>
      <point x="106" y="-228" type="curve" smooth="yes"/>
      <point x="107" y="-168"/>
      <point x="149" y="-114"/>
      <point x="229" y="-114" type="curve" smooth="yes"/>
      <point x="275" y="-114"/>
      <point x="322" y="-144"/>
      <point x="322" y="-144" type="curve"/>
      <point x="317" y="-169" type="line"/>
      <point x="236" y="-149"/>
      <point x="192" y="-195"/>
      <point x="192" y="-238" type="curve" smooth="yes"/>
      <point x="192" y="-273"/>
      <point x="230" y="-300"/>
      <point x="281" y="-298" type="curve"/>
      <point x="724" y="-266" type="line"/>
      <point x="747" y="209" type="line"/>
      <point x="793" y="209" type="line"/>
      <point x="792" y="-359" type="line"/>
      <point x="280" y="-359" type="line" smooth="yes"/>
      <point x="148" y="-359"/>
      <point x="105" y="-283"/>
    </contour>
    <component base="sinDda" xOffset="-19"/>
  </outline>
</glyph>
<glyph name="sinDdhI" format="1">
	<advance width="896"/>
	<outline>
		<contour>
			<point x="229" y="788" type="curve" smooth="yes"/>
			<point x="229" y="904"/>
			<point x="348" y="981"/>
			<point x="536" y="981" type="curve" smooth="yes"/>
			<point x="698" y="981"/>
			<point x="767" y="886"/>
			<point x="767" y="816" type="curve" smooth="yes"/>
			<point x="767" y="739"/>
			<point x="701" y="667"/>
			<point x="638" y="667" type="curve"/>
			<point x="586" y="703" type="line"/>
			<point x="586" y="703"/>
			<point x="697" y="708"/>
			<point x="697" y="774" type="curve" smooth="yes"/>
			<point x="697" y="852"/>
			<point x="562" y="904"/>
			<point x="423" y="893" type="curve" smooth="yes"/>
			<point x="304" y="884"/>
			<point x="267" y="828"/>
			<point x="267" y="796" type="curve" smooth="yes"/>
			<point x="267" y="706"/>
			<point x="384" y="700"/>
			<point x="400" y="700" type="curve"/>
			<point x="415" y="643" type="line"/>
			<point x="307" y="654"/>
			<point x="229" y="711"/>
		</contour>
		<component base="sinDdha"/>
	</outline>
</glyph>
<glyph name="sinDdhU" format="1">
  <advance width="896"/>
  <outline>
    <contour>
      <point x="105" y="-242" type="curve" smooth="yes"/>
      <point x="106" y="-192"/>
      <point x="147" y="-124"/>
      <point x="227" y="-124" type="curve" smooth="yes"/>
      <point x="273" y="-124"/>
      <point x="312" y="-154"/>
      <point x="312" y="-154" type="curve"/>
      <point x="307" y="-179" type="line"/>
      <point x="226" y="-159"/>
      <point x="176" y="-201"/>
      <point x="176" y="-238" type="curve" smooth="yes"/>
      <point x="176" y="-273"/>
      <point x="200" y="-300"/>
      <point x="251" y="-298" type="curve"/>
      <point x="714" y="-266" type="line"/>
      <point x="757" y="159" type="line"/>
      <point x="794" y="159" type="line"/>
      <point x="773" y="-359" type="line"/>
      <point x="270" y="-359" type="line" smooth="yes"/>
      <point x="138" y="-359"/>
      <point x="104" y="-297"/>
    </contour>
    <component base="sinDdha"/>
  </outline>
</glyph>
<glyph name="sinDdhUu" format="1">
	<advance width="896"/>
	<outline>
		<contour>
			<point x="99" y="-258" type="curve" smooth="yes"/>
			<point x="101" y="-178"/>
			<point x="174" y="-114"/>
			<point x="234" y="-106" type="curve"/>
			<point x="257" y="-151" type="line"/>
			<point x="209" y="-165"/>
			<point x="188" y="-198"/>
			<point x="187" y="-222" type="curve" smooth="yes"/>
			<point x="185" y="-262"/>
			<point x="214" y="-280"/>
			<point x="263" y="-279" type="curve" smooth="yes"/>
			<point x="337" y="-277"/>
			<point x="447" y="-230"/>
			<point x="518" y="-226" type="curve" smooth="yes"/>
			<point x="581" y="-222"/>
			<point x="690" y="-239"/>
			<point x="732" y="-268" type="curve"/>
			<point x="764" y="209" type="line"/>
			<point x="831" y="209" type="line"/>
			<point x="788" y="-369" type="line"/>
			<point x="719" y="-337"/>
			<point x="615" y="-296"/>
			<point x="508" y="-299" type="curve" smooth="yes"/>
			<point x="443" y="-301"/>
			<point x="321" y="-364"/>
			<point x="226" y="-364" type="curve" smooth="yes"/>
			<point x="126" y="-364"/>
			<point x="98" y="-309"/>
		</contour>
		<component base="sinDdha"/>
	</outline>
</glyph>
<glyph name="sinDhI" format="1">
  <advance width="852"/>
  <outline>
    <contour>
      <point x="787" y="159"/>
      <point x="697" y="-24"/>
      <point x="548" y="-24" type="curve" smooth="yes"/>
      <point x="424" y="-24"/>
      <point x="386" y="77"/>
      <point x="398" y="140" type="curve"/>
      <point x="396" y="138"/>
      <point x="421" y="133"/>
      <point x="419" y="132" type="curve"/>
      <point x="414" y="73"/>
      <point x="368" y="-19"/>
      <point x="252" y="-19" type="curve" smooth="yes"/>
      <point x="112" y="-19"/>
      <point x="63" y="98"/>
      <point x="65" y="207" type="curve" smooth="yes"/>
      <point x="68" y="407"/>
      <point x="279" y="502"/>
      <point x="406" y="496" type="curve"/>
      <point x="422" y="465"/>
      <point x="423" y="439"/>
      <point x="425" y="403" type="curve"/>
      <point x="350" y="416"/>
      <point x="128" y="370"/>
      <point x="120" y="247" type="curve" smooth="yes"/>
      <point x="116" y="179"/>
      <point x="161" y="108"/>
      <point x="251" y="105" type="curve" smooth="yes"/>
      <point x="341" y="103"/>
      <point x="386" y="144"/>
      <point x="409" y="222" type="curve"/>
      <point x="435" y="228" type="line"/>
      <point x="424" y="146"/>
      <point x="482" y="102"/>
      <point x="547" y="103" type="curve" smooth="yes"/>
      <point x="664" y="104"/>
      <point x="726" y="251"/>
      <point x="725" y="353" type="curve" smooth="yes"/>
      <point x="723" y="510"/>
      <point x="636" y="582"/>
      <point x="509" y="590" type="curve" smooth="yes"/>
      <point x="431" y="595"/>
      <point x="368" y="570"/>
      <point x="312" y="569" type="curve" smooth="yes"/>
      <point x="226" y="568"/>
      <point x="201" y="633"/>
      <point x="204" y="684" type="curve" smooth="yes"/>
      <point x="212" y="802"/>
      <point x="340" y="884"/>
      <point x="501" y="887" type="curve" smooth="yes"/>
      <point x="645" y="889"/>
      <point x="762" y="812"/>
      <point x="760" y="709" type="curve" smooth="yes"/>
      <point x="759" y="647"/>
      <point x="696" y="573"/>
      <point x="597" y="589" type="curve"/>
      <point x="594" y="641" type="line"/>
      <point x="648" y="626"/>
      <point x="716" y="656"/>
      <point x="717" y="698" type="curve" smooth="yes"/>
      <point x="719" y="758"/>
      <point x="601" y="803"/>
      <point x="470" y="803" type="curve" smooth="yes"/>
      <point x="354" y="803"/>
      <point x="260" y="765"/>
      <point x="256" y="708" type="curve" smooth="yes"/>
      <point x="254" y="678"/>
      <point x="271" y="648"/>
      <point x="333" y="655" type="curve" smooth="yes"/>
      <point x="367" y="659"/>
      <point x="418" y="669"/>
      <point x="488" y="666" type="curve" smooth="yes"/>
      <point x="670" y="658"/>
      <point x="787" y="540"/>
      <point x="787" y="333" type="curve" smooth="yes"/>
    </contour>
  </outline>
</glyph>
<glyph name="sinDhU" format="1">
	<advance width="894"/>
	<outline>
		<contour>
			<point x="95" y="-242" type="curve" smooth="yes"/>
			<point x="96" y="-192"/>
			<point x="137" y="-124"/>
			<point x="217" y="-124" type="curve" smooth="yes"/>
			<point x="263" y="-124"/>
			<point x="302" y="-154"/>
			<point x="302" y="-154" type="curve"/>
			<point x="297" y="-179" type="line"/>
			<point x="216" y="-159"/>
			<point x="166" y="-201"/>
			<point x="166" y="-238" type="curve" smooth="yes"/>
			<point x="166" y="-273"/>
			<point x="190" y="-300"/>
			<point x="241" y="-298" type="curve"/>
			<point x="704" y="-266" type="line"/>
			<point x="747" y="159" type="line"/>
			<point x="784" y="159" type="line"/>
			<point x="763" y="-359" type="line"/>
			<point x="260" y="-359" type="line" smooth="yes"/>
			<point x="128" y="-359"/>
			<point x="94" y="-297"/>
		</contour>
		<component base="sinDha"/>
	</outline>
</glyph>
<glyph name="sinDhUu" format="1">
	<advance width="894"/>
	<outline>
		<contour>
			<point x="69" y="-258" type="curve" smooth="yes"/>
			<point x="71" y="-178"/>
			<point x="144" y="-114"/>
			<point x="204" y="-106" type="curve"/>
			<point x="227" y="-151" type="line"/>
			<point x="179" y="-165"/>
			<point x="158" y="-198"/>
			<point x="157" y="-222" type="curve" smooth="yes"/>
			<point x="155" y="-262"/>
			<point x="184" y="-280"/>
			<point x="233" y="-279" type="curve" smooth="yes"/>
			<point x="307" y="-277"/>
			<point x="417" y="-231"/>
			<point x="488" y="-226" type="curve" smooth="yes"/>
			<point x="551" y="-222"/>
			<point x="660" y="-239"/>
			<point x="702" y="-268" type="curve"/>
			<point x="734" y="209" type="line"/>
			<point x="801" y="209" type="line"/>
			<point x="758" y="-369" type="line"/>
			<point x="689" y="-337"/>
			<point x="585" y="-296"/>
			<point x="478" y="-299" type="curve" smooth="yes"/>
			<point x="413" y="-301"/>
			<point x="291" y="-364"/>
			<point x="196" y="-364" type="curve" smooth="yes"/>
			<point x="96" y="-364"/>
			<point x="68" y="-309"/>
		</contour>
		<component base="sinDha"/>
	</outline>
</glyph>
<glyph name="sinGU" format="1">
  <advance width="959"/>
  <outline>
    <contour>
      <point x="54" y="222" type="curve" smooth="yes"/>
      <point x="54" y="429"/>
      <point x="210" y="536"/>
      <point x="337" y="538" type="curve"/>
      <point x="337" y="463" type="line"/>
      <point x="242" y="463"/>
      <point x="112" y="415"/>
      <point x="112" y="244" type="curve" smooth="yes"/>
      <point x="112" y="125"/>
      <point x="185" y="47"/>
      <point x="318" y="47" type="curve" smooth="yes"/>
      <point x="419" y="47"/>
      <point x="488" y="91"/>
      <point x="488" y="163" type="curve" smooth="yes"/>
      <point x="488" y="202"/>
      <point x="461" y="237"/>
      <point x="389" y="237" type="curve"/>
      <point x="440" y="291" type="line"/>
      <point x="489" y="290"/>
      <point x="552" y="244"/>
      <point x="552" y="159" type="curve" smooth="yes"/>
      <point x="552" y="47"/>
      <point x="474" y="-55"/>
      <point x="309" y="-55" type="curve" smooth="yes"/>
      <point x="141" y="-55"/>
      <point x="54" y="62"/>
    </contour>
    <contour>
      <point x="391" y="239" type="line"/>
      <point x="391" y="432"/>
      <point x="518" y="543"/>
      <point x="656" y="543" type="curve" smooth="yes"/>
      <point x="828" y="543"/>
      <point x="921" y="412"/>
      <point x="921" y="267" type="curve" smooth="yes"/>
      <point x="921" y="105"/>
      <point x="851" y="-46"/>
      <point x="679" y="-46" type="curve" smooth="yes"/>
      <point x="674" y="-46"/>
      <point x="669" y="-46"/>
      <point x="664" y="-46" type="curve"/>
      <point x="664" y="9" type="line"/>
      <point x="669" y="9"/>
      <point x="675" y="8"/>
      <point x="680" y="8" type="curve" smooth="yes"/>
      <point x="803" y="8"/>
      <point x="857" y="113"/>
      <point x="857" y="230" type="curve" smooth="yes"/>
      <point x="857" y="354"/>
      <point x="776" y="446"/>
      <point x="637" y="446" type="curve" smooth="yes"/>
      <point x="556" y="446"/>
      <point x="445" y="398"/>
      <point x="439" y="255" type="curve"/>
    </contour>
    <component base="sinMatraU.alt1" xOffset="665" yOffset="1"/>
  </outline>
</glyph>
<glyph name="sinGhU" format="1">
	<advance width="905"/>
	<outline>
		<contour>
			<point x="105" y="-242" type="curve" smooth="yes"/>
			<point x="106" y="-192"/>
			<point x="147" y="-124"/>
			<point x="227" y="-124" type="curve" smooth="yes"/>
			<point x="273" y="-124"/>
			<point x="312" y="-154"/>
			<point x="312" y="-154" type="curve"/>
			<point x="307" y="-179" type="line"/>
			<point x="226" y="-159"/>
			<point x="176" y="-201"/>
			<point x="176" y="-238" type="curve" smooth="yes"/>
			<point x="176" y="-273"/>
			<point x="200" y="-300"/>
			<point x="251" y="-298" type="curve"/>
			<point x="734" y="-266" type="line"/>
			<point x="777" y="139" type="line"/>
			<point x="814" y="139" type="line"/>
			<point x="793" y="-359" type="line"/>
			<point x="270" y="-359" type="line" smooth="yes"/>
			<point x="138" y="-359"/>
			<point x="104" y="-297"/>
		</contour>
		<component base="sinGha"/>
	</outline>
</glyph>
<glyph name="sinGhUu" format="1">
  <advance width="905"/>
  <outline>
    <contour>
      <point x="824" y="-341" type="line"/>
      <point x="774" y="-357" type="line"/>
      <point x="733" y="-331"/>
      <point x="650" y="-303"/>
      <point x="590" y="-301" type="curve" smooth="yes"/>
      <point x="466" y="-297"/>
      <point x="368" y="-363"/>
      <point x="237" y="-363" type="curve" smooth="yes"/>
      <point x="128" y="-363"/>
      <point x="94" y="-302"/>
      <point x="95" y="-248" type="curve" smooth="yes"/>
      <point x="96" y="-200"/>
      <point x="139" y="-135"/>
      <point x="224" y="-135" type="curve" smooth="yes"/>
      <point x="265" y="-135"/>
      <point x="299" y="-155"/>
      <point x="299" y="-155" type="curve"/>
      <point x="294" y="-180" type="line"/>
      <point x="216" y="-155"/>
      <point x="168" y="-208"/>
      <point x="168" y="-254" type="curve" smooth="yes"/>
      <point x="168" y="-287"/>
      <point x="193" y="-310"/>
      <point x="238" y="-310" type="curve" smooth="yes"/>
      <point x="359" y="-310"/>
      <point x="460" y="-218"/>
      <point x="586" y="-218" type="curve" smooth="yes"/>
      <point x="637" y="-218"/>
      <point x="731" y="-235"/>
      <point x="760" y="-249" type="curve"/>
      <point x="783" y="159" type="line"/>
      <point x="834" y="189" type="line"/>
    </contour>
    <component base="sinGha"/>
  </outline>
</glyph>
<glyph name="sinHU" format="1">
	<advance width="1018"/>
	<outline>
		<contour>
			<point x="172" y="-233" type="curve" smooth="yes"/>
			<point x="173" y="-163"/>
			<point x="224" y="-116"/>
			<point x="304" y="-116" type="curve" smooth="yes"/>
			<point x="360" y="-116"/>
			<point x="389" y="-146"/>
			<point x="389" y="-146" type="curve"/>
			<point x="384" y="-171" type="line"/>
			<point x="303" y="-151"/>
			<point x="253" y="-193"/>
			<point x="253" y="-230" type="curve" smooth="yes"/>
			<point x="253" y="-265"/>
			<point x="277" y="-292"/>
			<point x="328" y="-290" type="curve"/>
			<point x="528" y="-289"/>
			<point x="704" y="-282"/>
			<point x="921" y="-262" type="curve"/>
			<point x="941" y="236" type="line"/>
			<point x="978" y="236" type="line"/>
			<point x="970" y="-356" type="line"/>
			<point x="347" y="-351" type="line" smooth="yes"/>
			<point x="215" y="-351"/>
			<point x="171" y="-288"/>
		</contour>
		<component base="sinHa"/>
	</outline>
</glyph>
<glyph name="sinJ.virama" format="1">
  <advance width="787"/>
  <outline>
    <contour>
      <point x="520" y="871" type="line" smooth="yes"/>
      <point x="520" y="834"/>
      <point x="552" y="807"/>
      <point x="593" y="800" type="curve" smooth="yes"/>
      <point x="620" y="794"/>
      <point x="646" y="805"/>
      <point x="645" y="839" type="curve" smooth="yes"/>
      <point x="643" y="891"/>
      <point x="565" y="908"/>
      <point x="520" y="914" type="curve"/>
    </contour>
    <contour>
      <point x="477" y="458" type="line"/>
      <point x="486" y="985" type="line"/>
      <point x="500" y="998" type="line"/>
      <point x="531" y="992"/>
      <point x="665" y="956"/>
      <point x="685" y="847" type="curve" smooth="yes"/>
      <point x="695" y="783"/>
      <point x="675" y="723"/>
      <point x="601" y="721" type="curve" smooth="yes"/>
      <point x="560" y="720"/>
      <point x="531" y="746"/>
      <point x="520" y="770" type="curve"/>
      <point x="520" y="458" type="line"/>
    </contour>
    <component base="sinJa"/>
  </outline>
</glyph>
<glyph name="sinJI" format="1">
	<advance width="787"/>
	<outline>
		<contour>
			<point x="362" y="654" type="curve" smooth="yes"/>
			<point x="362" y="798"/>
			<point x="477" y="875"/>
			<point x="586" y="875" type="curve" smooth="yes"/>
			<point x="717" y="875"/>
			<point x="754" y="802"/>
			<point x="760" y="790" type="curve" smooth="yes"/>
			<point x="768" y="774"/>
			<point x="775" y="749"/>
			<point x="775" y="741" type="curve"/>
			<point x="722" y="719" type="line"/>
			<point x="721" y="730"/>
			<point x="714" y="740"/>
			<point x="699" y="751" type="curve" smooth="yes"/>
			<point x="676" y="768"/>
			<point x="642" y="786"/>
			<point x="570" y="784" type="curve" smooth="yes"/>
			<point x="488" y="782"/>
			<point x="413" y="738"/>
			<point x="413" y="647" type="curve" smooth="yes"/>
			<point x="413" y="573"/>
			<point x="496" y="550"/>
			<point x="533" y="550" type="curve" smooth="yes"/>
			<point x="563" y="550"/>
			<point x="553" y="552"/>
			<point x="561" y="553" type="curve"/>
			<point x="551" y="523" type="line"/>
			<point x="534" y="512"/>
			<point x="521" y="507"/>
			<point x="505" y="507" type="curve" smooth="yes"/>
			<point x="427" y="507"/>
			<point x="362" y="562"/>
		</contour>
		<component base="sinJa"/>
	</outline>
</glyph>
<glyph name="sinJIi" format="1">
	<advance width="787"/>
	<outline>
		<contour>
			<point x="458" y="492"/>
			<point x="338" y="583"/>
			<point x="339" y="686" type="curve" smooth="yes"/>
			<point x="340" y="789"/>
			<point x="414" y="902"/>
			<point x="571" y="902" type="curve" smooth="yes"/>
			<point x="672" y="902"/>
			<point x="711" y="845"/>
			<point x="725" y="808" type="curve" smooth="yes"/>
			<point x="750" y="742"/>
			<point x="709" y="661"/>
			<point x="601" y="656" type="curve" smooth="yes"/>
			<point x="541" y="653"/>
			<point x="495" y="687"/>
			<point x="503" y="744" type="curve" smooth="yes"/>
			<point x="512" y="808"/>
			<point x="586" y="829"/>
			<point x="628" y="826" type="curve" smooth="yes"/>
			<point x="658" y="824"/>
			<point x="671" y="815"/>
			<point x="687" y="810" type="curve"/>
			<point x="677" y="797" type="line"/>
			<point x="677" y="797"/>
			<point x="566" y="810"/>
			<point x="563" y="739" type="curve" smooth="yes"/>
			<point x="562" y="711"/>
			<point x="586" y="698"/>
			<point x="607" y="698" type="curve" smooth="yes"/>
			<point x="648" y="698"/>
			<point x="677" y="731"/>
			<point x="675" y="760" type="curve" smooth="yes"/>
			<point x="671" y="812"/>
			<point x="591" y="822"/>
			<point x="537" y="819" type="curve" smooth="yes"/>
			<point x="478" y="816"/>
			<point x="410" y="766"/>
			<point x="410" y="673" type="curve" smooth="yes"/>
			<point x="410" y="579"/>
			<point x="508" y="553"/>
			<point x="570" y="553" type="curve"/>
			<point x="563" y="524" type="line"/>
		</contour>
		<component base="sinJa"/>
	</outline>
</glyph>
<glyph name="sinJhU" format="1">
	<advance width="1506"/>
	<outline>
		<contour>
			<point x="653" y="-242" type="curve" smooth="yes"/>
			<point x="654" y="-192"/>
			<point x="695" y="-124"/>
			<point x="775" y="-124" type="curve" smooth="yes"/>
			<point x="821" y="-124"/>
			<point x="860" y="-154"/>
			<point x="860" y="-154" type="curve"/>
			<point x="855" y="-179" type="line"/>
			<point x="774" y="-159"/>
			<point x="724" y="-201"/>
			<point x="724" y="-238" type="curve" smooth="yes"/>
			<point x="724" y="-273"/>
			<point x="748" y="-300"/>
			<point x="799" y="-298" type="curve"/>
			<point x="1262" y="-266" type="line"/>
			<point x="1305" y="159" type="line"/>
			<point x="1342" y="159" type="line"/>
			<point x="1321" y="-359" type="line"/>
			<point x="818" y="-359" type="line" smooth="yes"/>
			<point x="686" y="-359"/>
			<point x="652" y="-297"/>
		</contour>
		<component base="sinJha"/>
	</outline>
</glyph>
<glyph name="sinJhUu" format="1">
	<advance width="1506"/>
	<outline>
		<contour>
			<point x="632" y="-258" type="curve" smooth="yes"/>
			<point x="634" y="-178"/>
			<point x="707" y="-114"/>
			<point x="767" y="-106" type="curve"/>
			<point x="790" y="-151" type="line"/>
			<point x="742" y="-165"/>
			<point x="721" y="-198"/>
			<point x="720" y="-222" type="curve" smooth="yes"/>
			<point x="718" y="-262"/>
			<point x="747" y="-280"/>
			<point x="796" y="-279" type="curve" smooth="yes"/>
			<point x="870" y="-277"/>
			<point x="980" y="-231"/>
			<point x="1051" y="-226" type="curve" smooth="yes"/>
			<point x="1114" y="-222"/>
			<point x="1223" y="-239"/>
			<point x="1265" y="-268" type="curve"/>
			<point x="1297" y="209" type="line"/>
			<point x="1364" y="209" type="line"/>
			<point x="1321" y="-369" type="line"/>
			<point x="1252" y="-337"/>
			<point x="1148" y="-296"/>
			<point x="1041" y="-299" type="curve" smooth="yes"/>
			<point x="976" y="-301"/>
			<point x="854" y="-364"/>
			<point x="759" y="-364" type="curve" smooth="yes"/>
			<point x="659" y="-364"/>
			<point x="631" y="-309"/>
		</contour>
		<component base="sinJha"/>
	</outline>
</glyph>
<glyph name="sinKVIi" format="1">
	<advance width="1400"/>
	<outline>
		<contour>
			<point x="148" y="335"/>
			<point x="128" y="359"/>
			<point x="130" y="402" type="curve" smooth="yes"/>
			<point x="134" y="491"/>
			<point x="228" y="558"/>
			<point x="330" y="558" type="curve" smooth="yes"/>
			<point x="385" y="558"/>
			<point x="434" y="538"/>
			<point x="432" y="485" type="curve" smooth="yes"/>
			<point x="430" y="434"/>
			<point x="385" y="382"/>
			<point x="364" y="361" type="curve"/>
			<point x="335" y="350" type="line"/>
			<point x="354" y="371"/>
			<point x="369" y="401"/>
			<point x="370" y="441" type="curve" smooth="yes"/>
			<point x="371" y="485"/>
			<point x="352" y="522"/>
			<point x="306" y="522" type="curve" smooth="yes"/>
			<point x="262" y="522"/>
			<point x="225" y="479"/>
			<point x="221" y="416" type="curve" smooth="yes"/>
			<point x="219" y="381"/>
			<point x="231" y="363"/>
			<point x="245" y="346" type="curve"/>
			<point x="229" y="338"/>
			<point x="208" y="335"/>
			<point x="192" y="335" type="curve" smooth="yes"/>
		</contour>
		<contour>
			<point x="698" y="508"/>
			<point x="479" y="415"/>
			<point x="404" y="354" type="curve" smooth="yes"/>
			<point x="387" y="340"/>
			<point x="326" y="296"/>
			<point x="323" y="284" type="curve"/>
			<point x="282" y="253" type="line"/>
			<point x="328" y="303"/>
			<point x="457" y="388"/>
			<point x="569" y="388" type="curve" smooth="yes"/>
			<point x="673" y="388"/>
			<point x="733" y="299"/>
			<point x="728" y="178" type="curve" smooth="yes"/>
			<point x="724" y="84"/>
			<point x="671" y="-34"/>
			<point x="559" y="-34" type="curve" smooth="yes"/>
			<point x="501" y="-34"/>
			<point x="455" y="-3"/>
			<point x="439" y="54" type="curve"/>
			<point x="419" y="0"/>
			<point x="372" y="-36"/>
			<point x="312" y="-34" type="curve" smooth="yes"/>
			<point x="242" y="-32"/>
			<point x="208" y="23"/>
			<point x="173" y="76" type="curve" smooth="yes"/>
			<point x="160" y="96"/>
			<point x="127" y="108"/>
			<point x="109" y="89" type="curve"/>
			<point x="134" y="126" type="line"/>
			<point x="216" y="150"/>
			<point x="224" y="74"/>
			<point x="302" y="74" type="curve" smooth="yes"/>
			<point x="365" y="74"/>
			<point x="425" y="124"/>
			<point x="443" y="206" type="curve"/>
			<point x="468" y="212" type="line"/>
			<point x="460" y="136"/>
			<point x="497" y="77"/>
			<point x="559" y="77" type="curve" smooth="yes"/>
			<point x="622" y="77"/>
			<point x="685" y="111"/>
			<point x="686" y="179" type="curve" smooth="yes"/>
			<point x="687" y="262"/>
			<point x="613" y="301"/>
			<point x="519" y="301" type="curve" smooth="yes"/>
			<point x="439" y="301"/>
			<point x="346" y="272"/>
			<point x="278" y="230" type="curve" smooth="yes"/>
			<point x="228" y="199"/>
			<point x="102" y="99"/>
			<point x="94" y="53" type="curve"/>
			<point x="88" y="55"/>
			<point x="61" y="72"/>
			<point x="65" y="99" type="curve"/>
			<point x="89" y="123"/>
			<point x="185" y="223"/>
			<point x="372" y="382" type="curve" smooth="yes"/>
			<point x="505" y="495"/>
			<point x="704" y="589"/>
			<point x="932" y="518" type="curve"/>
			<point x="828" y="444" type="line"/>
		</contour>
		<component base="sinVIi" xOffset="640"/>
	</outline>
</glyph>
<glyph name="sinMU" format="1">
	<advance width="826"/>
	<outline>
		<contour>
			<point x="94" y="-242" type="curve" smooth="yes"/>
			<point x="95" y="-192"/>
			<point x="136" y="-125"/>
			<point x="216" y="-124" type="curve" smooth="yes"/>
			<point x="262" y="-124"/>
			<point x="301" y="-154"/>
			<point x="301" y="-154" type="curve"/>
			<point x="296" y="-179" type="line"/>
			<point x="215" y="-159"/>
			<point x="165" y="-201"/>
			<point x="165" y="-238" type="curve" smooth="yes"/>
			<point x="165" y="-273"/>
			<point x="189" y="-300"/>
			<point x="240" y="-298" type="curve"/>
			<point x="713" y="-266" type="line"/>
			<point x="733" y="209" type="line"/>
			<point x="770" y="209" type="line"/>
			<point x="772" y="-359" type="line"/>
			<point x="259" y="-359" type="line" smooth="yes"/>
			<point x="127" y="-359"/>
			<point x="93" y="-297"/>
		</contour>
		<component base="sinMa"/>
	</outline>
</glyph>
<glyph name="sinMatraI.alt1" format="1">
	<outline>
		<contour>
			<point x="345" y="780" type="curve" smooth="yes"/>
			<point x="215" y="773"/>
			<point x="78" y="690"/>
			<point x="92" y="482" type="curve"/>
			<point x="-1" y="456" type="line"/>
			<point x="55" y="672"/>
			<point x="174" y="867"/>
			<point x="407" y="869" type="curve" smooth="yes"/>
			<point x="523" y="870"/>
			<point x="611" y="806"/>
			<point x="614" y="708" type="curve" smooth="yes"/>
			<point x="615" y="632"/>
			<point x="568" y="527"/>
			<point x="426" y="526" type="curve"/>
			<point x="411" y="576" type="line"/>
			<point x="483" y="557"/>
			<point x="565" y="611"/>
			<point x="565" y="675" type="curve" smooth="yes"/>
			<point x="565" y="747"/>
			<point x="454" y="786"/>
		</contour>
		<contour>
			<point name="_MatraI" x="-1" y="455" type="move"/>
		</contour>
	</outline>
</glyph>
<glyph name="sinMatraI.alt4" format="1">
	<advance width="916"/>
	<outline>
		<contour>
			<point x="309" y="664" type="curve" smooth="yes"/>
			<point x="310" y="780"/>
			<point x="431" y="854"/>
			<point x="602" y="856" type="curve" smooth="yes"/>
			<point x="721" y="857"/>
			<point x="853" y="799"/>
			<point x="851" y="676" type="curve" smooth="yes"/>
			<point x="850" y="610"/>
			<point x="770" y="515"/>
			<point x="675" y="541" type="curve"/>
			<point x="645" y="579" type="line"/>
			<point x="729" y="550"/>
			<point x="773" y="603"/>
			<point x="771" y="652" type="curve" smooth="yes"/>
			<point x="768" y="730"/>
			<point x="633" y="776"/>
			<point x="535" y="771" type="curve" smooth="yes"/>
			<point x="450" y="767"/>
			<point x="360" y="752"/>
			<point x="352" y="676" type="curve" smooth="yes"/>
			<point x="343" y="592"/>
			<point x="570" y="566"/>
			<point x="622" y="586" type="curve"/>
			<point x="580" y="532" type="line"/>
			<point x="508" y="512"/>
			<point x="308" y="568"/>
		</contour>
	</outline>
</glyph>
<glyph name="sinMatraIi.alt" format="1">
	<advance width="776"/>
	<outline>
		<contour>
			<point x="181" y="627" type="curve" smooth="yes"/>
			<point x="181" y="756"/>
			<point x="340" y="824"/>
			<point x="479" y="823" type="curve" smooth="yes"/>
			<point x="603" y="822"/>
			<point x="747" y="764"/>
			<point x="747" y="656" type="curve" smooth="yes"/>
			<point x="747" y="581"/>
			<point x="701" y="526"/>
			<point x="625" y="526" type="curve" smooth="yes"/>
			<point x="582" y="526"/>
			<point x="524" y="547"/>
			<point x="524" y="612" type="curve" smooth="yes"/>
			<point x="525" y="693"/>
			<point x="610" y="750"/>
			<point x="617" y="746" type="curve"/>
			<point x="662" y="736" type="line"/>
			<point x="642" y="722"/>
			<point x="579" y="693"/>
			<point x="579" y="633" type="curve" smooth="yes"/>
			<point x="579" y="596"/>
			<point x="602" y="571"/>
			<point x="633" y="571" type="curve" smooth="yes"/>
			<point x="667" y="571"/>
			<point x="684" y="595"/>
			<point x="685" y="622" type="curve" smooth="yes"/>
			<point x="687" y="710"/>
			<point x="570" y="761"/>
			<point x="433" y="761" type="curve" smooth="yes"/>
			<point x="335" y="761"/>
			<point x="235" y="730"/>
			<point x="235" y="656" type="curve" smooth="yes"/>
			<point x="235" y="592"/>
			<point x="275" y="568"/>
			<point x="300" y="554" type="curve"/>
			<point x="280" y="519" type="line"/>
			<point x="243" y="520"/>
			<point x="181" y="558"/>
		</contour>
	</outline>
</glyph>
<glyph name="sinMatraIi.alt1" format="1">
	<outline>
		<contour>
			<point x="509" y="663" type="curve" smooth="yes"/>
			<point x="509" y="735"/>
			<point x="418" y="774"/>
			<point x="347" y="774" type="curve" smooth="yes"/>
			<point x="226" y="774"/>
			<point x="79" y="719"/>
			<point x="67" y="466" type="curve"/>
			<point x="0" y="430" type="line"/>
			<point x="14" y="626"/>
			<point x="177" y="870"/>
			<point x="388" y="870" type="curve" smooth="yes"/>
			<point x="498" y="870"/>
			<point x="563" y="791"/>
			<point x="559" y="693" type="curve" smooth="yes"/>
			<point x="555" y="623"/>
			<point x="509" y="522"/>
			<point x="379" y="517" type="curve"/>
			<point x="367" y="544" type="line"/>
			<point x="367" y="544"/>
			<point x="323" y="550"/>
			<point x="323" y="616" type="curve" smooth="yes"/>
			<point x="323" y="673"/>
			<point x="366" y="728"/>
			<point x="424" y="728" type="curve" smooth="yes"/>
			<point x="504" y="728"/>
			<point x="512" y="642"/>
			<point x="512" y="642" type="curve"/>
			<point x="500" y="606" type="line"/>
			<point x="500" y="606"/>
			<point x="488" y="669"/>
			<point x="419" y="669" type="curve" smooth="yes"/>
			<point x="389" y="669"/>
			<point x="362" y="649"/>
			<point x="360" y="622" type="curve" smooth="yes"/>
			<point x="358" y="590"/>
			<point x="388" y="581"/>
			<point x="418" y="581" type="curve" smooth="yes"/>
			<point x="482" y="581"/>
			<point x="509" y="636"/>
		</contour>
		<contour>
			<point name="_MatraI" x="0" y="430" type="move"/>
		</contour>
	</outline>
</glyph>
<glyph name="sinMatraIi.alt2" format="1">
	<outline>
		<contour>
			<point x="-271" y="638" type="curve" smooth="yes"/>
			<point x="-267" y="735"/>
			<point x="-165" y="856"/>
			<point x="33" y="863" type="curve" smooth="yes"/>
			<point x="213" y="869"/>
			<point x="281" y="770"/>
			<point x="279" y="670" type="curve" smooth="yes"/>
			<point x="277" y="563"/>
			<point x="192" y="497"/>
			<point x="117" y="492" type="curve" smooth="yes"/>
			<point x="41" y="487"/>
			<point x="2" y="540"/>
			<point x="8" y="597" type="curve" smooth="yes"/>
			<point x="14" y="655"/>
			<point x="83" y="690"/>
			<point x="114" y="693" type="curve" smooth="yes"/>
			<point x="166" y="699"/>
			<point x="239" y="672"/>
			<point x="239" y="672" type="curve"/>
			<point x="228" y="639" type="line"/>
			<point x="228" y="639"/>
			<point x="172" y="652"/>
			<point x="128" y="644" type="curve" smooth="yes"/>
			<point x="100" y="639"/>
			<point x="69" y="610"/>
			<point x="68" y="592" type="curve" smooth="yes"/>
			<point x="66" y="557"/>
			<point x="96" y="541"/>
			<point x="125" y="543" type="curve" smooth="yes"/>
			<point x="166" y="546"/>
			<point x="202" y="589"/>
			<point x="196" y="668" type="curve" smooth="yes"/>
			<point x="192" y="721"/>
			<point x="135" y="777"/>
			<point x="-1" y="773" type="curve" smooth="yes"/>
			<point x="-101" y="770"/>
			<point x="-193" y="726"/>
			<point x="-205" y="640" type="curve" smooth="yes"/>
			<point x="-214" y="576"/>
			<point x="-146" y="520"/>
			<point x="-84" y="520" type="curve"/>
			<point x="-91" y="471" type="line"/>
			<point x="-176" y="481"/>
			<point x="-275" y="529"/>
		</contour>
	</outline>
</glyph>
<glyph name="sinMatraIi.alt4" format="1">
  <advance width="0"/>
  <outline>
    <contour>
      <point x="270" y="673" type="curve" smooth="yes"/>
      <point x="274" y="770"/>
      <point x="406" y="851"/>
      <point x="604" y="858" type="curve" smooth="yes"/>
      <point x="784" y="864"/>
      <point x="852" y="825"/>
      <point x="850" y="725" type="curve" smooth="yes"/>
      <point x="848" y="618"/>
      <point x="763" y="552"/>
      <point x="688" y="547" type="curve" smooth="yes"/>
      <point x="612" y="542"/>
      <point x="573" y="595"/>
      <point x="579" y="652" type="curve" smooth="yes"/>
      <point x="585" y="710"/>
      <point x="635" y="735"/>
      <point x="666" y="738" type="curve" smooth="yes"/>
      <point x="718" y="744"/>
      <point x="810" y="727"/>
      <point x="810" y="727" type="curve"/>
      <point x="799" y="694" type="line"/>
      <point x="799" y="694"/>
      <point x="648" y="703"/>
      <point x="646" y="656" type="curve" smooth="yes"/>
      <point x="644" y="614"/>
      <point x="667" y="596"/>
      <point x="696" y="598" type="curve" smooth="yes"/>
      <point x="737" y="601"/>
      <point x="773" y="644"/>
      <point x="767" y="723" type="curve" smooth="yes"/>
      <point x="763" y="776"/>
      <point x="706" y="772"/>
      <point x="570" y="768" type="curve" smooth="yes"/>
      <point x="470" y="765"/>
      <point x="348" y="761"/>
      <point x="336" y="675" type="curve" smooth="yes"/>
      <point x="327" y="611"/>
      <point x="495" y="535"/>
      <point x="557" y="535" type="curve"/>
      <point x="550" y="486" type="line"/>
      <point x="465" y="496"/>
      <point x="266" y="564"/>
    </contour>
  </outline>
</glyph>
<glyph name="sinMatraU.alt" format="1">
	<advance width="780"/>
	<outline>
		<contour>
			<point x="62" y="-172" type="curve" smooth="yes"/>
			<point x="63" y="-122"/>
			<point x="104" y="-55"/>
			<point x="184" y="-54" type="curve" smooth="yes"/>
			<point x="230" y="-54"/>
			<point x="269" y="-84"/>
			<point x="269" y="-84" type="curve"/>
			<point x="264" y="-109" type="line"/>
			<point x="183" y="-89"/>
			<point x="133" y="-131"/>
			<point x="133" y="-168" type="curve" smooth="yes"/>
			<point x="133" y="-203"/>
			<point x="157" y="-230"/>
			<point x="208" y="-228" type="curve"/>
			<point x="641" y="-196" type="line"/>
			<point x="651" y="209" type="line"/>
			<point x="688" y="209" type="line"/>
			<point x="690" y="-289" type="line"/>
			<point x="227" y="-289" type="line" smooth="yes"/>
			<point x="95" y="-289"/>
			<point x="61" y="-227"/>
		</contour>
	</outline>
</glyph>
<glyph name="sinMatraU.alt1" format="1">
  <advance width="0"/>
  <outline>
    <contour>
      <point x="-84" y="-140" type="curve" smooth="yes"/>
      <point x="-84" y="-52"/>
      <point x="-24" y="-13"/>
      <point x="2" y="8" type="curve"/>
      <point x="29" y="-22" type="line"/>
      <point x="5" y="-40"/>
      <point x="-25" y="-60"/>
      <point x="-24" y="-124" type="curve" smooth="yes"/>
      <point x="-22" y="-223"/>
      <point x="67" y="-246"/>
      <point x="136" y="-245" type="curve" smooth="yes"/>
      <point x="199" y="-244"/>
      <point x="246" y="-214"/>
      <point x="283" y="-179" type="curve"/>
      <point x="311" y="-200"/>
      <point x="321" y="-231"/>
      <point x="321" y="-268" type="curve"/>
      <point x="265" y="-318"/>
      <point x="183" y="-336"/>
      <point x="119" y="-334" type="curve" smooth="yes"/>
      <point x="-3" y="-330"/>
      <point x="-84" y="-256"/>
    </contour>
    <contour>
      <point x="0" y="10" type="move" name="ogonek"/>
    </contour>
    <contour>
      <point x="0" y="0" type="move" name="top"/>
    </contour>
  </outline>
</glyph>
<glyph name="sinMatraU.alt2" format="1">
  <advance width="1040"/>
  <outline>
    <contour>
      <point x="235" y="-273" type="curve" smooth="yes"/>
      <point x="241" y="-164"/>
      <point x="404" y="-117"/>
      <point x="404" y="-117" type="curve"/>
      <point x="418" y="-152" type="line"/>
      <point x="419" y="-144"/>
      <point x="349" y="-189"/>
      <point x="346" y="-228" type="curve" smooth="yes"/>
      <point x="343" y="-275"/>
      <point x="369" y="-288"/>
      <point x="428" y="-288" type="curve" smooth="yes"/>
      <point x="895" y="-288" type="line"/>
      <point x="924" y="127" type="line"/>
      <point x="971" y="127" type="line"/>
      <point x="942" y="-369" type="line"/>
      <point x="942" y="-369"/>
      <point x="528" y="-372"/>
      <point x="350" y="-373" type="curve" smooth="yes"/>
      <point x="270" y="-373"/>
      <point x="232" y="-324"/>
    </contour>
  </outline>
</glyph>
<glyph name="sinMatraUu.alt" format="1">
	<outline>
		<contour>
			<point x="-703" y="-258" type="curve" smooth="yes"/>
			<point x="-701" y="-178"/>
			<point x="-628" y="-114"/>
			<point x="-568" y="-106" type="curve"/>
			<point x="-545" y="-151" type="line"/>
			<point x="-593" y="-165"/>
			<point x="-614" y="-198"/>
			<point x="-615" y="-222" type="curve" smooth="yes"/>
			<point x="-617" y="-262"/>
			<point x="-588" y="-280"/>
			<point x="-539" y="-279" type="curve" smooth="yes"/>
			<point x="-465" y="-277"/>
			<point x="-345" y="-231"/>
			<point x="-274" y="-226" type="curve" smooth="yes"/>
			<point x="-211" y="-222"/>
			<point x="-52" y="-239"/>
			<point x="-10" y="-268" type="curve"/>
			<point x="-18" y="129" type="line"/>
			<point x="39" y="209" type="line"/>
			<point x="46" y="-369" type="line"/>
			<point x="-23" y="-337"/>
			<point x="-177" y="-296"/>
			<point x="-284" y="-299" type="curve" smooth="yes"/>
			<point x="-349" y="-301"/>
			<point x="-481" y="-364"/>
			<point x="-576" y="-364" type="curve" smooth="yes"/>
			<point x="-676" y="-364"/>
			<point x="-704" y="-309"/>
		</contour>
		<contour>
			<point name="_si_MaU" x="39" y="209" type="move"/>
		</contour>
	</outline>
</glyph>
<glyph name="sinMatraUu.alt1" format="1">
	<outline>
		<contour>
			<point x="-104" y="-78" type="line"/>
			<point x="-69" y="-31" type="line"/>
			<point x="-22" y="-76" type="line"/>
			<point x="-35" y="52" type="line"/>
			<point x="13" y="30" type="line"/>
			<point x="37" y="-147" type="line"/>
			<point x="-5" y="-151" type="line"/>
		</contour>
		<contour>
			<point x="-230" y="-250" type="curve" smooth="yes"/>
			<point x="-230" y="-116"/>
			<point x="-120" y="-61"/>
			<point x="-71" y="-32" type="curve"/>
			<point x="-53" y="-62" type="line"/>
			<point x="-82" y="-92"/>
			<point x="-168" y="-143"/>
			<point x="-161" y="-234" type="curve"/>
			<point x="-160" y="-320"/>
			<point x="-99" y="-364"/>
			<point x="-13" y="-362" type="curve" smooth="yes"/>
			<point x="80" y="-361"/>
			<point x="148" y="-335"/>
			<point x="203" y="-289" type="curve"/>
			<point x="223" y="-305"/>
			<point x="234" y="-332"/>
			<point x="231" y="-378" type="curve"/>
			<point x="157" y="-433"/>
			<point x="65" y="-447"/>
			<point x="-19" y="-443" type="curve" smooth="yes"/>
			<point x="-112" y="-439"/>
			<point x="-230" y="-388"/>
		</contour>
	</outline>
</glyph>
<glyph name="sinNdU" format="1">
	<advance width="581"/>
	<outline>
		<contour>
			<point x="-80" y="229" type="curve" smooth="yes"/>
			<point x="-67" y="449"/>
			<point x="121" y="598"/>
			<point x="313" y="598" type="curve" smooth="yes"/>
			<point x="355" y="598"/>
			<point x="388" y="585"/>
			<point x="418" y="572" type="curve"/>
			<point x="420" y="568" type="line"/>
			<point x="386" y="557"/>
			<point x="356" y="561"/>
			<point x="325" y="560" type="curve" smooth="yes"/>
			<point x="178" y="555"/>
			<point x="-5" y="433"/>
			<point x="-19" y="248" type="curve" smooth="yes"/>
			<point x="-33" y="61"/>
			<point x="61" y="-8"/>
			<point x="61" y="-8" type="curve"/>
			<point x="6" y="-51" type="line"/>
			<point x="-42" y="-1"/>
			<point x="-88" y="94"/>
		</contour>
		<component base="sinDU"/>
	</outline>
</glyph>
<glyph name="sinNndd.virama" format="1">
	<advance width="1064"/>
	<outline>
		<contour>
			<point x="66" y="205" type="curve" smooth="yes"/>
			<point x="84" y="422"/>
			<point x="245" y="555"/>
			<point x="419" y="555" type="curve" smooth="yes"/>
			<point x="449" y="555"/>
			<point x="486" y="557"/>
			<point x="503" y="547" type="curve"/>
			<point x="507" y="512" type="line"/>
			<point x="393" y="497" type="line"/>
			<point x="387" y="496" type="line"/>
			<point x="265" y="485"/>
			<point x="161" y="372"/>
			<point x="140" y="207" type="curve" smooth="yes"/>
			<point x="129" y="119"/>
			<point x="141" y="20"/>
			<point x="178" y="-22" type="curve"/>
			<point x="172" y="-26"/>
			<point x="158" y="-31"/>
			<point x="134" y="-31" type="curve"/>
			<point x="91" y="15"/>
			<point x="58" y="107"/>
		</contour>
		<component base="sinDd.virama" xOffset="170"/>
	</outline>
</glyph>
<glyph name="sinNnddU" format="1">
	<advance width="1067"/>
	<outline>
		<contour>
			<point x="66" y="213" type="curve" smooth="yes"/>
			<point x="84" y="430"/>
			<point x="245" y="563"/>
			<point x="419" y="563" type="curve" smooth="yes"/>
			<point x="449" y="563"/>
			<point x="486" y="565"/>
			<point x="503" y="555" type="curve"/>
			<point x="507" y="520" type="line"/>
			<point x="393" y="505" type="line"/>
			<point x="387" y="504" type="line"/>
			<point x="265" y="493"/>
			<point x="161" y="380"/>
			<point x="140" y="215" type="curve" smooth="yes"/>
			<point x="129" y="127"/>
			<point x="141" y="28"/>
			<point x="178" y="-14" type="curve"/>
			<point x="172" y="-18"/>
			<point x="158" y="-23"/>
			<point x="134" y="-23" type="curve"/>
			<point x="91" y="23"/>
			<point x="58" y="115"/>
		</contour>
		<component base="sinDdU" xOffset="190"/>
	</outline>
</glyph>
<glyph name="sinPRa" format="1">
	<advance width="805"/>
	<outline>
		<contour>
			<point x="37" y="-109" type="curve"/>
			<point x="66" y="-88" type="line"/>
			<point x="66" y="-88"/>
			<point x="180" y="-228"/>
			<point x="392" y="-223" type="curve" smooth="yes"/>
			<point x="684" y="-216"/>
			<point x="711" y="78"/>
			<point x="726" y="232" type="curve"/>
			<point x="756" y="250" type="line"/>
			<point x="742" y="14"/>
			<point x="735" y="-330"/>
			<point x="346" y="-319" type="curve" smooth="yes"/>
			<point x="140" y="-313"/>
			<point x="42" y="-135"/>
		</contour>
		<component base="sinPa" xOffset="20"/>
	</outline>
</glyph>
<glyph name="sinR.virama" format="1">
  <advance width="695"/>
  <outline>
    <contour>
      <point x="169" y="865" type="line" smooth="yes"/>
      <point x="170" y="817"/>
      <point x="201" y="783"/>
      <point x="242" y="774" type="curve" smooth="yes"/>
      <point x="269" y="768"/>
      <point x="295" y="779"/>
      <point x="294" y="813" type="curve" smooth="yes"/>
      <point x="292" y="879"/>
      <point x="214" y="901"/>
      <point x="169" y="908" type="curve"/>
    </contour>
    <contour>
      <point x="106" y="412" type="line"/>
      <point x="125" y="969" type="line"/>
      <point x="149" y="992" type="line"/>
      <point x="178" y="985"/>
      <point x="306" y="954"/>
      <point x="324" y="831" type="curve" smooth="yes"/>
      <point x="333" y="772"/>
      <point x="315" y="716"/>
      <point x="250" y="715" type="curve" smooth="yes"/>
      <point x="209" y="714"/>
      <point x="180" y="745"/>
      <point x="169" y="774" type="curve"/>
      <point x="159" y="462" type="line"/>
    </contour>
    <component base="sinRa"/>
  </outline>
</glyph>
<glyph name="sinRI" format="1">
	<advance width="719"/>
	<outline>
		<contour>
			<point x="12" y="590" type="curve" smooth="yes"/>
			<point x="13" y="740"/>
			<point x="153" y="842"/>
			<point x="270" y="842" type="curve" smooth="yes"/>
			<point x="366" y="842"/>
			<point x="385" y="793"/>
			<point x="383" y="749" type="curve" smooth="yes"/>
			<point x="381" y="694"/>
			<point x="335" y="660"/>
			<point x="323" y="642" type="curve"/>
			<point x="288" y="621" type="line"/>
			<point x="320" y="650"/>
			<point x="325" y="686"/>
			<point x="321" y="721" type="curve" smooth="yes"/>
			<point x="317" y="755"/>
			<point x="294" y="800"/>
			<point x="241" y="801" type="curve" smooth="yes"/>
			<point x="165" y="802"/>
			<point x="91" y="724"/>
			<point x="91" y="603" type="curve" smooth="yes"/>
			<point x="91" y="529"/>
			<point x="153" y="521"/>
			<point x="190" y="521" type="curve" smooth="yes"/>
			<point x="200" y="521"/>
			<point x="210" y="523"/>
			<point x="218" y="524" type="curve"/>
			<point x="208" y="494" type="line"/>
			<point x="191" y="483"/>
			<point x="178" y="478"/>
			<point x="162" y="478" type="curve" smooth="yes"/>
			<point x="84" y="478"/>
			<point x="12" y="504"/>
		</contour>
		<component base="sinRa"/>
	</outline>
</glyph>
<glyph name="sinRIi" format="1">
	<advance width="695"/>
	<outline>
		<contour>
			<point x="22" y="630" type="curve" smooth="yes"/>
			<point x="23" y="780"/>
			<point x="163" y="882"/>
			<point x="280" y="882" type="curve" smooth="yes"/>
			<point x="376" y="882"/>
			<point x="395" y="833"/>
			<point x="393" y="789" type="curve" smooth="yes"/>
			<point x="391" y="734"/>
			<point x="345" y="700"/>
			<point x="333" y="682" type="curve"/>
			<point x="298" y="661" type="line"/>
			<point x="330" y="690"/>
			<point x="335" y="726"/>
			<point x="331" y="761" type="curve" smooth="yes"/>
			<point x="327" y="795"/>
			<point x="304" y="840"/>
			<point x="251" y="841" type="curve" smooth="yes"/>
			<point x="175" y="842"/>
			<point x="101" y="764"/>
			<point x="101" y="643" type="curve" smooth="yes"/>
			<point x="101" y="569"/>
			<point x="163" y="561"/>
			<point x="200" y="561" type="curve" smooth="yes"/>
			<point x="210" y="561"/>
			<point x="220" y="563"/>
			<point x="228" y="564" type="curve"/>
			<point x="218" y="534" type="line"/>
			<point x="201" y="523"/>
			<point x="188" y="518"/>
			<point x="172" y="518" type="curve" smooth="yes"/>
			<point x="94" y="518"/>
			<point x="22" y="544"/>
		</contour>
		<component base="sinRa" xOffset="-16"/>
	</outline>
</glyph>
<glyph name="sinRakar.long" format="1">
	<outline>
		<contour>
			<point x="-396" y="-142" type="curve"/>
			<point x="-367" y="-121" type="line"/>
			<point x="-367" y="-121"/>
			<point x="-268" y="-213"/>
			<point x="-41" y="-203" type="curve" smooth="yes"/>
			<point x="240" y="-191"/>
			<point x="338" y="14"/>
			<point x="352" y="228" type="curve"/>
			<point x="400" y="266" type="line"/>
			<point x="381" y="-15"/>
			<point x="248" y="-284"/>
			<point x="-67" y="-292" type="curve" smooth="yes"/>
			<point x="-265" y="-297"/>
			<point x="-391" y="-168"/>
		</contour>
		<contour>
			<point name="_rakaransaya" x="400" y="266" type="move"/>
		</contour>
	</outline>
</glyph>
<glyph name="sinRakar.medium" format="1">
	<outline>
		<contour>
			<point x="-693" y="-189" type="curve"/>
			<point x="-664" y="-158" type="line"/>
			<point x="-664" y="-158"/>
			<point x="-615" y="-240"/>
			<point x="-388" y="-230" type="curve" smooth="yes"/>
			<point x="-112" y="-218"/>
			<point x="-48" y="113"/>
			<point x="-34" y="327" type="curve"/>
			<point x="-1" y="355" type="line"/>
			<point x="0" y="79"/>
			<point x="-70" y="-331"/>
			<point x="-384" y="-339" type="curve" smooth="yes"/>
			<point x="-582" y="-344"/>
			<point x="-688" y="-215"/>
		</contour>
		<contour>
			<point name="_rakaransaya" x="0" y="358" type="move"/>
		</contour>
	</outline>
</glyph>
<glyph name="sinRakar.short" format="1">
	<outline>
		<contour>
			<point x="-694" y="-139" type="curve"/>
			<point x="-655" y="-118" type="line"/>
			<point x="-655" y="-118"/>
			<point x="-576" y="-239"/>
			<point x="-349" y="-233" type="curve" smooth="yes"/>
			<point x="-83" y="-226"/>
			<point x="-49" y="68"/>
			<point x="-35" y="222" type="curve"/>
			<point x="-8" y="210" type="line"/>
			<point x="-8" y="210"/>
			<point x="-7" y="140"/>
			<point x="-19" y="79" type="curve" smooth="yes"/>
			<point x="-54" y="-103"/>
			<point x="-124" y="-313"/>
			<point x="-385" y="-309" type="curve" smooth="yes"/>
			<point x="-613" y="-305"/>
			<point x="-689" y="-165"/>
		</contour>
		<contour>
			<point name="_rakaransaya" x="-7" y="210" type="move"/>
		</contour>
	</outline>
</glyph>
<glyph name="sinThI" format="1">
  <advance width="791"/>
  <outline>
    <contour>
      <point x="139" y="828" type="curve" smooth="yes"/>
      <point x="139" y="944"/>
      <point x="258" y="1021"/>
      <point x="446" y="1021" type="curve" smooth="yes"/>
      <point x="608" y="1021"/>
      <point x="677" y="926"/>
      <point x="677" y="856" type="curve" smooth="yes"/>
      <point x="677" y="779"/>
      <point x="611" y="707"/>
      <point x="548" y="707" type="curve"/>
      <point x="496" y="743" type="line"/>
      <point x="496" y="743"/>
      <point x="607" y="748"/>
      <point x="607" y="814" type="curve" smooth="yes"/>
      <point x="607" y="892"/>
      <point x="472" y="944"/>
      <point x="333" y="933" type="curve" smooth="yes"/>
      <point x="214" y="924"/>
      <point x="177" y="868"/>
      <point x="177" y="836" type="curve" smooth="yes"/>
      <point x="177" y="746"/>
      <point x="294" y="740"/>
      <point x="310" y="740" type="curve"/>
      <point x="325" y="683" type="line"/>
      <point x="217" y="694"/>
      <point x="139" y="751"/>
    </contour>
    <component base="sinTha"/>
  </outline>
</glyph>
<glyph name="sinTt.virama" format="1">
  <advance width="790"/>
  <outline>
    <contour>
      <point x="66" y="219" type="curve" smooth="yes"/>
      <point x="81" y="410"/>
      <point x="263" y="481"/>
      <point x="363" y="481" type="curve" smooth="yes"/>
      <point x="372" y="481"/>
      <point x="382" y="481"/>
      <point x="390" y="480" type="curve"/>
      <point x="419" y="377" type="line"/>
      <point x="346" y="389"/>
      <point x="136" y="367"/>
      <point x="120" y="228" type="curve" smooth="yes"/>
      <point x="110" y="141"/>
      <point x="215" y="82"/>
      <point x="357" y="85" type="curve" smooth="yes"/>
      <point x="569" y="89"/>
      <point x="679" y="211"/>
      <point x="705" y="375" type="curve" smooth="yes"/>
      <point x="737" y="591"/>
      <point x="572" y="645"/>
      <point x="405" y="645" type="curve" smooth="yes"/>
      <point x="304" y="645"/>
      <point x="221" y="586"/>
      <point x="193" y="572" type="curve"/>
      <point x="178" y="578" type="line" smooth="yes"/>
      <point x="179" y="609"/>
      <point x="195" y="652"/>
      <point x="205" y="674" type="curve"/>
      <point x="249" y="697"/>
      <point x="323" y="735"/>
      <point x="415" y="735" type="curve" smooth="yes"/>
      <point x="618" y="735"/>
      <point x="788" y="630"/>
      <point x="765" y="366" type="curve" smooth="yes"/>
      <point x="745" y="132"/>
      <point x="610" y="-34"/>
      <point x="354" y="-35" type="curve" smooth="yes"/>
      <point x="154" y="-36"/>
      <point x="57" y="86"/>
    </contour>
    <contour>
      <point x="194" y="756" type="curve"/>
      <point x="196" y="769"/>
      <point x="200" y="802"/>
      <point x="217" y="834" type="curve" smooth="yes"/>
      <point x="217" y="834"/>
      <point x="287" y="883"/>
      <point x="409" y="882" type="curve" smooth="yes"/>
      <point x="688" y="879"/>
      <point x="768" y="587"/>
      <point x="768" y="403" type="curve"/>
      <point x="719" y="483" type="line"/>
      <point x="721" y="545"/>
      <point x="686" y="799"/>
      <point x="386" y="802" type="curve" smooth="yes"/>
      <point x="305" y="803"/>
      <point x="277" y="793"/>
      <point x="277" y="793" type="curve"/>
      <point x="311" y="820"/>
      <point x="340" y="818"/>
      <point x="369" y="817" type="curve"/>
      <point x="325" y="810"/>
      <point x="270" y="731"/>
      <point x="246" y="668" type="curve"/>
      <point x="205" y="674" type="line"/>
      <point x="246" y="764"/>
      <point x="281" y="819"/>
      <point x="299" y="832" type="curve"/>
      <point x="271" y="793" type="line"/>
      <point x="236" y="781"/>
      <point x="223" y="775"/>
    </contour>
  </outline>
</glyph>
<glyph name="sinTtI" format="1">
	<advance width="808"/>
	<outline>
		<contour>
			<point x="755" y="346" type="curve"/>
			<point x="735" y="121"/>
			<point x="590" y="-25"/>
			<point x="354" y="-26" type="curve" smooth="yes"/>
			<point x="174" y="-27"/>
			<point x="62" y="82"/>
			<point x="71" y="215" type="curve" smooth="yes"/>
			<point x="86" y="406"/>
			<point x="263" y="490"/>
			<point x="363" y="490" type="curve" smooth="yes"/>
			<point x="372" y="490"/>
			<point x="382" y="490"/>
			<point x="390" y="489" type="curve"/>
			<point x="419" y="386" type="line"/>
			<point x="346" y="398"/>
			<point x="146" y="364"/>
			<point x="130" y="225" type="curve" smooth="yes"/>
			<point x="120" y="138"/>
			<point x="215" y="91"/>
			<point x="357" y="94" type="curve" smooth="yes"/>
			<point x="569" y="98"/>
			<point x="669" y="200"/>
			<point x="694" y="365" type="curve"/>
			<point x="712" y="505"/>
			<point x="611" y="586"/>
			<point x="478" y="593" type="curve" smooth="yes"/>
			<point x="400" y="598"/>
			<point x="337" y="568"/>
			<point x="281" y="567" type="curve" smooth="yes"/>
			<point x="195" y="565"/>
			<point x="169" y="634"/>
			<point x="173" y="687" type="curve" smooth="yes"/>
			<point x="182" y="805"/>
			<point x="309" y="888"/>
			<point x="470" y="890" type="curve" smooth="yes"/>
			<point x="627" y="892"/>
			<point x="730" y="808"/>
			<point x="729" y="710" type="curve" smooth="yes"/>
			<point x="728" y="648"/>
			<point x="665" y="574"/>
			<point x="566" y="590" type="curve"/>
			<point x="563" y="642" type="line"/>
			<point x="617" y="627"/>
			<point x="674" y="657"/>
			<point x="676" y="699" type="curve" smooth="yes"/>
			<point x="679" y="760"/>
			<point x="549" y="806"/>
			<point x="429" y="806" type="curve" smooth="yes"/>
			<point x="318" y="806"/>
			<point x="229" y="764"/>
			<point x="225" y="701" type="curve" smooth="yes"/>
			<point x="223" y="668"/>
			<point x="240" y="644"/>
			<point x="302" y="653" type="curve" smooth="yes"/>
			<point x="336" y="659"/>
			<point x="387" y="673"/>
			<point x="457" y="669" type="curve" smooth="yes"/>
			<point x="646" y="661"/>
			<point x="770" y="545"/>
		</contour>
	</outline>
</glyph>
<glyph name="sinTtU" format="1">
	<advance width="781"/>
	<outline>
		<contour>
			<point x="63" y="-242" type="curve" smooth="yes"/>
			<point x="64" y="-192"/>
			<point x="105" y="-125"/>
			<point x="185" y="-124" type="curve" smooth="yes"/>
			<point x="231" y="-124"/>
			<point x="270" y="-154"/>
			<point x="270" y="-154" type="curve"/>
			<point x="265" y="-179" type="line"/>
			<point x="184" y="-159"/>
			<point x="134" y="-201"/>
			<point x="134" y="-238" type="curve" smooth="yes"/>
			<point x="134" y="-273"/>
			<point x="168" y="-300"/>
			<point x="219" y="-298" type="curve"/>
			<point x="623" y="-266" type="line"/>
			<point x="633" y="189" type="line"/>
			<point x="680" y="189" type="line"/>
			<point x="692" y="-359" type="line"/>
			<point x="188" y="-359" type="line" smooth="yes"/>
			<point x="96" y="-359"/>
			<point x="62" y="-297"/>
		</contour>
		<component base="sinTta"/>
	</outline>
</glyph>
<glyph name="sinVUu" format="1">
  <advance width="790"/>
  <outline>
    <contour>
      <point x="700" y="-321" type="line"/>
      <point x="670" y="-337" type="line"/>
      <point x="629" y="-311"/>
      <point x="530" y="-293"/>
      <point x="470" y="-291" type="curve" smooth="yes"/>
      <point x="346" y="-289"/>
      <point x="348" y="-344"/>
      <point x="217" y="-344" type="curve" smooth="yes"/>
      <point x="108" y="-344"/>
      <point x="74" y="-273"/>
      <point x="75" y="-219" type="curve" smooth="yes"/>
      <point x="76" y="-171"/>
      <point x="119" y="-107"/>
      <point x="204" y="-106" type="curve" smooth="yes"/>
      <point x="245" y="-106"/>
      <point x="279" y="-126"/>
      <point x="279" y="-126" type="curve"/>
      <point x="274" y="-151" type="line"/>
      <point x="196" y="-126"/>
      <point x="148" y="-169"/>
      <point x="148" y="-215" type="curve" smooth="yes"/>
      <point x="148" y="-248"/>
      <point x="173" y="-271"/>
      <point x="218" y="-271" type="curve" smooth="yes"/>
      <point x="339" y="-272"/>
      <point x="350" y="-209"/>
      <point x="476" y="-208" type="curve" smooth="yes"/>
      <point x="527" y="-208"/>
      <point x="607" y="-225"/>
      <point x="636" y="-239" type="curve"/>
      <point x="653" y="209" type="line"/>
      <point x="704" y="239" type="line"/>
    </contour>
    <component base="sinVa"/>
  </outline>
</glyph>
<glyph name="sinYa.post" format="1">
	<advance width="713"/>
	<outline>
		<contour>
			<point x="12" y="20" type="line"/>
			<point x="12" y="20"/>
			<point x="267" y="191"/>
			<point x="282" y="404" type="curve" smooth="yes"/>
			<point x="288" y="495"/>
			<point x="235" y="521"/>
			<point x="189" y="521" type="curve" smooth="yes"/>
			<point x="148" y="521"/>
			<point x="114" y="488"/>
			<point x="104" y="457" type="curve"/>
			<point x="60" y="506" type="line"/>
			<point x="61" y="537"/>
			<point x="99" y="593"/>
			<point x="186" y="594" type="curve" smooth="yes"/>
			<point x="331" y="596"/>
			<point x="355" y="469"/>
			<point x="348" y="406" type="curve" smooth="yes"/>
			<point x="329" y="234"/>
			<point x="196" y="82"/>
			<point x="41" y="-16" type="curve"/>
		</contour>
		<contour>
			<point x="141" y="94" type="curve"/>
			<point x="152" y="127" type="line"/>
			<point x="173" y="144"/>
			<point x="170" y="173"/>
			<point x="196" y="156" type="curve"/>
			<point x="194" y="120"/>
			<point x="292" y="82"/>
			<point x="397" y="82" type="curve" smooth="yes"/>
			<point x="518" y="82"/>
			<point x="612" y="141"/>
			<point x="611" y="233" type="curve" smooth="yes"/>
			<point x="610" y="319"/>
			<point x="531" y="373"/>
			<point x="369" y="368" type="curve"/>
			<point x="372" y="511"/>
			<point x="434" y="595"/>
			<point x="541" y="599" type="curve" smooth="yes"/>
			<point x="599" y="601"/>
			<point x="669" y="572"/>
			<point x="664" y="486" type="curve" smooth="yes"/>
			<point x="659" y="399"/>
			<point x="561" y="381"/>
			<point x="561" y="381" type="curve"/>
			<point x="554" y="402" type="line"/>
			<point x="554" y="402"/>
			<point x="586" y="427"/>
			<point x="588" y="464" type="curve" smooth="yes"/>
			<point x="591" y="511"/>
			<point x="556" y="543"/>
			<point x="511" y="542" type="curve" smooth="yes"/>
			<point x="427" y="540"/>
			<point x="419" y="437"/>
			<point x="419" y="437" type="curve"/>
			<point x="538" y="448"/>
			<point x="667" y="376"/>
			<point x="666" y="219" type="curve" smooth="yes"/>
			<point x="665" y="100"/>
			<point x="581" y="-13"/>
			<point x="416" y="-14" type="curve" smooth="yes"/>
			<point x="271" y="-14"/>
			<point x="186" y="53"/>
			<point x="165" y="69" type="curve" smooth="yes"/>
			<point x="156" y="76"/>
			<point x="147" y="80"/>
		</contour>
	</outline>
</glyph>
